<svg width="31" height="31" viewBox="0 0 31 31" fill="none" xmlns="http://www.w3.org/2000/svg">
<path opacity="0.5" d="M30.9717 15.7505C30.9717 24.0348 24.256 30.7505 15.9717 30.7505C7.68741 30.7505 0.97168 24.0348 0.97168 15.7505C0.97168 7.46622 7.68741 0.750488 15.9717 0.750488C24.256 0.750488 30.9717 7.46622 30.9717 15.7505Z" fill="#1C274C"/>
<path d="M23.1821 26.2673C21.1313 27.676 18.6478 28.5005 15.9717 28.5005C13.2956 28.5005 10.812 27.676 8.76118 26.2672C7.8554 25.645 7.46832 24.4597 7.99496 23.4952C9.0867 21.4958 11.3363 20.2505 15.9716 20.2505C20.6071 20.2505 22.8567 21.4959 23.9484 23.4953C24.475 24.4598 24.0879 25.6451 23.1821 26.2673Z" fill="white"/>
<path d="M15.9717 15.7505C18.457 15.7505 20.4717 13.7358 20.4717 11.2505C20.4717 8.76521 18.457 6.75049 15.9717 6.75049C13.4865 6.75049 11.4717 8.76521 11.4717 11.2505C11.4717 13.7358 13.4865 15.7505 15.9717 15.7505Z" fill="white"/>
</svg>
