<svg width="51" height="51" viewBox="0 0 51 51" fill="none" xmlns="http://www.w3.org/2000/svg">
<path opacity="0.5" d="M50.0021 36.9555C50.2109 34.3932 50.2388 31.2705 50.2426 27.5966C50.2436 26.6333 49.4623 25.8519 48.499 25.8519C47.5357 25.8519 46.7552 26.6334 46.7542 27.5966C46.7505 31.2906 46.7232 34.2421 46.5252 36.6722C46.3151 39.2512 45.9217 41.0795 45.2592 42.4709L38.6766 36.5466C36.259 34.3708 32.6588 34.1542 29.9978 36.0243L29.3043 36.5117C27.4551 37.8113 24.9393 37.5934 23.3411 35.9951L13.365 26.019C11.3738 24.0279 8.17979 23.9215 6.06056 25.7758L3.73233 27.813C3.73154 27.1805 3.73154 26.5273 3.73154 25.8519C3.73154 20.3212 3.73524 16.3486 4.1417 13.3254C4.54142 10.3523 5.30163 8.55996 6.62641 7.23518C7.9512 5.9104 9.74357 5.15018 12.7166 4.75047C15.4119 4.38809 18.8619 4.34584 23.4979 4.34094C24.4612 4.33992 25.2432 3.5594 25.2432 2.59611C25.2432 1.63282 24.4615 0.851511 23.4982 0.852519C18.9268 0.857303 15.1709 0.900729 12.2518 1.2932C8.89193 1.74492 6.24072 2.68757 4.15976 4.76853C2.07881 6.84948 1.13616 9.5007 0.684437 12.8605C0.243114 16.1431 0.243136 20.3501 0.243165 25.7185V25.8543C0.243165 27.0812 0.243165 28.2442 0.247977 29.3437C0.266891 33.6666 0.357932 37.1479 0.855609 39.946C1.36223 42.7943 2.31493 45.0905 4.15976 46.9353C6.24072 49.0163 8.89193 49.9589 12.2518 50.4107C15.5343 50.852 19.7413 50.852 25.1096 50.8519H25.3766C30.7449 50.852 34.952 50.852 38.2346 50.4107C41.5944 49.9589 44.2456 49.0163 46.3266 46.9353C47.0598 46.2021 47.6621 45.387 48.1522 44.4769C49.2634 42.4134 49.7598 39.9288 50.0021 36.9555Z" fill="#1C274C"/>
<path fill-rule="evenodd" clip-rule="evenodd" d="M38.9932 23.3519C33.6899 23.3519 31.0382 23.3519 29.3907 21.7044C27.7432 20.0569 27.7432 17.4052 27.7432 12.1019C27.7432 6.79863 27.7432 4.14698 29.3907 2.49945C31.0382 0.851929 33.6899 0.851929 38.9932 0.851929C44.2965 0.851929 46.9481 0.851929 48.5956 2.49945C50.2432 4.14698 50.2432 6.79863 50.2432 12.1019C50.2432 17.4052 50.2432 20.0569 48.5956 21.7044C46.9481 23.3519 44.2965 23.3519 38.9932 23.3519ZM35.3563 16.3919C33.4444 14.7155 31.4932 12.4817 31.4932 10.347C31.4932 5.91417 35.6183 4.25918 38.9932 7.68348C42.368 4.25918 46.4932 5.91417 46.4932 10.347C46.4932 12.4818 44.542 14.7155 42.63 16.3919C41.1398 17.6986 40.3946 18.3519 38.9932 18.3519C37.5917 18.3519 36.8466 17.6986 35.3563 16.3919Z" fill="#1C274C"/>
</svg>
