<svg width="51" height="51" viewBox="0 0 51 51" fill="none" xmlns="http://www.w3.org/2000/svg">
<path d="M20.0063 1.30049C21.7973 0.893334 23.6598 0.678711 25.5703 0.678711C39.3774 0.678711 50.5703 11.8716 50.5703 25.6787C50.5703 39.4858 39.3774 50.6787 25.5703 50.6787C23.6598 50.6787 21.7973 50.4641 20.0063 50.0569C19.067 49.8434 18.4787 48.9088 18.6922 47.9695C18.9058 47.0302 19.8404 46.4418 20.7797 46.6554C22.3186 47.0052 23.9217 47.1903 25.5703 47.1903C37.4508 47.1903 47.0819 37.5593 47.0819 25.6787C47.0819 13.7982 37.4508 4.16708 25.5703 4.16708C23.9217 4.16708 22.3186 4.3522 20.7797 4.70207C19.8404 4.91562 18.9058 4.32726 18.6922 3.38795C18.4787 2.44863 19.067 1.51404 20.0063 1.30049Z" fill="#1C274C"/>
<g opacity="0.5">
<path d="M14.6738 5.05481C15.1871 5.86997 14.9424 6.94687 14.1272 7.46013C11.3942 9.18097 9.07501 11.5002 7.35418 14.2332C6.84091 15.0483 5.76401 15.2931 4.94885 14.7798C4.1337 14.2665 3.88897 13.1896 4.40223 12.3745C6.40112 9.19988 9.09392 6.50708 12.2685 4.50819C13.0837 3.99492 14.1606 4.23965 14.6738 5.05481Z" fill="#1C274C"/>
<path d="M4.94885 36.5764C5.76401 36.0632 6.84091 36.3079 7.35418 37.1231C9.07501 39.856 11.3942 42.1753 14.1272 43.8961C14.9424 44.4094 15.1871 45.4863 14.6738 46.3014C14.1606 47.1166 13.0837 47.3613 12.2685 46.848C9.09392 44.8491 6.40112 42.1563 4.40223 38.9818C3.88897 38.1666 4.1337 37.0897 4.94885 36.5764Z" fill="#1C274C"/>
</g>
<path opacity="0.3" d="M4.59464 20.8875C4.80819 19.9481 4.21984 19.0136 3.28052 18.8C2.34121 18.5865 1.40662 19.1748 1.19307 20.1141C0.785912 21.905 0.571289 23.7676 0.571289 25.6781C0.571289 27.5886 0.785912 29.4511 1.19307 31.242C1.40662 32.1813 2.34121 32.7696 3.28052 32.5561C4.21984 32.3425 4.80819 31.408 4.59464 30.4686C4.24478 28.9297 4.05966 27.3266 4.05966 25.6781C4.05966 24.0295 4.24478 22.4264 4.59464 20.8875Z" fill="#1C274C"/>
<path d="M33.5103 23.2161C35.3283 24.2895 35.3283 27.0681 33.5103 28.1415L22.5331 34.6225C20.7661 35.6657 18.5947 34.3079 18.5947 32.1598L18.5947 19.1978C18.5947 17.0497 20.7661 15.6918 22.5331 16.735L33.5103 23.2161Z" fill="#1C274C"/>
</svg>
