<svg width="51" height="51" viewBox="0 0 51 51" fill="none" xmlns="http://www.w3.org/2000/svg">
<path opacity="0.5" d="M44.231 18.6906C20.6207 -39.6335 65.1241 70.306 44.231 18.6906V18.6906ZM0.443201 28.3903C0.405479 25.3873 1.67083 22.6869 4.62311 21.6247C4.73258 21.476 4.84009 21.3608 5.03141 21.2166C5.37243 20.9592 5.68214 20.8831 6.08316 20.7455C20.2375 16.0629 25.6695 8.76635 28.759 4.6166C29.6609 3.40522 30.3804 2.43893 31.1227 1.77248C31.5344 1.40274 31.8582 1.16508 32.3448 1.00074C32.8479 0.830832 33.316 0.815385 33.968 0.909629C35.3997 1.1163 36.8681 1.97515 38.3034 3.31235C41.4817 6.27329 44.8331 11.8851 47.1966 17.7237C49.5716 23.5909 50.9771 29.7699 50.2504 33.8383C49.9509 35.5162 49.2904 36.8932 48.1971 37.8424L48.1954 37.8408C48.1309 37.8966 48.0611 37.9473 47.987 37.9924C47.236 38.4514 46.5275 38.6298 45.7944 38.6549C45.1606 38.6768 44.6058 38.5798 43.9892 38.4647C42.8789 38.2572 41.8162 37.9846 40.6705 37.691C36.9404 36.7347 32.287 35.5423 24.8931 36.3225C24.7458 36.763 24.6377 37.2335 24.6331 37.6535C24.6302 37.9328 24.6616 38.1545 24.752 38.229L24.877 38.3314C25.569 38.8975 25.9099 39.1757 26.1142 39.8625C26.2736 40.3996 26.207 40.8623 26.0759 41.7732L26.0319 42.0797C25.9581 42.6023 26.2565 42.717 26.5546 42.8312C27.428 43.1661 28.3013 43.5009 28.7749 44.6381C28.9047 44.9018 28.9418 45.1949 28.8812 45.4781C28.5018 47.2309 27.3514 48.1203 26.2017 49.0094C25.9757 49.1841 25.7494 49.3593 25.5473 49.5313L25.5446 49.5288C25.512 49.5566 25.478 49.5834 25.4422 49.6092C22.7007 51.5806 20.7941 50.9933 19.3192 49.3343C18.3788 48.2769 17.7833 46.8003 17.2275 45.4221L16.9988 44.8638C16.2052 42.9322 15.6098 40.6228 15.0081 38.2189L14.8566 38.2608C14.248 38.4231 13.6414 38.5915 13.0371 38.7661C12.9775 38.7832 12.9465 38.7944 12.9213 38.8034C12.3806 38.9968 12.1092 39.0934 11.6735 38.953C8.0724 39.7846 5.07816 38.2067 3.06675 35.6754C2.24568 34.6421 1.59604 33.443 1.14915 32.1936C0.704859 30.9508 0.458963 29.6447 0.443201 28.3903Z" fill="#1C274C"/>
<path fill-rule="evenodd" clip-rule="evenodd" d="M5.67392 22.7974C-1.7758 24.7684 3.10429 40.1148 11.8307 37.4296C12.1667 37.6185 12.162 37.5295 12.5547 37.4157C13.7544 37.0668 14.9631 36.743 16.1796 36.4447C16.902 39.3093 17.5575 42.1264 18.4813 44.3748C19.6597 47.2429 20.8871 51.0723 24.4595 48.5032C25.5864 47.5436 26.9852 46.804 27.33 45.2114C26.7565 43.664 24.0904 44.5764 24.4686 41.9018C24.7304 40.0496 24.7882 40.1819 23.689 39.2791C22.5761 38.3648 23.1558 36.2867 23.7358 35.0246C27.6161 34.5416 30.7891 34.5706 33.4804 34.8433C30.0718 31.3761 27.6584 27.7056 26.1666 23.8779C24.6695 20.0363 24.105 16.0535 24.398 11.9736C20.6888 15.4707 15.2096 19.2393 6.62652 22.079C5.92808 22.3102 6.07211 22.226 5.67392 22.7974Z" fill="#1C274C"/>
<path fill-rule="evenodd" clip-rule="evenodd" d="M35.8781 35.0911C37.4755 35.4318 39.6724 35.9966 41.5571 36.4553C37.7005 32.9806 34.5509 27.6422 32.4212 22.177C30.1482 16.3434 29.0304 10.2777 29.4435 6.10547C28.4244 7.41461 27.2856 8.8877 26.1726 10.186C24.942 19.1402 27.896 27.609 35.8781 35.0911Z" fill="#1C274C"/>
<path fill-rule="evenodd" clip-rule="evenodd" d="M16.1646 36.4333C16.7652 38.8346 17.7002 42.4722 18.4818 44.3747C19.66 47.2428 20.8876 51.0722 24.46 48.5031C25.5869 47.5435 26.9857 46.8039 27.3304 45.2112C26.757 43.6639 24.0908 44.5763 24.469 41.9017C24.7309 40.0495 24.7886 40.1817 23.6895 39.279C22.6179 38.3987 23.1155 36.4397 23.6717 35.1686C25.1263 34.5267 29.0762 34.4642 33.4253 34.8539C30.692 32.0724 28.626 29.4738 26.7802 25.4209C22.6188 28.7039 20.326 33.1504 16.1646 36.4333Z" fill="#1C274C"/>
</svg>
