<svg width="23" height="23" viewBox="0 0 23 23" fill="none" xmlns="http://www.w3.org/2000/svg">
<path d="M0.76416 11.4844C0.76416 6.29892 0.76416 3.7062 2.37507 2.09529C3.98599 0.484375 6.57871 0.484375 11.7642 0.484375C16.9496 0.484375 19.5423 0.484375 21.1532 2.09529C22.7642 3.7062 22.7642 6.29892 22.7642 11.4844C22.7642 16.6698 22.7642 19.2625 21.1532 20.8735C19.5423 22.4844 16.9496 22.4844 11.7642 22.4844C6.57871 22.4844 3.98599 22.4844 2.37507 20.8735C0.76416 19.2625 0.76416 16.6698 0.76416 11.4844Z" fill="#1C274C"/>
<path d="M2.37507 20.8731C3.98599 22.484 6.57871 22.484 11.7642 22.484C16.9496 22.484 19.5423 22.484 21.1532 20.8731C22.646 19.3803 22.7555 17.0446 22.7635 12.584H19.2879C18.2922 12.584 17.7943 12.584 17.3567 12.7853C16.9191 12.9865 16.5951 13.3645 15.9472 14.1205L15.9471 14.1205L15.2812 14.8975L15.2812 14.8975C14.6332 15.6535 14.3092 16.0314 13.8716 16.2327C13.434 16.434 12.9361 16.434 11.9404 16.434H11.5879C10.5922 16.434 10.0943 16.434 9.65673 16.2327C9.21912 16.0314 8.89513 15.6535 8.24714 14.8975L7.58117 14.1205C6.93319 13.3645 6.6092 12.9865 6.17159 12.7853C5.73398 12.584 5.23613 12.584 4.24045 12.584H0.76416C0.772194 17.0446 0.882338 19.3803 2.37507 20.8731Z" fill="white"/>
</svg>
