<svg width="25" height="25" viewBox="0 0 25 25" fill="none" xmlns="http://www.w3.org/2000/svg">
<path d="M13.2157 5.58087L8.23789 10.0056C7.30731 10.8328 6.84203 11.2464 6.67055 11.7348C6.51997 12.1636 6.51997 12.631 6.67055 13.0599C6.84203 13.5483 7.30731 13.9619 8.23789 14.789L13.2157 19.2138C13.638 19.5891 13.8492 19.7768 14.0285 19.7835C14.1843 19.7894 14.3339 19.7222 14.4331 19.6019C14.5472 19.4634 14.5472 19.1809 14.5472 18.6158V15.8259C16.9753 15.8259 19.5399 16.6057 21.4125 17.9901C22.3874 18.7108 22.8748 19.0712 23.0605 19.057C23.2415 19.0431 23.3563 18.9724 23.4502 18.8171C23.5466 18.6577 23.4615 18.1598 23.2913 17.164C22.1863 10.6979 17.7364 8.96875 14.5472 8.96875V6.1788C14.5472 5.61378 14.5472 5.33127 14.4331 5.19277C14.3339 5.07245 14.1843 5.00526 14.0285 5.01109C13.8492 5.01781 13.638 5.20549 13.2157 5.58087Z" fill="#1C274C"/>
<path fill-rule="evenodd" clip-rule="evenodd" d="M10.5585 4.38713C10.2766 4.08359 9.8021 4.06602 9.49856 4.34787L4.28236 9.19149C3.33542 10.0708 2.79736 11.3047 2.79736 12.5969C2.79736 13.9591 3.39504 15.2527 4.43235 16.1357L9.52277 20.4686C9.83819 20.7371 10.3115 20.699 10.58 20.3836C10.8485 20.0682 10.8105 19.5948 10.495 19.3263L5.40461 14.9934C4.70212 14.3955 4.29736 13.5194 4.29736 12.5969C4.29736 11.7218 4.66175 10.8862 5.30303 10.2907L10.5192 5.44706C10.8228 5.16521 10.8403 4.69066 10.5585 4.38713Z" fill="white"/>
</svg>
