<svg width="24" height="25" viewBox="0 0 24 25" fill="none" xmlns="http://www.w3.org/2000/svg">
<path d="M18.5663 8.00419C18.5663 11.6493 15.6113 14.6042 11.9662 14.6042C8.32114 14.6042 5.36621 11.6493 5.36621 8.00419C5.36621 4.3591 8.32114 1.40417 11.9662 1.40417C15.6113 1.40417 18.5663 4.3591 18.5663 8.00419Z" stroke="#1C274C" stroke-width="1.5"/>
<path d="M5.91632 10.412C3.06969 11.1447 0.966309 13.7288 0.966309 16.8041C0.966309 20.4492 3.92124 23.4042 7.56633 23.4042C11.2114 23.4042 14.1663 20.4492 14.1663 16.8041C14.1663 15.974 14.0131 15.1796 13.7333 14.4478" stroke="#1C274C" stroke-width="1.5"/>
<path opacity="0.5" d="M11.9663 21.7236C13.134 22.7687 14.6759 23.4042 16.3663 23.4042C20.0114 23.4042 22.9663 20.4492 22.9663 16.8041C22.9663 13.7288 20.863 11.1447 18.0163 10.412" stroke="#1C274C" stroke-width="1.5"/>
</svg>
