<svg width="270" height="128" viewBox="0 0 270 128" fill="none" xmlns="http://www.w3.org/2000/svg">
<g filter="url(#filter0_d_640_5756)">
<rect x="6.23779" y="19.5107" width="240.552" height="98.4771" stroke="#F2F2F2" stroke-width="3" stroke-dasharray="6 6"/>
<rect x="230.79" y="0.510681" width="35" height="35" rx="15" fill="#D9D9D9"/>
<path d="M239.79 12.3967C239.79 11.9122 240.135 11.5195 240.561 11.5195L243.226 11.519C243.755 11.5037 244.222 11.121 244.402 10.5548C244.407 10.5399 244.412 10.5215 244.432 10.4549L244.547 10.0632C244.617 9.82309 244.678 9.61387 244.764 9.42685C245.102 8.68804 245.728 8.175 246.452 8.04365C246.635 8.0104 246.829 8.01054 247.051 8.0107H250.529C250.752 8.01054 250.946 8.0104 251.129 8.04365C251.852 8.175 252.478 8.68804 252.816 9.42685C252.902 9.61387 252.963 9.82309 253.034 10.0632L253.148 10.4549C253.168 10.5215 253.173 10.5399 253.178 10.5548C253.358 11.121 253.918 11.5042 254.447 11.5195H257.019C257.445 11.5195 257.79 11.9122 257.79 12.3967C257.79 12.8811 257.445 13.2738 257.019 13.2738H240.561C240.135 13.2738 239.79 12.8811 239.79 12.3967Z" fill="#1C274C"/>
<path fill-rule="evenodd" clip-rule="evenodd" d="M246.215 17.4922C246.628 17.4488 246.995 17.7653 247.036 18.1992L247.536 23.4624C247.578 23.8962 247.277 24.2831 246.865 24.3265C246.453 24.3699 246.085 24.0533 246.044 23.6195L245.544 18.3563C245.503 17.9225 245.803 17.5356 246.215 17.4922Z" fill="#1C274C"/>
<path fill-rule="evenodd" clip-rule="evenodd" d="M251.365 17.4922C251.777 17.5356 252.078 17.9225 252.036 18.3563L251.536 23.6195C251.495 24.0533 251.128 24.3699 250.715 24.3265C250.303 24.2831 250.003 23.8962 250.044 23.4624L250.544 18.1992C250.585 17.7653 250.953 17.4488 251.365 17.4922Z" fill="#1C274C"/>
<path opacity="0.5" d="M248.386 28.0108H249.194C251.977 28.0108 253.369 28.0108 254.273 27.1249C255.178 26.239 255.27 24.7857 255.455 21.8793L255.722 17.6914C255.823 16.1144 255.873 15.3259 255.419 14.8263C254.965 14.3266 254.199 14.3266 252.666 14.3266H244.914C243.381 14.3266 242.615 14.3266 242.161 14.8263C241.707 15.3259 241.757 16.1144 241.858 17.6914L242.125 21.8793C242.31 24.7857 242.402 26.239 243.307 27.1249C244.212 28.0108 245.603 28.0108 248.386 28.0108Z" fill="#1C274C"/>
</g>
<defs>
<filter id="filter0_d_640_5756" x="0.737793" y="0.510681" width="269.052" height="126.977" filterUnits="userSpaceOnUse" color-interpolation-filters="sRGB">
<feFlood flood-opacity="0" result="BackgroundImageFix"/>
<feColorMatrix in="SourceAlpha" type="matrix" values="0 0 0 0 0 0 0 0 0 0 0 0 0 0 0 0 0 0 127 0" result="hardAlpha"/>
<feOffset dy="4"/>
<feGaussianBlur stdDeviation="2"/>
<feComposite in2="hardAlpha" operator="out"/>
<feColorMatrix type="matrix" values="0 0 0 0 0 0 0 0 0 0 0 0 0 0 0 0 0 0 0.25 0"/>
<feBlend mode="normal" in2="BackgroundImageFix" result="effect1_dropShadow_640_5756"/>
<feBlend mode="normal" in="SourceGraphic" in2="effect1_dropShadow_640_5756" result="shape"/>
</filter>
</defs>
</svg>
