<svg width="35" height="9" viewBox="0 0 35 9" fill="none" xmlns="http://www.w3.org/2000/svg">
<path d="M1.6395 1.37454V3.93754H4.4335V4.76254H1.6395V7.40254H4.7635V8.22754H0.638504V0.549539H4.7635V1.37454H1.6395ZM8.52215 7.30354L10.3922 2.19954H11.4592L9.09415 8.22754H7.92815L5.56315 2.19954H6.64115L8.52215 7.30354ZM17.9442 4.98254C17.9442 5.17321 17.9332 5.37487 17.9112 5.58754H13.0932C13.1298 6.18154 13.3315 6.64721 13.6982 6.98454C14.0722 7.31454 14.5232 7.47954 15.0512 7.47954C15.4838 7.47954 15.8432 7.38054 16.1292 7.18254C16.4225 6.97721 16.6278 6.70587 16.7452 6.36854H17.8232C17.6618 6.94787 17.3392 7.42087 16.8552 7.78754C16.3712 8.14687 15.7698 8.32654 15.0512 8.32654C14.4792 8.32654 13.9658 8.19821 13.5112 7.94154C13.0638 7.68487 12.7118 7.32187 12.4552 6.85254C12.1985 6.37587 12.0702 5.82587 12.0702 5.20254C12.0702 4.57921 12.1948 4.03287 12.4442 3.56354C12.6935 3.09421 13.0418 2.73487 13.4892 2.48554C13.9438 2.22887 14.4645 2.10054 15.0512 2.10054C15.6232 2.10054 16.1292 2.22521 16.5692 2.47454C17.0092 2.72387 17.3465 3.06854 17.5812 3.50854C17.8232 3.94121 17.9442 4.43254 17.9442 4.98254ZM16.9102 4.77354C16.9102 4.39221 16.8258 4.06587 16.6572 3.79454C16.4885 3.51587 16.2575 3.30687 15.9642 3.16754C15.6782 3.02087 15.3592 2.94754 15.0072 2.94754C14.5012 2.94754 14.0685 3.10887 13.7092 3.43154C13.3572 3.75421 13.1555 4.20154 13.1042 4.77354H16.9102ZM22.2025 2.08954C22.9358 2.08954 23.5298 2.31321 23.9845 2.76054C24.4391 3.20054 24.6665 3.83854 24.6665 4.67454V8.22754H23.6765V4.81754C23.6765 4.21621 23.5261 3.75787 23.2255 3.44254C22.9248 3.11987 22.5141 2.95854 21.9935 2.95854C21.4655 2.95854 21.0438 3.12354 20.7285 3.45354C20.4205 3.78354 20.2665 4.26387 20.2665 4.89454V8.22754H19.2655V2.19954H20.2665V3.05754C20.4645 2.74954 20.7321 2.51121 21.0695 2.34254C21.4141 2.17387 21.7918 2.08954 22.2025 2.08954ZM27.5226 3.02454V6.57754C27.5226 6.87087 27.5849 7.07987 27.7096 7.20454C27.8343 7.32187 28.0506 7.38054 28.3586 7.38054H29.0956V8.22754H28.1936C27.6363 8.22754 27.2183 8.09921 26.9396 7.84254C26.6609 7.58587 26.5216 7.16421 26.5216 6.57754V3.02454H25.7406V2.19954H26.5216V0.681539H27.5226V2.19954H29.0956V3.02454H27.5226ZM32.4424 8.32654C31.9804 8.32654 31.5661 8.24954 31.1994 8.09554C30.8328 7.93421 30.5431 7.71421 30.3304 7.43554C30.1178 7.14954 30.0004 6.82321 29.9784 6.45654H31.0124C31.0418 6.75721 31.1811 7.00287 31.4304 7.19354C31.6871 7.38421 32.0208 7.47954 32.4314 7.47954C32.8128 7.47954 33.1134 7.39521 33.3334 7.22654C33.5534 7.05787 33.6634 6.84521 33.6634 6.58854C33.6634 6.32454 33.5461 6.13021 33.3114 6.00554C33.0768 5.87354 32.7138 5.74521 32.2224 5.62054C31.7751 5.50321 31.4084 5.38587 31.1224 5.26854C30.8438 5.14387 30.6018 4.96421 30.3964 4.72954C30.1984 4.48754 30.0994 4.17221 30.0994 3.78354C30.0994 3.47554 30.1911 3.19321 30.3744 2.93654C30.5578 2.67987 30.8181 2.47821 31.1554 2.33154C31.4928 2.17754 31.8778 2.10054 32.3104 2.10054C32.9778 2.10054 33.5168 2.26921 33.9274 2.60654C34.3381 2.94387 34.5581 3.40587 34.5874 3.99254H33.5864C33.5644 3.67721 33.4361 3.42421 33.2014 3.23354C32.9741 3.04287 32.6661 2.94754 32.2774 2.94754C31.9181 2.94754 31.6321 3.02454 31.4194 3.17854C31.2068 3.33254 31.1004 3.53421 31.1004 3.78354C31.1004 3.98154 31.1628 4.14654 31.2874 4.27854C31.4194 4.40321 31.5808 4.50587 31.7714 4.58654C31.9694 4.65987 32.2408 4.74421 32.5854 4.83954C33.0181 4.95687 33.3701 5.07421 33.6414 5.19154C33.9128 5.30154 34.1438 5.47021 34.3344 5.69754C34.5324 5.92487 34.6351 6.22187 34.6424 6.58854C34.6424 6.91854 34.5508 7.21554 34.3674 7.47954C34.1841 7.74354 33.9238 7.95254 33.5864 8.10654C33.2564 8.25321 32.8751 8.32654 32.4424 8.32654Z" fill="#64748B"/>
</svg>
