<svg width="23" height="23" viewBox="0 0 23 23" fill="none" xmlns="http://www.w3.org/2000/svg">
<path fill-rule="evenodd" clip-rule="evenodd" d="M7.73779 7.72917C7.73779 7.27354 8.10716 6.90417 8.56279 6.90417H15.1628C15.6184 6.90417 15.9878 7.27354 15.9878 7.72917C15.9878 8.18481 15.6184 8.55417 15.1628 8.55417H12.6878V14.3292C12.6878 14.7848 12.3184 15.1542 11.8628 15.1542C11.4072 15.1542 11.0378 14.7848 11.0378 14.3292V8.55417H8.56279C8.10716 8.55417 7.73779 8.18481 7.73779 7.72917Z" fill="#1C274C"/>
<path d="M3.06279 4.42917C4.27782 4.42917 5.26279 3.4442 5.26279 2.22917C5.26279 1.01415 4.27782 0.0291748 3.06279 0.0291748C1.84777 0.0291748 0.862793 1.01415 0.862793 2.22917C0.862793 3.4442 1.84777 4.42917 3.06279 4.42917Z" fill="#1C274C"/>
<path d="M3.06279 22.0292C4.27782 22.0292 5.26279 21.0442 5.26279 19.8292C5.26279 18.6141 4.27782 17.6292 3.06279 17.6292C1.84777 17.6292 0.862793 18.6141 0.862793 19.8292C0.862793 21.0442 1.84777 22.0292 3.06279 22.0292Z" fill="#1C274C"/>
<path d="M22.8628 2.22917C22.8628 3.4442 21.8778 4.42917 20.6628 4.42917C19.4478 4.42917 18.4628 3.4442 18.4628 2.22917C18.4628 1.01415 19.4478 0.0291748 20.6628 0.0291748C21.8778 0.0291748 22.8628 1.01415 22.8628 2.22917Z" fill="#1C274C"/>
<path d="M20.6628 22.0292C21.8778 22.0292 22.8628 21.0442 22.8628 19.8292C22.8628 18.6141 21.8778 17.6292 20.6628 17.6292C19.4478 17.6292 18.4628 18.6141 18.4628 19.8292C18.4628 21.0442 19.4478 22.0292 20.6628 22.0292Z" fill="#1C274C"/>
<g opacity="0.5">
<path d="M3.88779 4.26926C3.63302 4.37239 3.35454 4.42917 3.06279 4.42917C2.77105 4.42917 2.49256 4.37239 2.23779 4.26926V17.7891C2.49256 17.686 2.77105 17.6292 3.06279 17.6292C3.35454 17.6292 3.63302 17.686 3.88779 17.7891V4.26926Z" fill="#1C274C"/>
<path d="M5.10288 3.05417H18.6227C18.5196 2.79941 18.4628 2.52092 18.4628 2.22917C18.4628 1.93743 18.5196 1.65894 18.6227 1.40417H5.10288C5.206 1.65894 5.26279 1.93743 5.26279 2.22917C5.26279 2.52092 5.206 2.79941 5.10288 3.05417Z" fill="#1C274C"/>
<path d="M19.8378 4.26926C20.0926 4.37239 20.371 4.42917 20.6628 4.42917C20.9545 4.42917 21.233 4.37239 21.4878 4.26926V17.7891C21.233 17.686 20.9545 17.6292 20.6628 17.6292C20.371 17.6292 20.0926 17.686 19.8378 17.7891V4.26926Z" fill="#1C274C"/>
<path d="M18.6227 19.0042H5.10288C5.206 19.2589 5.26279 19.5374 5.26279 19.8292C5.26279 20.1209 5.206 20.3994 5.10288 20.6542H18.6227C18.5196 20.3994 18.4628 20.1209 18.4628 19.8292C18.4628 19.5374 18.5196 19.2589 18.6227 19.0042Z" fill="#1C274C"/>
</g>
</svg>
