<svg width="23" height="23" viewBox="0 0 23 23" fill="none" xmlns="http://www.w3.org/2000/svg">
<g opacity="0.5">
<path d="M0.895996 0.875329C0.895996 0.408011 1.31813 0.0291748 1.83885 0.0291748H21.9531C22.4739 0.0291748 22.896 0.408011 22.896 0.875329C22.896 1.34265 22.4739 1.72148 21.9531 1.72148H1.83885C1.31813 1.72148 0.895996 1.34265 0.895996 0.875329Z" fill="#1C274C"/>
<path d="M0.895996 21.183C0.895996 20.7157 1.31813 20.3369 1.83885 20.3369H21.9531C22.4739 20.3369 22.896 20.7157 22.896 21.183C22.896 21.6503 22.4739 22.0292 21.9531 22.0292H1.83885C1.31813 22.0292 0.895996 21.6503 0.895996 21.183Z" fill="#1C274C"/>
</g>
<path d="M12.5626 3.0975C12.1944 2.76706 11.5974 2.76706 11.2292 3.0975L7.4578 6.48212C7.08959 6.81256 7.08959 7.34832 7.4578 7.67876C7.82601 8.0092 8.42299 8.0092 8.7912 7.67876L10.9531 5.73862V16.3197L8.7912 14.3796C8.42299 14.0491 7.82601 14.0491 7.4578 14.3796C7.08959 14.71 7.08959 15.2458 7.4578 15.5762L11.2292 18.9608C11.5974 19.2913 12.1944 19.2913 12.5626 18.9608L16.3341 15.5762C16.7023 15.2458 16.7023 14.71 16.3341 14.3796C15.9658 14.0491 15.3689 14.0491 15.0007 14.3796L12.8388 16.3197V5.73862L15.0007 7.67876C15.3689 8.0092 15.9658 8.0092 16.3341 7.67876C16.7023 7.34832 16.7023 6.81256 16.3341 6.48212L12.5626 3.0975Z" fill="#1C274C"/>
</svg>
