<svg width="25" height="24" viewBox="0 0 25 24" fill="none" xmlns="http://www.w3.org/2000/svg">
<path opacity="0.5" d="M23.4102 0.779175V22.7792" stroke="#1C274C" stroke-width="1.5" stroke-linecap="round"/>
<path d="M18.5213 6.82916C18.5213 5.80109 18.5213 5.28705 18.2756 4.90416C18.1147 4.65333 17.8833 4.44504 17.6046 4.30022C17.1792 4.07916 16.608 4.07916 15.4657 4.07916H4.46571C3.3234 4.07916 2.75225 4.07916 2.32682 4.30022C2.04812 4.44504 1.81668 4.65333 1.65578 4.90416C1.41016 5.28705 1.41016 5.80109 1.41016 6.82916C1.41016 7.85724 1.41016 8.37128 1.65578 8.75416C1.81668 9.00499 2.04812 9.21329 2.32682 9.3581C2.75225 9.57916 3.3234 9.57916 4.46571 9.57916H15.4657C16.608 9.57916 17.1792 9.57916 17.6046 9.3581C17.8833 9.21329 18.1147 9.00499 18.2756 8.75416C18.5213 8.37128 18.5213 7.85724 18.5213 6.82916Z" stroke="#1C274C" stroke-width="1.5"/>
<path d="M18.5216 16.7292C18.5216 15.7011 18.5216 15.1871 18.276 14.8042C18.1151 14.5534 17.8836 14.3451 17.6049 14.2002C17.1795 13.9792 16.6083 13.9792 15.466 13.9792H8.1327C6.9904 13.9792 6.41924 13.9792 5.99382 14.2002C5.71511 14.3451 5.48368 14.5534 5.32277 14.8042C5.07715 15.1871 5.07715 15.7011 5.07715 16.7292C5.07715 17.7573 5.07715 18.2713 5.32277 18.6542C5.48368 18.905 5.71511 19.1133 5.99382 19.2581C6.41924 19.4792 6.9904 19.4792 8.1327 19.4792H15.466C16.6083 19.4792 17.1795 19.4792 17.6049 19.2581C17.8836 19.1133 18.1151 18.905 18.276 18.6542C18.5216 18.2713 18.5216 17.7573 18.5216 16.7292Z" stroke="#1C274C" stroke-width="1.5"/>
</svg>
