<svg width="23" height="23" viewBox="0 0 23 23" fill="none" xmlns="http://www.w3.org/2000/svg">
<path fill-rule="evenodd" clip-rule="evenodd" d="M17.5501 10.0592C15.2166 10.0592 14.0499 10.0592 13.325 9.33427C12.6001 8.60936 12.6001 7.44263 12.6001 5.10918C12.6001 2.77573 12.6001 1.609 13.325 0.88409C14.0499 0.15918 15.2166 0.15918 17.5501 0.15918C19.8835 0.15918 21.0503 0.15918 21.7752 0.88409C22.5001 1.609 22.5001 2.77573 22.5001 5.10918C22.5001 7.44263 22.5001 8.60936 21.7752 9.33427C21.0503 10.0592 19.8835 10.0592 17.5501 10.0592ZM18.3751 2.90918C18.3751 2.45354 18.0057 2.08418 17.5501 2.08418C17.0945 2.08418 16.7251 2.45354 16.7251 2.90918V4.28418H15.3501C14.8945 4.28418 14.5251 4.65354 14.5251 5.10918C14.5251 5.56481 14.8945 5.93418 15.3501 5.93418H16.7251V7.30918C16.7251 7.76481 17.0945 8.13418 17.5501 8.13418C18.0057 8.13418 18.3751 7.76481 18.3751 7.30918V5.93418H19.7501C20.2057 5.93418 20.5751 5.56481 20.5751 5.10918C20.5751 4.65354 20.2057 4.28418 19.7501 4.28418H18.3751V2.90918Z" fill="white"/>
<path d="M22.4997 11.9268C22.4981 13.5434 22.4858 14.9173 22.3939 16.0448C22.2873 17.353 22.0689 18.4462 21.58 19.3542C21.3643 19.7546 21.0993 20.1132 20.7767 20.4359C19.8611 21.3515 18.6945 21.7663 17.2162 21.965C15.7719 22.1592 13.9208 22.1592 11.5587 22.1592H11.4413C9.07921 22.1592 7.22811 22.1592 5.78379 21.965C4.30546 21.7663 3.13892 21.3515 2.2233 20.4359C1.41158 19.6242 0.992389 18.6138 0.769476 17.3606C0.550497 16.1294 0.510439 14.5976 0.502117 12.6956C0.5 12.2118 0.5 11.7001 0.5 11.1602V11.1005C0.499987 8.7384 0.499977 6.88728 0.69416 5.44297C0.892916 3.96464 1.30768 2.7981 2.2233 1.88248C3.13892 0.966863 4.30546 0.552096 5.78379 0.353339C7.06823 0.180652 8.72081 0.161544 10.7322 0.159439C11.1561 0.158996 11.5 0.502774 11.5 0.92662C11.5 1.35047 11.1559 1.6939 10.7321 1.69435C8.69224 1.6965 7.17426 1.71509 5.98831 1.87454C4.68018 2.05041 3.89153 2.38491 3.30863 2.96781C2.72573 3.55071 2.39123 4.33936 2.21536 5.64749C2.03651 6.9777 2.03488 8.72565 2.03488 11.1592C2.03488 11.4564 2.03488 11.7438 2.03523 12.022L3.05965 11.1257C3.99212 10.3098 5.39747 10.3566 6.2736 11.2327L10.6631 15.6222C11.3663 16.3254 12.4733 16.4213 13.2869 15.8495L13.592 15.635C14.7629 14.8122 16.347 14.9075 17.4107 15.8648L20.307 18.4715C20.5985 17.8593 20.7717 17.0549 20.8641 15.9201C20.9512 14.8509 20.9632 13.5522 20.9649 11.9269C20.9653 11.503 21.3087 11.1592 21.7326 11.1592C22.1564 11.1592 22.5002 11.503 22.4997 11.9268Z" fill="#1C274C"/>
</svg>
