<svg width="24" height="24" viewBox="0 0 24 24" fill="none" xmlns="http://www.w3.org/2000/svg">
<path opacity="0.5" d="M23.146 18.5014V10.557C23.146 5.94766 23.146 3.64302 21.8573 2.2111C20.5685 0.779175 18.4944 0.779175 14.346 0.779175H9.946C5.79764 0.779175 3.72346 0.779175 2.43473 2.2111C1.146 3.64302 1.146 5.94766 1.146 10.557V13.0014C1.146 17.6107 1.146 19.9153 2.43473 21.3473C3.72346 22.7792 5.79764 22.7792 9.946 22.7792H11.046H18.746" stroke="#1C274C" stroke-width="1.5"/>
<path d="M13.2461 17.8902C13.2461 15.5856 13.2461 14.4333 13.8905 13.7173C14.5348 13.0013 15.5719 13.0013 17.6461 13.0013H18.7461C20.8203 13.0013 21.8574 13.0013 22.5017 13.7173C23.1461 14.4333 23.1461 15.5856 23.1461 17.8902C23.1461 20.1949 23.1461 21.3472 22.5017 22.0632C21.8574 22.7791 20.8203 22.7791 18.7461 22.7791H17.6461C15.5719 22.7791 14.5348 22.7791 13.8905 22.0632C13.2461 21.3472 13.2461 20.1949 13.2461 17.8902Z" stroke="#1C274C" stroke-width="1.5"/>
<path d="M7.19619 6.2792V9.94587M7.19619 6.2792H10.4962M7.19619 6.2792L11.5962 11.1681" stroke="#1C274C" stroke-width="1.5" stroke-linecap="round" stroke-linejoin="round"/>
</svg>
