<svg width="23" height="23" viewBox="0 0 23 23" fill="none" xmlns="http://www.w3.org/2000/svg">
<g opacity="0.5">
<path d="M0.895996 0.875329C0.895996 0.408011 1.31813 0.0291748 1.83885 0.0291748H21.9531C22.4739 0.0291748 22.896 0.408011 22.896 0.875329C22.896 1.34265 22.4739 1.72148 21.9531 1.72148H1.83885C1.31813 1.72148 0.895996 1.34265 0.895996 0.875329Z" fill="#1C274C"/>
<path d="M0.895996 21.183C0.895996 20.7157 1.31813 20.3369 1.83885 20.3369H21.9531C22.4739 20.3369 22.896 20.7157 22.896 21.183C22.896 21.6503 22.4739 22.0292 21.9531 22.0292H1.83885C1.31813 22.0292 0.895996 21.6503 0.895996 21.183Z" fill="#1C274C"/>
</g>
<path d="M3.96414 10.3625C3.6337 10.7308 3.6337 11.3277 3.96414 11.6959L7.34876 15.4674C7.6792 15.8356 8.21496 15.8356 8.5454 15.4674C8.87584 15.0992 8.87584 14.5022 8.5454 14.134L6.60526 11.9721H17.1863L15.2462 14.134C14.9157 14.5022 14.9157 15.0992 15.2462 15.4674C15.5766 15.8356 16.1124 15.8356 16.4428 15.4674L19.8275 11.6959C20.1579 11.3277 20.1579 10.7308 19.8275 10.3625L16.4428 6.59111C16.1124 6.22291 15.5766 6.22291 15.2462 6.59111C14.9157 6.95932 14.9157 7.55631 15.2462 7.92452L17.1863 10.0864H6.60526L8.5454 7.92452C8.87584 7.55631 8.87584 6.95932 8.5454 6.59111C8.21496 6.22291 7.6792 6.22291 7.34876 6.59111L3.96414 10.3625Z" fill="#1C274C"/>
</svg>
