<svg width="23" height="23" viewBox="0 0 23 23" fill="none" xmlns="http://www.w3.org/2000/svg">
<path d="M19.9684 12.8092C20.568 12.7985 21.2642 12.7985 22.0898 12.7985V11.6985C22.0898 6.51304 22.0898 3.92031 20.4789 2.3094C18.868 0.698486 16.2753 0.698486 11.0898 0.698486C5.90439 0.698486 3.31167 0.698486 1.70076 2.3094C0.0898438 3.92031 0.0898438 6.51304 0.0898438 11.6985C0.0898438 16.8839 0.0898438 19.4767 1.70076 21.0876C3.31167 22.6985 5.90439 22.6985 11.0898 22.6985H12.1898C12.1898 21.8728 12.1898 21.1766 12.2005 20.5771C12.222 19.3736 12.2864 18.5594 12.4803 17.8687L12.4832 17.8584C12.4977 17.8072 12.5129 17.7566 12.5289 17.7067L12.5359 17.6847C12.7768 16.9435 13.1348 16.2574 13.5885 15.6478C13.629 15.5935 13.6702 15.5397 13.7122 15.4866C14.5667 14.405 15.7306 13.5818 17.0761 13.1446C17.8072 12.907 18.6565 12.8325 19.9684 12.8092Z" fill="#1C274C"/>
<path opacity="0.5" d="M14.2571 22.4824L14.2522 22.4834L14.185 22.4974L14.1829 22.4978C13.5391 22.6294 12.8725 22.6985 12.1898 22.6985H11.0898L11.4682 22.3206C11.9312 21.8582 12.1889 21.2313 12.2005 20.5771C12.2239 19.2652 12.2984 18.4159 12.5359 17.6848C13.2354 15.532 14.9233 13.8441 17.0761 13.1446C17.8072 12.9071 18.6565 12.8326 19.9684 12.8092C20.6226 12.7976 21.2495 12.5401 21.7121 12.0774L22.0898 11.6997V12.7985C22.0898 13.5267 22.0112 14.2366 21.862 14.92C21.04 18.6847 18.076 21.6487 14.3113 22.4707L14.2571 22.4824Z" fill="white"/>
<path d="M14.3899 11.6984C14.9975 11.6984 15.4899 10.9597 15.4899 10.0484C15.4899 9.13717 14.9975 8.39844 14.3899 8.39844C13.7824 8.39844 13.2899 9.13717 13.2899 10.0484C13.2899 10.9597 13.7824 11.6984 14.3899 11.6984Z" fill="white"/>
<path d="M7.78994 11.6984C8.39745 11.6984 8.88994 10.9597 8.88994 10.0484C8.88994 9.13717 8.39745 8.39844 7.78994 8.39844C7.18243 8.39844 6.68994 9.13717 6.68994 10.0484C6.68994 10.9597 7.18243 11.6984 7.78994 11.6984Z" fill="white"/>
<path d="M12.536 17.6847C12.7769 16.9435 13.1349 16.2574 13.5886 15.6478C12.8531 16.1107 11.9996 16.3735 11.09 16.3735C10.0495 16.3735 9.08244 16.0296 8.28127 15.4357C7.91523 15.1644 7.39854 15.2412 7.12722 15.6072C6.85589 15.9733 6.93268 16.4899 7.29872 16.7613C8.36837 17.5541 9.67652 18.0235 11.09 18.0235C11.5672 18.0235 12.0324 17.97 12.4804 17.8686L12.4833 17.8584C12.4978 17.8071 12.513 17.7566 12.529 17.7066L12.536 17.6847Z" fill="white"/>
</svg>
