<svg width="36" height="36" viewBox="0 0 36 36" fill="none" xmlns="http://www.w3.org/2000/svg">
<rect opacity="0.5" x="0.939941" y="0.888184" width="35" height="35" rx="17.5" fill="white"/>
<path opacity="0.5" d="M10.2963 21.464C9.50308 20.4334 9.10645 19.9181 9.10645 18.3881C9.10645 16.858 9.50308 16.3427 10.2963 15.3121C11.8803 13.2543 14.5367 10.9214 18.4398 10.9214C22.3429 10.9214 24.9993 13.2543 26.5832 15.3121C27.3765 16.3427 27.7731 16.858 27.7731 18.3881C27.7731 19.9181 27.3765 20.4334 26.5832 21.464C24.9993 23.5218 22.3429 25.8547 18.4398 25.8547C14.5367 25.8547 11.8803 23.5218 10.2963 21.464Z" stroke="#1C274C" stroke-width="1.5"/>
<path d="M21.2401 18.3879C21.2401 19.9343 19.9865 21.1879 18.4401 21.1879C16.8937 21.1879 15.6401 19.9343 15.6401 18.3879C15.6401 16.8415 16.8937 15.5879 18.4401 15.5879C19.9865 15.5879 21.2401 16.8415 21.2401 18.3879Z" stroke="#1C274C" stroke-width="1.5"/>
</svg>
