<svg xmlns="http://www.w3.org/2000/svg" viewBox="0 0 170.47 170.47"><defs><style>.cls-1{fill:#ffd05d;}.cls-2{fill:#fdc453;}.cls-3{fill:#ffd77f;}.cls-4{fill:#303030;}.cls-5{fill:#5e4939;}.cls-6{fill:#f1f2f2;}.cls-7{fill:#e6e7e8;}.cls-8{fill:#fff;}.cls-9{fill:#f9f9f9;}.cls-10{fill:#414042;}</style></defs><g id="Layer_2" data-name="Layer 2"><g id="Object"><circle class="cls-1" cx="85.24" cy="85.24" r="85.24" transform="translate(-35.31 85.24) rotate(-45)"/><path class="cls-2" d="M129.83,12.49A85.25,85.25,0,0,1,13.41,131.05,85.24,85.24,0,1,0,129.83,12.49Z"/><path class="cls-3" d="M11.58,94.23A79.13,79.13,0,0,1,153.45,46,79.14,79.14,0,1,0,22.1,133.67,78.75,78.75,0,0,1,11.58,94.23Z"/><path class="cls-4" d="M60.11,79.42C60.11,85.27,57.3,90,53.83,90s-6.28-4.74-6.28-10.59,2.82-10.59,6.28-10.59S60.11,73.57,60.11,79.42Z"/><path class="cls-4" d="M122.92,79.42c0,5.85-2.81,10.59-6.28,10.59s-6.28-4.74-6.28-10.59,2.81-10.59,6.28-10.59S122.92,73.57,122.92,79.42Z"/><path class="cls-5" d="M57.52,117.92a34.31,34.31,0,0,1,16.1-8.57A43.64,43.64,0,0,1,92,109a46.15,46.15,0,0,1,16.88,7,40,40,0,0,1,12.4,13,2,2,0,0,1-1.74,3,2.09,2.09,0,0,1-.88-.2l-1.87-.93c-4.39-2.17-8.54-4.22-12.74-5.86a79.67,79.67,0,0,0-14.33-4.26A70,70,0,0,0,75,119.53a92,92,0,0,0-15.68,1.78,2,2,0,0,1-1.77-3.39Z"/><path class="cls-6" d="M168,63.15a85.71,85.71,0,0,0-17.75-33.61L26.15,23A85.94,85.94,0,0,0,5,54.61Z"/><polygon class="cls-7" points="33.09 56.01 126.65 28.31 48.52 56.89 33.09 56.01"/><path class="cls-8" d="M23.27,25.89A85.66,85.66,0,0,0,1.67,65.31L144.12,23.13A85.6,85.6,0,0,0,104.59,1.82Z"/><path class="cls-9" d="M19.23,30.38,122.05,7.92a84.76,84.76,0,0,0-17.46-6.1L23.27,25.89C21.88,27.35,20.52,28.84,19.23,30.38Z"/><path class="cls-10" d="M33.37,63.45l2.68-.77c1.91-.53,3.72-1,5.47-1.64A49.52,49.52,0,0,0,48.7,58a41.72,41.72,0,0,0,6.49-4.21,63.27,63.27,0,0,0,6.18-5.66.37.37,0,0,1,.41-.08.39.39,0,0,1,.23.36,16.36,16.36,0,0,1-3.33,8.7,21.24,21.24,0,0,1-7.22,6.13,22.53,22.53,0,0,1-8.71,2.51l-.35,0a18.88,18.88,0,0,1-9.09-1.61.39.39,0,0,1-.21-.37A.38.38,0,0,1,33.37,63.45Z"/></g></g></svg>