<svg xmlns="http://www.w3.org/2000/svg" viewBox="0 0 170.47 188.43"><defs><style>.cls-1{fill:#ffd05d;}.cls-2{fill:#fdc453;}.cls-3{fill:#ffd77f;}.cls-4{fill:#5e4939;}.cls-5{fill:#303030;}.cls-6{fill:#7cc4e8;}.cls-7{fill:#6ebcdb;}</style></defs><g id="Layer_2" data-name="Layer 2"><g id="Object"><circle class="cls-1" cx="85.24" cy="103.19" r="85.24" transform="translate(-30.58 170.29) rotate(-80.53)"/><path class="cls-2" d="M129.83,30.45A85.25,85.25,0,0,1,13.41,149,85.24,85.24,0,1,0,129.83,30.45Z"/><path class="cls-3" d="M11.58,112.19A79.13,79.13,0,0,1,153.45,64,79.14,79.14,0,1,0,22.1,151.63,78.75,78.75,0,0,1,11.58,112.19Z"/><path class="cls-4" d="M50.3,116.09a2.82,2.82,0,0,0-4.58,3.07,42.72,42.72,0,0,0,79,.78,2.81,2.81,0,0,0-4.54-3.1C107.72,128.94,81.24,146.14,50.3,116.09Z"/><path class="cls-5" d="M63.23,91A15.79,15.79,0,0,0,34,90.69a2.54,2.54,0,0,0,4.1,2.81c4.73-4.59,12.21-8.27,21,.25A2.54,2.54,0,0,0,63.23,91Z"/><path class="cls-5" d="M136.46,91a15.79,15.79,0,0,0-29.2-.29,2.54,2.54,0,0,0,4.1,2.81c4.73-4.59,12.21-8.27,21,.25A2.54,2.54,0,0,0,136.46,91Z"/><path class="cls-6" d="M139.62,14.48a18.33,18.33,0,0,0-6-5.92,48.46,48.46,0,0,0-14.25-5.79A104.82,104.82,0,0,0,89.84.14a1.76,1.76,0,0,0-.15,3.5c11.23,1.45,19.81,3.36,27,6a38.24,38.24,0,0,1,10.78,5.52,15.46,15.46,0,0,1,1.73,1.64,6.85,6.85,0,0,1,1,1.5,2.66,2.66,0,0,1,.05,2.35c-.73,1.72-3.43,3.74-7.2,5.42A63.16,63.16,0,0,1,111,29.81a111.44,111.44,0,0,1-13.27,2c-4.28.42-8.74.63-13.63.63a134.06,134.06,0,0,1-13.65-.64,112.62,112.62,0,0,1-13.24-2A62.49,62.49,0,0,1,45.19,26c-3.77-1.68-6.43-3.71-7.14-5.44a2.66,2.66,0,0,1,.09-2.3A10,10,0,0,1,41,15.1,38.8,38.8,0,0,1,51.8,9.59C59,7,67.63,5.07,78.83,3.64A1.76,1.76,0,0,0,78.69.13,105.1,105.1,0,0,0,49.15,2.75,48.88,48.88,0,0,0,34.91,8.49a18.66,18.66,0,0,0-6.06,5.87,11.52,11.52,0,0,0-1.58,4.31,10.24,10.24,0,0,0,.39,4.74,15.94,15.94,0,0,0,5,7.16A34.26,34.26,0,0,0,39.45,35,69.13,69.13,0,0,0,54,40.14a128.19,128.19,0,0,0,30.14,3.4,128.57,128.57,0,0,0,30.14-3.36A69.16,69.16,0,0,0,128.81,35a34.79,34.79,0,0,0,6.78-4.37,19.43,19.43,0,0,0,2.93-3.07,12.78,12.78,0,0,0,2.14-3.95A10.83,10.83,0,0,0,139.62,14.48Z"/><path class="cls-7" d="M135.59,30.66a19.43,19.43,0,0,0,2.93-3.07,12.78,12.78,0,0,0,2.14-3.95,10.51,10.51,0,0,0,0-6.83c-5.24,21.3-49.84,25.69-63.62,26.54,2.3.11,4.65.18,7.07.19a128.57,128.57,0,0,0,30.14-3.36A69.16,69.16,0,0,0,128.81,35,34.79,34.79,0,0,0,135.59,30.66Z"/></g></g></svg>