<svg xmlns="http://www.w3.org/2000/svg" viewBox="0 0 180.27 170.47"><defs><style>.cls-1{fill:#ffd05d;}.cls-2{fill:#fdc453;}.cls-3{fill:#ffd77f;}.cls-4{fill:#303030;}.cls-5{fill:#ee5181;}.cls-6{fill:#5e4939;}</style></defs><g id="Layer_2" data-name="Layer 2"><g id="Object"><circle class="cls-1" cx="95.04" cy="85.24" r="85.24" transform="translate(-32.44 92.17) rotate(-45)"/><path class="cls-2" d="M139.63,12.49A85.25,85.25,0,0,1,23.21,131.05,85.24,85.24,0,1,0,139.63,12.49Z"/><path class="cls-3" d="M21.38,94.23A79.13,79.13,0,0,1,163.25,46,79.14,79.14,0,1,0,31.9,133.67,78.75,78.75,0,0,1,21.38,94.23Z"/><path class="cls-4" d="M73,67.4a15.79,15.79,0,0,0-29.2-.29,2.54,2.54,0,0,0,4.1,2.81c4.73-4.59,12.21-8.27,21,.25A2.54,2.54,0,0,0,73,67.4Z"/><path class="cls-4" d="M146.26,67.4a15.79,15.79,0,0,0-29.2-.29,2.54,2.54,0,0,0,4.1,2.81c4.73-4.59,12.21-8.27,21,.25a2.55,2.55,0,0,0,1.78.72,2.54,2.54,0,0,0,2.35-3.49Z"/><path class="cls-5" d="M56.93,101.3v-.13c0-8.51-6.15-16.29-15.4-16.29-7.35,0-11.61,5.28-13.06,10.22h0C27,90.16,22.75,84.88,15.4,84.88,6.15,84.88,0,92.66,0,101.17v.13c0,1.86,0,20.69,28.46,36h0C56.93,122,57,103.16,56.93,101.3Z"/><path class="cls-6" d="M95,132.64A14,14,0,0,1,84.32,109.5,13.91,13.91,0,0,1,81,100.42a14.05,14.05,0,0,1,25.77-7.76,2.41,2.41,0,1,1-4,2.66,9.24,9.24,0,1,0-13.47,12.31,2.4,2.4,0,0,1,0,3.75,9.23,9.23,0,1,0,13.43,12.37,2.41,2.41,0,1,1,4,2.7A14.07,14.07,0,0,1,95,132.64Z"/></g></g></svg>