<svg xmlns="http://www.w3.org/2000/svg" viewBox="0 0 170.47 170.47"><defs><style>.cls-1{fill:#ffd05d;}.cls-2{fill:#fdc453;}.cls-3{fill:#ffd77f;}.cls-4{fill:#5e4939;}.cls-5{fill:#2d292a;}.cls-6{fill:#414042;}</style></defs><g id="Layer_2" data-name="Layer 2"><g id="Object"><circle class="cls-1" cx="85.24" cy="85.24" r="85.24" transform="translate(-35.31 85.24) rotate(-45)"/><path class="cls-2" d="M129.83,12.49A85.25,85.25,0,0,1,13.41,131.05,85.24,85.24,0,1,0,129.83,12.49Z"/><path class="cls-3" d="M11.58,94.23A79.13,79.13,0,0,1,153.45,46,79.14,79.14,0,1,0,22.1,133.67,78.75,78.75,0,0,1,11.58,94.23Z"/><path class="cls-4" d="M50.3,103.13a2.82,2.82,0,0,0-4.58,3.07,42.72,42.72,0,0,0,79,.78,2.81,2.81,0,0,0-4.54-3.1C107.72,116,81.24,133.19,50.3,103.13Z"/><path class="cls-5" d="M145.4,52.9l-34.62,2.87c-.4,0-.81,0-1.22.06S98.1,57.2,85.68,57.92a6.46,6.46,0,0,1-.88,0c-12.43-.72-23.58-2.05-23.9-2.09a12.1,12.1,0,0,0-1.21-.06L25.07,52.9c-6.8-.13-10.56,3.21-10.21,9.14,0,.23,2.45,13.7,2.45,13.7.79,4.62,1.65,8.42,4.48,12.6a15.93,15.93,0,0,0,6,5,16.75,16.75,0,0,0,3.75,1.39,19.64,19.64,0,0,0,3.47.31c1,.06,2.71.14,3.75.14H50a24,24,0,0,0,10.66-2.5c5.14-2.56,8.12-6.8,10.25-12,2-4.88,6-8.56,10.35-11.38a7.37,7.37,0,0,1,8.06,0,33.11,33.11,0,0,1,6.33,5.37,39.15,39.15,0,0,1,3.6,5.15c1.26,2,2.07,4.31,3.38,6.31a17.25,17.25,0,0,0,4.82,5.07A23.51,23.51,0,0,0,119,95.15c.5,0,1,0,1.51,0h11.19c1,0,2.71-.08,3.74-.14a19.64,19.64,0,0,0,3.47-.31,16.75,16.75,0,0,0,3.75-1.39,15.85,15.85,0,0,0,6-5c2.83-4.18,3.69-8,4.48-12.6,0,0,2.44-13.47,2.45-13.7C156,56.11,152.21,52.77,145.4,52.9Z"/><path class="cls-6" d="M120.52,95.2h11.19c1,0,2.71-.08,3.74-.14a19.64,19.64,0,0,0,3.47-.31,16.75,16.75,0,0,0,3.75-1.39,15.85,15.85,0,0,0,6-5c2.83-4.18,3.69-8,4.48-12.6,0,0,2.44-13.47,2.45-13.7a10.94,10.94,0,0,0-.1-2.32c-15.94,24.68-35.27,30.65-47.69,31.8A23.6,23.6,0,0,0,119,95.15C119.51,95.18,120,95.2,120.52,95.2Z"/><path class="cls-6" d="M27.8,93.36a16.75,16.75,0,0,0,3.75,1.39,19.64,19.64,0,0,0,3.47.31c1,.06,2.71.14,3.75.14H50a24,24,0,0,0,10.66-2.5c5.14-2.56,8.12-6.8,10.25-12a21.17,21.17,0,0,1,4.67-6.8C52.48,89.21,33.29,91.62,25.35,91.88A21,21,0,0,0,27.8,93.36Z"/></g></g></svg>