<svg xmlns="http://www.w3.org/2000/svg" viewBox="0 0 170.47 170.47"><defs><style>.cls-1{fill:#ffd05d;}.cls-2{fill:#fdc453;}.cls-3{fill:#ffd77f;}.cls-4{fill:#695342;}.cls-5{fill:#f06669;}.cls-6{fill:#7cc4e8;}.cls-7{fill:#303030;}</style></defs><g id="Layer_2" data-name="Layer 2"><g id="Object"><circle class="cls-1" cx="85.24" cy="85.24" r="85.24" transform="translate(-35.31 85.24) rotate(-45)"/><path class="cls-2" d="M129.67,12.39a85.25,85.25,0,0,1-71.54,131.3A84.71,84.71,0,0,1,13.51,131.2,85.24,85.24,0,1,0,129.67,12.39Z"/><path class="cls-3" d="M11.6,94.39A79.14,79.14,0,0,1,153.37,45.84a79.15,79.15,0,1,0-131.17,88A78.92,78.92,0,0,1,11.6,94.39Z"/><ellipse class="cls-4" cx="85.24" cy="105.55" rx="15.39" ry="26.09"/><path class="cls-5" d="M98.23,119.54c-11.23-6.17-20.37-2.67-25.66.83,2.78,6.81,7.41,11.28,12.67,11.28C90.7,131.65,95.5,126.82,98.23,119.54Z"/><path class="cls-6" d="M58.89,68.29,36.45,82.57l.56,73a85.32,85.32,0,0,0,21.88,10.8Z"/><path class="cls-6" d="M111.62,68.29l22.43,14.28-.55,73a85.48,85.48,0,0,1-21.88,10.8Z"/><path class="cls-7" d="M39.26,85.1A3.61,3.61,0,0,1,37,78.64l12.29-9.58L36.62,61.59a3.62,3.62,0,1,1,3.67-6.23L57.58,65.53a3.61,3.61,0,0,1,.39,6L41.48,84.34A3.56,3.56,0,0,1,39.26,85.1Z"/><path class="cls-7" d="M131.21,85.1a3.58,3.58,0,0,1-2.22-.76L112.51,71.49a3.6,3.6,0,0,1,.39-6l17.29-10.17a3.61,3.61,0,0,1,3.66,6.23l-12.71,7.47,12.3,9.58a3.61,3.61,0,0,1,.62,5.07A3.57,3.57,0,0,1,131.21,85.1Z"/></g></g></svg>