<svg xmlns="http://www.w3.org/2000/svg" viewBox="0 0 170.47 170.47"><defs><style>.cls-1{fill:#ffd05d;}.cls-2{fill:#fdc453;}.cls-3{fill:#ffd77f;}.cls-4{fill:#5e4939;}.cls-5{fill:#303030;}</style></defs><g id="Layer_2" data-name="Layer 2"><g id="Object"><circle class="cls-1" cx="85.24" cy="85.24" r="85.24" transform="translate(-35.31 85.24) rotate(-45)"/><path class="cls-2" d="M129.83,12.49A85.25,85.25,0,0,1,13.41,131.05,85.24,85.24,0,1,0,129.83,12.49Z"/><path class="cls-3" d="M11.58,94.23A79.13,79.13,0,0,1,153.45,46,79.14,79.14,0,1,0,22.1,133.67,78.75,78.75,0,0,1,11.58,94.23Z"/><path class="cls-4" d="M50.3,98.13a2.82,2.82,0,0,0-4.58,3.07,42.72,42.72,0,0,0,79,.78,2.81,2.81,0,0,0-4.54-3.1C107.72,111,81.24,128.19,50.3,98.13Z"/><path class="cls-5" d="M60.11,70c0,5.85-2.81,10.59-6.28,10.59S47.55,75.83,47.55,70,50.37,59.4,53.83,59.4,60.11,64.14,60.11,70Z"/><path class="cls-5" d="M122.92,70c0,5.85-2.81,10.59-6.28,10.59s-6.28-4.74-6.28-10.59,2.81-10.58,6.28-10.58S122.92,64.14,122.92,70Z"/></g></g></svg>