<svg xmlns="http://www.w3.org/2000/svg" viewBox="0 0 170.47 170.47"><defs><style>.cls-1{fill:#ffd05d;}.cls-2{fill:#fdc453;}.cls-3{fill:#ffd77f;}.cls-4{fill:#303030;}.cls-5{fill:#414042;}.cls-6{fill:#5e4939;}</style></defs><g id="Layer_2" data-name="Layer 2"><g id="Object"><circle class="cls-1" cx="85.24" cy="85.24" r="85.24" transform="translate(-35.31 85.24) rotate(-45)"/><path class="cls-2" d="M129.83,12.49A85.25,85.25,0,0,1,13.41,131.05,85.24,85.24,0,1,0,129.83,12.49Z"/><path class="cls-3" d="M11.58,94.23A79.13,79.13,0,0,1,153.45,46,79.14,79.14,0,1,0,22.1,133.67,78.75,78.75,0,0,1,11.58,94.23Z"/><path class="cls-4" d="M60.11,64.56c0,5.84-2.81,10.58-6.28,10.58s-6.28-4.74-6.28-10.58S50.37,54,53.83,54,60.11,58.71,60.11,64.56Z"/><path class="cls-4" d="M122.92,64.56c0,5.84-2.81,10.58-6.28,10.58s-6.28-4.74-6.28-10.58S113.17,54,116.64,54,122.92,58.71,122.92,64.56Z"/><path class="cls-5" d="M135.58,46.69c-.91-.27-1.81-.52-2.68-.76-1.91-.54-3.72-1-5.47-1.65a48.42,48.42,0,0,1-7.18-3.05A42.52,42.52,0,0,1,113.76,37a64.44,64.44,0,0,1-6.18-5.66.37.37,0,0,0-.41-.08.38.38,0,0,0-.22.36,16.2,16.2,0,0,0,3.33,8.7,21.11,21.11,0,0,0,7.21,6.13A22.36,22.36,0,0,0,126.2,49l.35,0a18.74,18.74,0,0,0,9.09-1.61.38.38,0,0,0,.21-.37A.36.36,0,0,0,135.58,46.69Z"/><path class="cls-5" d="M34.89,46.69l2.68-.76c1.91-.54,3.72-1,5.47-1.65a48.42,48.42,0,0,0,7.18-3.05A42.52,42.52,0,0,0,56.71,37a63.27,63.27,0,0,0,6.18-5.66.37.37,0,0,1,.41-.08.41.41,0,0,1,.23.36,16.36,16.36,0,0,1-3.33,8.7A21.24,21.24,0,0,1,53,46.46,22.36,22.36,0,0,1,44.27,49l-.35,0a18.76,18.76,0,0,1-9.09-1.61.39.39,0,0,1-.21-.37A.38.38,0,0,1,34.89,46.69Z"/><path class="cls-6" d="M53,121.92c-.9.1-1.41-1-1.4-1.83a25.85,25.85,0,0,1,3-11.5,32.08,32.08,0,0,1,7.67-9.49,36.5,36.5,0,0,1,22.94-8.32,34.73,34.73,0,0,1,23.1,8.27c6.47,5.53,10.41,13.39,10.53,21,0,.87-.57,2-1.55,1.82-.8-.14-1.45-1.23-2-1.72-.91-.76-1.85-1.47-2.82-2.16a57.2,57.2,0,0,0-6-3.69,45.28,45.28,0,0,0-25.11-5.54,43.22,43.22,0,0,0-15.89,4.68A55.52,55.52,0,0,0,57,118.83c-1,.77-2.66,2.84-3.89,3.07Z"/></g></g></svg>