<svg xmlns="http://www.w3.org/2000/svg" viewBox="0 0 183.57 170.47"><defs><style>.cls-1{fill:#ffd05d;}.cls-2{fill:#fdc453;}.cls-3{fill:#ffd77f;}.cls-4{fill:#5e4939;}.cls-5{fill:#303030;}.cls-6{fill:#fff;}.cls-7{fill:#f1f2f2;}</style></defs><g id="Layer_2" data-name="Layer 2"><g id="Object"><circle class="cls-1" cx="85.24" cy="85.24" r="85.24" transform="translate(-35.31 85.24) rotate(-45)"/><path class="cls-2" d="M129.83,12.49A85.25,85.25,0,0,1,13.41,131.05,85.24,85.24,0,1,0,129.83,12.49Z"/><path class="cls-3" d="M11.58,94.23A79.13,79.13,0,0,1,153.45,46,79.14,79.14,0,1,0,22.1,133.67,78.75,78.75,0,0,1,11.58,94.23Z"/><path class="cls-4" d="M117.47,96.08c.89-.1,1.4,1,1.39,1.83a26,26,0,0,1-3,11.5,32.25,32.25,0,0,1-7.68,9.49,36.46,36.46,0,0,1-22.94,8.32A34.73,34.73,0,0,1,62.14,119c-6.46-5.54-10.4-13.4-10.53-21,0-.87.58-2,1.55-1.82.8.14,1.45,1.23,2,1.72.91.76,1.85,1.47,2.82,2.15a58.08,58.08,0,0,0,6,3.7,45.31,45.31,0,0,0,25.1,5.54,43.22,43.22,0,0,0,15.89-4.68,55.86,55.86,0,0,0,8.44-5.38c1-.77,2.66-2.83,3.9-3.07Z"/><path class="cls-5" d="M59.11,70c0,5.85-2.81,10.59-6.28,10.59S46.55,75.83,46.55,70,49.37,59.4,52.83,59.4,59.11,64.14,59.11,70Z"/><path class="cls-5" d="M129.12,73.5a15.79,15.79,0,0,0-29.21-.29A2.54,2.54,0,0,0,104,76c4.72-4.58,12.2-8.26,21,.25a2.54,2.54,0,0,0,4.13-2.76Z"/><path class="cls-6" d="M153.45,7c-6.26,30.44-30.12,37.6-30.12,37.6s23.86,7.16,30.12,37.6c6.27-30.44,30.12-37.6,30.12-37.6S159.72,37.4,153.45,7Z"/><path class="cls-7" d="M153.45,7c-6.26,30.44-30.12,37.6-30.12,37.6S155.35,49.25,153.45,7Z"/></g></g></svg>