<svg xmlns="http://www.w3.org/2000/svg" viewBox="0 0 170.47 170.47"><defs><style>.cls-1{fill:#ffd05d;}.cls-2{fill:#fdc453;}.cls-3{fill:#ffd77f;}.cls-4{fill:#303030;}.cls-5{fill:#695342;}.cls-6{fill:#f06669;}.cls-7{fill:#c64f58;}.cls-8{fill:#e05f65;}</style></defs><g id="Layer_2" data-name="Layer 2"><g id="Object"><circle class="cls-1" cx="85.24" cy="85.24" r="85.24" transform="translate(-35.31 85.24) rotate(-45)"/><path class="cls-2" d="M129.83,12.49A85.25,85.25,0,0,1,13.41,131.05,85.24,85.24,0,1,0,129.83,12.49Z"/><path class="cls-3" d="M11.58,94.23A79.13,79.13,0,0,1,153.45,46,79.14,79.14,0,1,0,22.1,133.67,78.75,78.75,0,0,1,11.58,94.23Z"/><path class="cls-4" d="M39.26,86.61A3.61,3.61,0,0,1,37,80.15l12.29-9.58L36.62,63.1a3.62,3.62,0,1,1,3.67-6.23L57.58,67A3.61,3.61,0,0,1,58,73L41.48,85.85A3.62,3.62,0,0,1,39.26,86.61Z"/><path class="cls-4" d="M131.21,86.61a3.64,3.64,0,0,1-2.22-.76L112.51,73a3.6,3.6,0,0,1,.39-6l17.29-10.17a3.61,3.61,0,0,1,3.66,6.23l-12.71,7.47,12.3,9.58a3.61,3.61,0,0,1-2.23,6.46Z"/><path class="cls-5" d="M42.64,98.31c2.42,16.51,20.56,29.33,42.6,29.33s40.17-12.82,42.59-29.33Z"/><path class="cls-6" d="M59.82,98.31v33.25a25.42,25.42,0,0,0,50.84,0V98.31Z"/><path class="cls-7" d="M85.24,136.19h0A2.28,2.28,0,0,1,83,133.92V98.31h4.55v35.61A2.27,2.27,0,0,1,85.24,136.19Z"/><path class="cls-8" d="M85.24,157a25.49,25.49,0,0,0,25.4-24.91c-16.22,15.78-33.46,17.79-43.51,17.28A25.35,25.35,0,0,0,85.24,157Z"/></g></g></svg>