<svg xmlns="http://www.w3.org/2000/svg" viewBox="0 0 200.38 170.47"><defs><style>.cls-1{fill:#ffd05d;}.cls-2{fill:#fdc453;}.cls-3{fill:#ffd77f;}.cls-4{fill:#303030;}.cls-5{fill:#7cc4e8;}.cls-6{fill:#62bbe8;}.cls-7{fill:#695342;}.cls-8{fill:#f06669;}</style></defs><g id="Layer_2" data-name="Layer 2"><g id="Object"><circle class="cls-1" cx="100.19" cy="85.24" r="85.24" transform="translate(0 170.48) rotate(-80.78)"/><path class="cls-2" d="M144.78,12.49A85.25,85.25,0,0,1,28.36,131.05,85.24,85.24,0,1,0,144.78,12.49Z"/><path class="cls-3" d="M26.54,94.23A79.13,79.13,0,0,1,168.4,46,79.14,79.14,0,1,0,37.05,133.67,78.75,78.75,0,0,1,26.54,94.23Z"/><path class="cls-4" d="M54.21,86.61A3.61,3.61,0,0,1,52,80.15l12.29-9.58L51.57,63.1a3.62,3.62,0,1,1,3.67-6.23L72.53,67a3.61,3.61,0,0,1,.39,6L56.43,85.85A3.62,3.62,0,0,1,54.21,86.61Z"/><path class="cls-4" d="M146.16,86.61a3.61,3.61,0,0,1-2.21-.76L127.46,73a3.6,3.6,0,0,1,.39-6l17.29-10.17a3.61,3.61,0,0,1,3.66,6.23l-12.71,7.47,12.3,9.58a3.61,3.61,0,0,1-2.23,6.46Z"/><path class="cls-5" d="M154.05,82.76c-6.31,37.84,4.78,50.45,4.78,50.45A22.44,22.44,0,1,0,197,109.62S190.71,94.06,154.05,82.76Z"/><path class="cls-6" d="M171.62,143A22.44,22.44,0,0,0,197,109.62s-2.66-6.54-14.51-14.21C194,122.51,181.23,136.62,171.62,143Z"/><path class="cls-5" d="M45.41,82.21C9,94.38,3.08,110.08,3.08,110.08a22.45,22.45,0,1,0,38.74,22.69S52.61,119.89,45.41,82.21Z"/><path class="cls-6" d="M.47,126a22.44,22.44,0,0,0,41.35,6.82s4.53-5.42,5.76-19.49C29,136.13,10.57,131.47.47,126Z"/><path class="cls-7" d="M51.36,96.53a49.15,49.15,0,0,0,97.66,0Z"/><path class="cls-8" d="M66.46,126.69a49.1,49.1,0,0,0,66.3,1.06l-.45-1.06C99.52,110.7,66.9,126.47,66.46,126.69Z"/></g></g></svg>