<svg xmlns="http://www.w3.org/2000/svg" viewBox="0 0 170.47 170.47"><defs><style>.cls-1{fill:#84b840;}.cls-2{fill:#73aa43;}.cls-3{fill:#93c23d;}.cls-4{fill:#5e4939;}.cls-5{fill:#303030;}</style></defs><g id="Layer_2" data-name="Layer 2"><g id="Object"><circle class="cls-1" cx="85.24" cy="85.24" r="85.24" transform="translate(-35.31 85.24) rotate(-45)"/><path class="cls-2" d="M129.83,12.49A85.25,85.25,0,0,1,13.41,131.05,85.24,85.24,0,1,0,129.83,12.49Z"/><path class="cls-3" d="M11.58,94.23A79.13,79.13,0,0,1,153.45,46,79.14,79.14,0,1,0,22.1,133.67,78.75,78.75,0,0,1,11.58,94.23Z"/><path class="cls-4" d="M138,111c-2.26-7.36-7.77-12.12-14-12.12a12.62,12.62,0,0,0-6.79,2,17.67,17.67,0,0,0-3.87,3.75c-.56.66-1.08,1.28-1.64,1.85a11.73,11.73,0,0,1-4.15,2.65A9.43,9.43,0,0,1,97,105.77c-3-4.36-7.33-6.86-11.76-6.86A13,13,0,0,0,76,103.07a20.77,20.77,0,0,0-1.75,2,19,19,0,0,1-1.41,1.67,11.5,11.5,0,0,1-3.39,2.11,8.45,8.45,0,0,1-4.9.78,11,11,0,0,1-5.88-3.15c-.51-.53-1-1.11-1.55-1.73a19.21,19.21,0,0,0-4.07-3.89,12.64,12.64,0,0,0-6.71-2c-6.12,0-11.58,4.62-13.91,11.78a2.89,2.89,0,0,0,1.26,3.42,2.31,2.31,0,0,0,3-.66c2.93-3.69,7.79-7,12.66-5.34,2.39.83,4.37,3,6,5a14,14,0,0,0,8.7,5.12,11.59,11.59,0,0,0,1.66.12,13.77,13.77,0,0,0,10.64-5.58l.51-.66a10,10,0,0,1,7.21-4.55,8.38,8.38,0,0,1,4.81.88A14,14,0,0,1,91.3,110a18.07,18.07,0,0,1,2.39,2.51,21.16,21.16,0,0,0,2.79,2.9,12.34,12.34,0,0,0,16.88-.77c.39-.37,1.07-1.08,1.86-1.91,1-1.08,2.94-3.08,3.41-3.4a9,9,0,0,1,11,.28,22,22,0,0,1,4.16,4.15,2.31,2.31,0,0,0,2.95.67A2.85,2.85,0,0,0,138,111Z"/><rect class="cls-5" x="41.29" y="50.63" width="7.8" height="35.14" transform="translate(-34.99 51.93) rotate(-45)"/><rect class="cls-5" x="41.29" y="50.63" width="7.8" height="35.14" transform="translate(61.46 -11.98) rotate(45)"/><rect class="cls-5" x="121.38" y="50.63" width="7.8" height="35.14" transform="translate(-11.53 108.56) rotate(-45)"/><rect class="cls-5" x="121.38" y="50.63" width="7.8" height="35.14" transform="translate(84.92 -68.61) rotate(45)"/></g></g></svg>