<svg xmlns="http://www.w3.org/2000/svg" viewBox="0 0 170.47 170.47"><defs><style>.cls-1{fill:#f16d24;}.cls-2{fill:#ef6421;}.cls-3{fill:#f2824e;}.cls-4{fill:#303030;}.cls-5{fill:#5e4939;}</style></defs><g id="Layer_2" data-name="Layer 2"><g id="Object"><circle class="cls-1" cx="85.24" cy="85.24" r="85.24" transform="translate(-35.31 85.24) rotate(-45)"/><path class="cls-2" d="M129.83,12.49A85.25,85.25,0,0,1,13.41,131.05,85.24,85.24,0,1,0,129.83,12.49Z"/><path class="cls-3" d="M11.58,94.23A79.13,79.13,0,0,1,153.45,46,79.14,79.14,0,1,0,22.1,133.67,78.75,78.75,0,0,1,11.58,94.23Z"/><ellipse class="cls-4" cx="53.83" cy="69.37" rx="6.28" ry="10.59"/><path class="cls-4" d="M122.92,69.37c0,5.85-2.81,10.59-6.28,10.59s-6.28-4.74-6.28-10.59,2.81-10.58,6.28-10.58S122.92,63.53,122.92,69.37Z"/><path class="cls-5" d="M120.17,123.12a2.82,2.82,0,0,0,4.58-3.07,42.72,42.72,0,0,0-79-.78,2.81,2.81,0,0,0,4.54,3.1C62.75,110.27,89.23,93.06,120.17,123.12Z"/><rect class="cls-4" x="55.1" y="34.48" width="8.08" height="26.97" transform="translate(-16.59 55.87) rotate(-45)"/><rect class="cls-4" x="107.29" y="34.48" width="8.08" height="26.97" transform="translate(66.52 -64.67) rotate(45)"/></g></g></svg>