<svg xmlns="http://www.w3.org/2000/svg" viewBox="0 0 170.47 170.47"><defs><style>.cls-1{fill:#ffd05d;}.cls-2{fill:#fdc453;}.cls-3{fill:#ffd77f;}.cls-4{fill:#303030;}.cls-5{fill:#695342;}.cls-6{fill:#f06669;}</style></defs><g id="Layer_2" data-name="Layer 2"><g id="Object"><circle class="cls-1" cx="85.24" cy="85.24" r="85.24" transform="translate(-35.31 85.24) rotate(-45)"/><path class="cls-2" d="M129.83,12.49A85.25,85.25,0,0,1,13.41,131.05,85.24,85.24,0,1,0,129.83,12.49Z"/><path class="cls-3" d="M11.58,94.23A79.13,79.13,0,0,1,153.45,46,79.14,79.14,0,1,0,22.1,133.67,78.75,78.75,0,0,1,11.58,94.23Z"/><ellipse class="cls-4" cx="53.83" cy="69.37" rx="6.28" ry="10.59"/><ellipse class="cls-4" cx="116.64" cy="69.37" rx="6.28" ry="10.59"/><rect class="cls-4" x="55.1" y="34.48" width="8.08" height="26.97" transform="translate(-16.59 55.87) rotate(-45)"/><rect class="cls-4" x="107.29" y="34.48" width="8.08" height="26.97" transform="translate(66.52 -64.67) rotate(45)"/><path class="cls-5" d="M116.64,124.24c-1.82-18.82-15.23-33.43-31.48-33.39s-29.59,14.69-31.33,33.53Z"/><path class="cls-6" d="M53.83,124.38s26.44-26.53,62.81-.14Z"/></g></g></svg>