<svg xmlns="http://www.w3.org/2000/svg" viewBox="0 0 170.47 170.47"><defs><style>.cls-1{fill:#4a85d3;}.cls-2{fill:#407ec1;}.cls-3{fill:#5b9add;}.cls-4{fill:#fff;}</style></defs><g id="Layer_2" data-name="Layer 2"><g id="Object"><circle class="cls-1" cx="85.24" cy="85.24" r="85.24" transform="translate(-35.31 85.24) rotate(-45)"/><path class="cls-2" d="M129.83,12.49A85.25,85.25,0,0,1,13.41,131.05,85.24,85.24,0,1,0,129.83,12.49Z"/><path class="cls-3" d="M11.58,94.23A79.13,79.13,0,0,1,153.45,46,79.14,79.14,0,1,0,22.1,133.67,78.75,78.75,0,0,1,11.58,94.23Z"/><path class="cls-4" d="M134.35,65.09H104.76a1.15,1.15,0,0,1-1.12-1.44c1.21-4.27,1.31-8.9,1.31-13.28a76.61,76.61,0,0,0-.15-7.81,14.11,14.11,0,0,0-2.52-7.33,9.5,9.5,0,0,0-7.29-4c-6.76,0-7.83,6.62-8.46,12-.74,6.26-1,12.73-3.79,18.5-1.94,4-4.69,7.51-9,9.21a48.2,48.2,0,0,1-9.24,3,1.14,1.14,0,0,0-.93,1.12v43.75A1.15,1.15,0,0,0,64.72,120h12.1a1.17,1.17,0,0,1,.93.47,13.08,13.08,0,0,0,10.5,5.28h37.93a10.1,10.1,0,0,0,10.07-10.06h0a8.77,8.77,0,0,0-1-4,1.12,1.12,0,0,1,.3-1.39c2-1.64,3.38-5.37,3.38-8.18V101a8.83,8.83,0,0,0-1-4,1.14,1.14,0,0,1,.3-1.39,8.85,8.85,0,0,0,3.38-7V87.49a8.79,8.79,0,0,0-.95-4,1.13,1.13,0,0,1,.3-1.39,8.89,8.89,0,0,0,3.37-7h0A10.08,10.08,0,0,0,134.35,65.09Z"/><rect class="cls-4" x="34.06" y="69.04" width="23.35" height="55.44" rx="2.74"/></g></g></svg>