<svg xmlns="http://www.w3.org/2000/svg" viewBox="0 0 170.47 170.47"><defs><style>.cls-1{fill:#ffd05d;}.cls-2{fill:#fdc453;}.cls-3{fill:#ffd77f;}.cls-4{fill:#303030;}.cls-5{fill:#695342;}.cls-6{fill:#f06669;}</style></defs><g id="Layer_2" data-name="Layer 2"><g id="Object"><circle class="cls-1" cx="85.24" cy="85.24" r="85.24" transform="translate(-35.31 85.24) rotate(-45)"/><path class="cls-2" d="M129.83,12.49A85.25,85.25,0,0,1,13.41,131.05,85.24,85.24,0,1,0,129.83,12.49Z"/><path class="cls-3" d="M11.58,94.23A79.13,79.13,0,0,1,153.45,46,79.14,79.14,0,1,0,22.1,133.67,78.75,78.75,0,0,1,11.58,94.23Z"/><path class="cls-4" d="M60.11,64.56c0,5.84-2.81,10.58-6.28,10.58s-6.28-4.74-6.28-10.58S50.37,54,53.83,54,60.11,58.71,60.11,64.56Z"/><path class="cls-4" d="M122.92,64.56c0,5.84-2.81,10.58-6.28,10.58s-6.28-4.74-6.28-10.58S113.17,54,116.64,54,122.92,58.71,122.92,64.56Z"/><path class="cls-5" d="M28,93.3a57.65,57.65,0,0,0,114.55,0Z"/><path class="cls-6" d="M45.67,128.67a57.59,57.59,0,0,0,77.78,1.25l-.53-1.24C84.46,109.93,46.2,128.42,45.67,128.67Z"/></g></g></svg>