<svg xmlns="http://www.w3.org/2000/svg" viewBox="0 0 170.47 170.47"><defs><style>.cls-1{fill:#f94343;}.cls-2{fill:#e53939;}.cls-3{fill:#f76363;}.cls-4{fill:#fff;}</style></defs><g id="Layer_2" data-name="Layer 2"><g id="Object"><circle class="cls-1" cx="85.24" cy="85.24" r="85.24" transform="translate(-12.55 155.72) rotate(-80.78)"/><path class="cls-2" d="M129.83,12.49A85.25,85.25,0,0,1,13.41,131.05,85.24,85.24,0,1,0,129.83,12.49Z"/><path class="cls-3" d="M11.58,94.23A79.13,79.13,0,0,1,153.45,46,79.14,79.14,0,1,0,22.1,133.67,78.75,78.75,0,0,1,11.58,94.23Z"/><path class="cls-4" d="M135.39,75.31c0-.08,0-.15,0-.23,0-15-10.84-28.72-27.14-28.72-13,0-20.46,9.31-23,18h0c-2.57-8.72-10.08-18-23-18-16.3,0-27.14,13.73-27.14,28.72,0,.08,0,.15,0,.23-.09,3.27,0,36.45,50.14,63.49h0C135.4,111.76,135.48,78.58,135.39,75.31Z"/></g></g></svg>