<svg xmlns="http://www.w3.org/2000/svg" viewBox="0 0 170.47 170.47"><defs><style>.cls-1{fill:#ffd05d;}.cls-2{fill:#fdc453;}.cls-3{fill:#ffd77f;}.cls-4{fill:#695342;}.cls-5{fill:#f06669;}.cls-6{fill:#e62728;}</style></defs><g id="Layer_2" data-name="Layer 2"><g id="Object"><circle class="cls-1" cx="85.24" cy="85.24" r="85.24" transform="translate(-35.31 85.24) rotate(-45)"/><path class="cls-2" d="M129.83,12.49A85.25,85.25,0,0,1,13.41,131.05,85.24,85.24,0,1,0,129.83,12.49Z"/><path class="cls-3" d="M11.58,94.23A79.13,79.13,0,0,1,153.45,46,79.14,79.14,0,1,0,22.1,133.67,78.75,78.75,0,0,1,11.58,94.23Z"/><path class="cls-4" d="M49,102.68a36.46,36.46,0,0,0,72.45,0Z"/><path class="cls-5" d="M60.21,125.06a36.45,36.45,0,0,0,49.2.78l-.34-.78C84.74,113.2,60.54,124.89,60.21,125.06Z"/><path class="cls-6" d="M73.48,60.45s0-.08,0-.12c0-7.87-5.7-15.08-14.26-15.08-6.8,0-10.74,4.89-12.09,9.46h0c-1.34-4.57-5.29-9.46-12.09-9.46-8.56,0-14.25,7.21-14.25,15.08v.12c0,1.71,0,19.14,26.33,33.34h0C73.49,79.59,73.53,62.16,73.48,60.45Z"/><path class="cls-6" d="M149.67,60.45v-.12c0-7.87-5.69-15.08-14.25-15.08-6.8,0-10.74,4.89-12.09,9.46h0c-1.34-4.57-5.29-9.46-12.09-9.46C102.68,45.25,97,52.46,97,60.33v.12c0,1.71,0,19.14,26.33,33.34h0C149.67,79.59,149.72,62.16,149.67,60.45Z"/></g></g></svg>