<svg xmlns="http://www.w3.org/2000/svg" viewBox="0 0 170.47 170.47"><defs><style>.cls-1{fill:#ffd05d;}.cls-2{fill:#fdc453;}.cls-3{fill:#ffd77f;}.cls-4{fill:#303030;}.cls-5{fill:#414042;}.cls-6{fill:#695342;}.cls-7{fill:#f06669;}</style></defs><g id="Layer_2" data-name="Layer 2"><g id="Object"><circle class="cls-1" cx="85.24" cy="85.24" r="85.24" transform="translate(-35.31 85.24) rotate(-45)"/><path class="cls-2" d="M129.83,12.49A85.25,85.25,0,0,1,13.41,131.05,85.24,85.24,0,1,0,129.83,12.49Z"/><path class="cls-3" d="M11.58,94.23A79.13,79.13,0,0,1,153.45,46,79.14,79.14,0,1,0,22.1,133.67,78.75,78.75,0,0,1,11.58,94.23Z"/><path class="cls-4" d="M60.11,64.56c0,5.84-2.81,10.58-6.28,10.58s-6.28-4.74-6.28-10.58S50.37,54,53.83,54,60.11,58.71,60.11,64.56Z"/><path class="cls-4" d="M122.92,64.56c0,5.84-2.81,10.58-6.28,10.58s-6.28-4.74-6.28-10.58S113.17,54,116.64,54,122.92,58.71,122.92,64.56Z"/><path class="cls-5" d="M108.73,30.75l2.68.76c1.92.54,3.73,1,5.48,1.65a48.42,48.42,0,0,1,7.18,3.05,43.74,43.74,0,0,1,6.49,4.21,64.53,64.53,0,0,1,6.18,5.67.36.36,0,0,0,.41.07.36.36,0,0,0,.22-.35,16.2,16.2,0,0,0-3.33-8.7A21.34,21.34,0,0,0,126.83,31a22.57,22.57,0,0,0-8.71-2.5l-.35,0a18.72,18.72,0,0,0-9.09,1.61.37.37,0,0,0-.21.36A.37.37,0,0,0,108.73,30.75Z"/><path class="cls-5" d="M61.74,30.75l-2.68.76c-1.92.54-3.73,1-5.47,1.65a48.1,48.1,0,0,0-7.19,3.05,44.27,44.27,0,0,0-6.49,4.21,63.23,63.23,0,0,0-6.17,5.67.38.38,0,0,1-.42.07.36.36,0,0,1-.22-.35,16.2,16.2,0,0,1,3.33-8.7A21.34,21.34,0,0,1,43.64,31a22.57,22.57,0,0,1,8.72-2.5l.35,0a18.7,18.7,0,0,1,9.08,1.61.36.36,0,0,1,.21.36A.35.35,0,0,1,61.74,30.75Z"/><path class="cls-6" d="M116.64,123c-1.82-18.83-15.23-33.43-31.48-33.4s-29.59,14.7-31.33,33.53Z"/><path class="cls-7" d="M53.83,123.11s26.44-26.52,62.81-.13Z"/></g></g></svg>