<svg xmlns="http://www.w3.org/2000/svg" viewBox="0 0 170.47 170.47"><defs><style>.cls-1{fill:#ffd05d;}.cls-2{fill:#fdc453;}.cls-3{fill:#ffd77f;}.cls-4{fill:#695342;}.cls-5{fill:#f06669;}.cls-6{fill:#fff;}.cls-7{fill:#414042;}</style></defs><g id="Layer_2" data-name="Layer 2"><g id="Object"><circle class="cls-1" cx="85.24" cy="85.24" r="85.24" transform="translate(-35.31 85.24) rotate(-45)"/><path class="cls-2" d="M129.83,12.49A85.25,85.25,0,0,1,13.41,131.05,85.24,85.24,0,1,0,129.83,12.49Z"/><path class="cls-3" d="M11.58,94.23A79.13,79.13,0,0,1,153.45,46,79.14,79.14,0,1,0,22.1,133.67,78.75,78.75,0,0,1,11.58,94.23Z"/><ellipse class="cls-4" cx="85.24" cy="112.21" rx="22.62" ry="38.35"/><path class="cls-5" d="M104.33,132.77c-16.5-9.07-29.94-3.93-37.71,1.22,4.08,10,10.89,16.57,18.62,16.57C93.27,150.56,100.32,143.46,104.33,132.77Z"/><ellipse class="cls-6" cx="45.09" cy="64.98" rx="29.27" ry="20.74" transform="translate(-33.11 76.83) rotate(-63.86)"/><ellipse class="cls-6" cx="125.38" cy="64.98" rx="20.74" ry="29.27" transform="translate(-15.8 61.88) rotate(-26.14)"/><path class="cls-7" d="M133.08,39.73a2.49,2.49,0,0,1-2.5-2.5V6a2.5,2.5,0,0,1,5,0V37.23A2.5,2.5,0,0,1,133.08,39.73Z"/><path class="cls-7" d="M144.61,34.67a2.5,2.5,0,0,1-2.5-2.5V9.7a2.5,2.5,0,1,1,5,0V32.17A2.5,2.5,0,0,1,144.61,34.67Z"/><path class="cls-7" d="M156.25,51.27a2.49,2.49,0,0,1-2.5-2.5V15.12a2.5,2.5,0,0,1,5,0V48.77A2.5,2.5,0,0,1,156.25,51.27Z"/></g></g></svg>