<svg xmlns="http://www.w3.org/2000/svg" viewBox="0 0 170.47 170.47"><defs><style>.cls-1{fill:#ffd05d;}.cls-2{fill:#fdc453;}.cls-3{fill:#ffd77f;}.cls-4{fill:#303030;}.cls-5{fill:#695342;}.cls-6{fill:#f06669;}</style></defs><g id="Layer_2" data-name="Layer 2"><g id="Object"><circle class="cls-1" cx="85.24" cy="85.24" r="85.24" transform="translate(-35.31 85.24) rotate(-45)"/><path class="cls-2" d="M129.83,12.49A85.25,85.25,0,0,1,13.41,131.05,85.24,85.24,0,1,0,129.83,12.49Z"/><path class="cls-3" d="M11.58,94.23A79.13,79.13,0,0,1,153.45,46,79.14,79.14,0,1,0,22.1,133.67,78.75,78.75,0,0,1,11.58,94.23Z"/><rect class="cls-4" x="41.29" y="51.78" width="7.8" height="35.14" transform="translate(-35.8 52.27) rotate(-45)"/><rect class="cls-4" x="41.29" y="51.78" width="7.8" height="35.14" transform="translate(62.27 -11.64) rotate(45)"/><rect class="cls-4" x="121.38" y="51.78" width="7.8" height="35.14" transform="translate(-12.34 108.9) rotate(-45)"/><rect class="cls-4" x="121.38" y="51.78" width="7.8" height="35.14" transform="translate(85.73 -68.28) rotate(45)"/><ellipse class="cls-5" cx="85.24" cy="112.21" rx="15.39" ry="26.09"/><path class="cls-6" d="M98.23,126.19C87,120,77.86,123.52,72.57,127c2.78,6.81,7.41,11.27,12.67,11.27C90.7,138.3,95.5,133.47,98.23,126.19Z"/></g></g></svg>