<svg xmlns="http://www.w3.org/2000/svg" viewBox="0 0 170.47 170.47"><defs><style>.cls-1{fill:#ffd05d;}.cls-2{fill:#fdc453;}.cls-3{fill:#ffd77f;}.cls-4{fill:#303030;}.cls-5{fill:#414042;}.cls-6{fill:#5e4939;}.cls-7{fill:#7cc4e8;}.cls-8{fill:#62bbe8;}</style></defs><g id="Layer_2" data-name="Layer 2"><g id="Object"><circle class="cls-1" cx="85.24" cy="85.24" r="85.24" transform="translate(-35.31 85.24) rotate(-45)"/><path class="cls-2" d="M129.83,12.49A85.25,85.25,0,0,1,13.41,131.05,85.24,85.24,0,1,0,129.83,12.49Z"/><path class="cls-3" d="M11.58,94.23A79.13,79.13,0,0,1,153.45,46,79.14,79.14,0,1,0,22.1,133.67,78.75,78.75,0,0,1,11.58,94.23Z"/><path class="cls-4" d="M60.11,64.56c0,5.84-2.81,10.58-6.28,10.58s-6.28-4.74-6.28-10.58S50.37,54,53.83,54,60.11,58.71,60.11,64.56Z"/><path class="cls-4" d="M122.92,64.56c0,5.84-2.81,10.58-6.28,10.58s-6.28-4.74-6.28-10.58S113.17,54,116.64,54,122.92,58.71,122.92,64.56Z"/><path class="cls-5" d="M135.58,46.69c-.91-.27-1.81-.52-2.68-.76-1.91-.54-3.72-1-5.47-1.65a48.42,48.42,0,0,1-7.18-3.05A42.52,42.52,0,0,1,113.76,37a64.44,64.44,0,0,1-6.18-5.66.37.37,0,0,0-.41-.08.38.38,0,0,0-.22.36,16.2,16.2,0,0,0,3.33,8.7,21.11,21.11,0,0,0,7.21,6.13A22.36,22.36,0,0,0,126.2,49l.35,0a18.74,18.74,0,0,0,9.09-1.61.38.38,0,0,0,.21-.37A.36.36,0,0,0,135.58,46.69Z"/><path class="cls-5" d="M34.89,46.69l2.68-.76c1.91-.54,3.72-1,5.47-1.65a48.42,48.42,0,0,0,7.18-3.05A42.52,42.52,0,0,0,56.71,37a63.27,63.27,0,0,0,6.18-5.66.37.37,0,0,1,.41-.08.41.41,0,0,1,.23.36,16.36,16.36,0,0,1-3.33,8.7A21.24,21.24,0,0,1,53,46.46,22.36,22.36,0,0,1,44.27,49l-.35,0a18.76,18.76,0,0,1-9.09-1.61.39.39,0,0,1-.21-.37A.38.38,0,0,1,34.89,46.69Z"/><path class="cls-6" d="M103.23,98.16a27,27,0,0,0-18-6.44A28.42,28.42,0,0,0,67.35,98.2a25.07,25.07,0,0,0-6,7.4,20.2,20.2,0,0,0-2.33,9,1.64,1.64,0,0,0,2.94,1A38.09,38.09,0,0,1,67.09,110a29.2,29.2,0,0,1,5.69-3.79,28.53,28.53,0,0,1,12.54-3,26.23,26.23,0,0,1,12.39,3,32.12,32.12,0,0,1,10.77,9.4,1.65,1.65,0,0,0,1.31.65,1.7,1.7,0,0,0,.54-.09,1.65,1.65,0,0,0,1.11-1.58C111.35,108.61,108.27,102.48,103.23,98.16Z"/><path class="cls-7" d="M124.15,80.63c-25.25,28.88-22.45,45.44-22.45,45.44a22.45,22.45,0,0,0,44.9,0S149.4,109.51,124.15,80.63Z"/><path class="cls-8" d="M107.46,141.08a22.45,22.45,0,0,0,39.14-15s1.17-7-4.88-19.72C137.25,135.44,119,140.74,107.46,141.08Z"/></g></g></svg>