<svg xmlns="http://www.w3.org/2000/svg" viewBox="0 0 170.47 170.47"><defs><style>.cls-1{fill:#ffd05d;}.cls-2{fill:#fdc453;}.cls-3{fill:#ffd77f;}.cls-4{fill:#695342;}.cls-5{fill:#f06669;}.cls-6{fill:#303030;}</style></defs><g id="Layer_2" data-name="Layer 2"><g id="Object"><circle class="cls-1" cx="85.24" cy="85.24" r="85.24" transform="translate(-12.86 155.29) rotate(-80.53)"/><path class="cls-2" d="M129.83,12.49A85.25,85.25,0,0,1,13.41,131.05,85.24,85.24,0,1,0,129.83,12.49Z"/><path class="cls-3" d="M11.58,94.23A79.13,79.13,0,0,1,153.45,46,79.14,79.14,0,1,0,22.1,133.67,78.75,78.75,0,0,1,11.58,94.23Z"/><path class="cls-4" d="M121.46,126.1a36.46,36.46,0,0,0-72.45,0Z"/><path class="cls-5" d="M49,126.1s30.57-22.54,72.45,0Z"/><path class="cls-6" d="M39.26,86.61A3.61,3.61,0,0,1,37,80.15l12.29-9.58L36.62,63.1a3.62,3.62,0,1,1,3.67-6.23L57.58,67A3.61,3.61,0,0,1,58,73L41.48,85.85A3.62,3.62,0,0,1,39.26,86.61Z"/><path class="cls-6" d="M131.21,86.61a3.64,3.64,0,0,1-2.22-.76L112.51,73a3.6,3.6,0,0,1,.39-6l17.29-10.17a3.61,3.61,0,0,1,3.66,6.23l-12.71,7.47,12.3,9.58a3.61,3.61,0,0,1-2.23,6.46Z"/></g></g></svg>