<svg xmlns="http://www.w3.org/2000/svg" viewBox="0 0 170.47 170.27"><defs><style>.cls-1{fill:#f94343;}.cls-2{fill:#f24545;}.cls-3{fill:#e24444;}.cls-4{fill:#f45c5c;}.cls-5{fill:#5e4939;}.cls-6{fill:#303030;}</style></defs><g id="Layer_2" data-name="Layer 2"><g id="Object"><path class="cls-1" d="M39.15,30.05a4.37,4.37,0,0,0-2.42-3.54C22.76,19.58,12.93,7,9.35,1.87A4.35,4.35,0,0,0,4.68.14,4.34,4.34,0,0,0,1.39,3.88C-2.24,34.45,4.61,46.72,7.72,50.57a4.38,4.38,0,0,0,6,.76L37.38,34A4.38,4.38,0,0,0,39.15,30.05Z"/><path class="cls-1" d="M131.32,30.05a4.37,4.37,0,0,1,2.42-3.54c14-6.93,23.8-19.54,27.38-24.64a4.41,4.41,0,0,1,8,2c3.62,30.57-3.23,42.84-6.34,46.69a4.37,4.37,0,0,1-6,.76L133.09,34A4.38,4.38,0,0,1,131.32,30.05Z"/><ellipse class="cls-2" cx="85.24" cy="85.29" rx="85.24" ry="84.98"/><path class="cls-3" d="M129.83,12.75a84.41,84.41,0,0,1,13.41,45.78A85.3,85.3,0,0,1,13.41,131,85.15,85.15,0,1,0,129.83,12.75Z"/><path class="cls-4" d="M11.58,94.25A79.18,79.18,0,0,1,153.45,46.16,79.08,79.08,0,1,0,22.1,133.58,78.37,78.37,0,0,1,11.58,94.25Z"/><path class="cls-5" d="M50.3,97.81a2.81,2.81,0,0,0-4.58,3.06,42.77,42.77,0,0,0,79,.79,2.81,2.81,0,0,0-4.54-3.1C107.72,110.62,81.24,127.78,50.3,97.81Z"/><ellipse class="cls-6" cx="53.83" cy="74.73" rx="6.28" ry="10.55"/><path class="cls-6" d="M122.92,74.73c0,5.83-2.81,10.56-6.28,10.56s-6.28-4.73-6.28-10.56,2.81-10.55,6.28-10.55S122.92,68.9,122.92,74.73Z"/><polygon class="cls-6" points="71.54 58.75 65.82 64.45 46.75 45.43 52.47 39.73 71.54 58.75"/><polygon class="cls-6" points="104.65 64.45 98.94 58.75 118.01 39.73 123.72 45.43 104.65 64.45"/></g></g></svg>