<svg xmlns="http://www.w3.org/2000/svg" viewBox="0 0 170.47 170.47"><defs><style>.cls-1{fill:#ffd05d;}.cls-2{fill:#fdc453;}.cls-3{fill:#ffd77f;}.cls-4{fill:#5e4939;}.cls-5{fill:#303030;}.cls-6{fill:#f5a6ac;}</style></defs><g id="Layer_2" data-name="Layer 2"><g id="Object"><circle class="cls-1" cx="85.24" cy="85.24" r="85.24" transform="translate(-35.31 85.24) rotate(-45)"/><path class="cls-2" d="M129.83,12.49A85.25,85.25,0,0,1,13.41,131.05,85.24,85.24,0,1,0,129.83,12.49Z"/><path class="cls-3" d="M11.58,94.23A79.13,79.13,0,0,1,153.45,46,79.14,79.14,0,1,0,22.1,133.67,78.75,78.75,0,0,1,11.58,94.23Z"/><path class="cls-4" d="M50.3,98.13a2.82,2.82,0,0,0-4.58,3.07,42.72,42.72,0,0,0,79,.78,2.81,2.81,0,0,0-4.54-3.1C107.72,111,81.24,128.19,50.3,98.13Z"/><path class="cls-5" d="M63.23,73A15.79,15.79,0,0,0,34,72.73a2.54,2.54,0,0,0,4.1,2.81c4.73-4.59,12.21-8.27,21,.25A2.54,2.54,0,0,0,63.23,73Z"/><path class="cls-5" d="M136.46,73a15.79,15.79,0,0,0-29.2-.29,2.54,2.54,0,0,0,4.1,2.81c4.73-4.59,12.21-8.27,21,.25A2.54,2.54,0,0,0,136.46,73Z"/><circle class="cls-6" cx="22.57" cy="97.76" r="14.88"/><circle class="cls-6" cx="147.9" cy="97.76" r="14.88"/></g></g></svg>