<?xml version="1.0" encoding="utf-8"?>
<!-- Generator: Adobe Illustrator 25.0.1, SVG Export Plug-In . SVG Version: 6.00 Build 0)  -->
<svg version="1.1" id="Layer_1" xmlns="http://www.w3.org/2000/svg" xmlns:xlink="http://www.w3.org/1999/xlink" x="0px" y="0px"
	 viewBox="0 0 40 40" style="enable-background:new 0 0 40 40;" xml:space="preserve">
<style type="text/css">
	.st0{fill:#FFD05D;}
	.st1{fill:#FDC453;}
	.st2{fill:#FFD77F;}
	.st3{fill:#5E4939;}
	.st4{fill:#303030;}
	.st5{fill:#F5A6AC;}
</style>
<g id="Layer_2_1_">
	<g id="Object">
		<circle class="st0" cx="20" cy="20" r="20"/>
		<path class="st1" d="M30.5,2.9c5.9,9.3,3.2,21.7-6.1,27.6c-6.5,4.1-14.7,4.2-21.2,0.2c6,9.3,18.3,12,27.6,6.1s12-18.3,6.1-27.6
			C35.2,6.7,33,4.5,30.5,2.9z"/>
		<path class="st2" d="M2.7,22.1C2.7,11.9,11,3.5,21.3,3.5c5.8,0,11.2,2.7,14.7,7.3c-5.1-8.9-16.5-12-25.3-6.9s-12,16.5-6.9,25.3
			c0.4,0.7,0.9,1.4,1.4,2.1C3.6,28.6,2.7,25.4,2.7,22.1z"/>
		<path class="st3" d="M11.8,23c-0.3-0.3-0.7-0.2-0.9,0c-0.2,0.2-0.2,0.5-0.1,0.7c2.1,5.1,7.9,7.6,13,5.6c2.5-1,4.5-2.9,5.5-5.4
			c0.1-0.3,0-0.7-0.4-0.9c-0.2-0.1-0.5,0-0.7,0.1C25.3,26,19.1,30.1,11.8,23z"/>
		<path class="st4" d="M14.8,17.1c-0.8-1.9-2.9-2.8-4.8-2.1c-0.9,0.4-1.7,1.1-2,2c-0.1,0.3,0,0.7,0.3,0.8c0.2,0.1,0.5,0,0.6-0.1
			c1.1-1.1,2.9-1.9,4.9,0.1c0.2,0.2,0.6,0.2,0.8,0C14.9,17.6,14.9,17.4,14.8,17.1z"/>
		<path class="st4" d="M32,17.1c-0.8-1.9-2.9-2.8-4.8-2.1c-0.9,0.4-1.6,1.1-2,2c-0.1,0.3,0,0.7,0.3,0.8c0.2,0.1,0.5,0,0.6-0.1
			c1.1-1.1,2.9-1.9,4.9,0.1c0.2,0.2,0.6,0.2,0.8,0C32.1,17.6,32.1,17.3,32,17.1z"/>
		<circle class="st5" cx="5.3" cy="22.9" r="3.5"/>
		<circle class="st5" cx="34.7" cy="22.9" r="3.5"/>
	</g>
</g>
</svg>
