<svg xmlns="http://www.w3.org/2000/svg" viewBox="0 0 170.47 170.47"><defs><style>.cls-1{fill:#ffcb27;}.cls-2{fill:#f9c021;}.cls-3{fill:#ffd95f;}.cls-4{fill:#fff;}</style></defs><g id="Layer_2" data-name="Layer 2"><g id="Object"><circle class="cls-1" cx="85.24" cy="85.24" r="85.24" transform="translate(-35.31 85.24) rotate(-45)"/><path class="cls-2" d="M129.83,12.49A85.25,85.25,0,0,1,13.41,131.05,85.24,85.24,0,1,0,129.83,12.49Z"/><path class="cls-3" d="M11.58,94.23A79.13,79.13,0,0,1,153.45,46,79.14,79.14,0,1,0,22.1,133.67,78.75,78.75,0,0,1,11.58,94.23Z"/><path class="cls-4" d="M138.22,72A4,4,0,0,0,135,69.24L103.09,64.6,88.82,35.68a4,4,0,0,0-7.16,0L67.38,64.6,35.47,69.24a4,4,0,0,0-2.21,6.81L56.35,98.56,50.9,130.34a4,4,0,0,0,5.79,4.21l28.55-15,28.54,15a4,4,0,0,0,1.86.46,4,4,0,0,0,3.93-4.67l-5.45-31.78,23.09-22.51A4,4,0,0,0,138.22,72Z"/></g></g></svg>