<svg xmlns="http://www.w3.org/2000/svg" viewBox="0 0 170.47 170.47"><defs><style>.cls-1{fill:#ffd05d;}.cls-2{fill:#fdc453;}.cls-3{fill:#ffd77f;}.cls-4{fill:#fff;}.cls-5{fill:#303030;}.cls-6{fill:#5e4939;}</style></defs><g id="Layer_2" data-name="Layer 2"><g id="Object"><circle class="cls-1" cx="85.24" cy="85.24" r="85.24" transform="matrix(0.16, -0.99, 0.99, 0.16, -12.55, 155.72)"/><path class="cls-2" d="M129.83,12.49A85.25,85.25,0,0,1,13.41,131.05,85.24,85.24,0,1,0,129.83,12.49Z"/><path class="cls-3" d="M11.58,94.23A79.13,79.13,0,0,1,153.45,46,79.14,79.14,0,1,0,22.1,133.67,78.75,78.75,0,0,1,11.58,94.23Z"/><circle class="cls-4" cx="46.96" cy="69.68" r="19.54" transform="matrix(0.16, -0.99, 0.99, 0.16, -29.34, 104.87)"/><path class="cls-5" d="M60.67,55.76a19.5,19.5,0,0,0-23.58-2.93A4.8,4.8,0,0,0,36,55.36c-.38,4.08,4.88,7.9,11.75,8.55s12.75-2.14,13.13-6.22A4.7,4.7,0,0,0,60.67,55.76Z"/><circle class="cls-4" cx="123.51" cy="69.68" r="19.54" transform="translate(27.32 173.87) rotate(-76.72)"/><path class="cls-5" d="M137.21,55.76a19.49,19.49,0,0,0-23.57-2.93,4.81,4.81,0,0,0-1.06,2.53c-.38,4.08,4.88,7.9,11.75,8.55s12.75-2.14,13.13-6.22A4.39,4.39,0,0,0,137.21,55.76Z"/><path class="cls-6" d="M117,104.77a34.35,34.35,0,0,0-16.11-8.57,43.59,43.59,0,0,0-18.38-.34,46.08,46.08,0,0,0-16.88,7,39.92,39.92,0,0,0-12.4,13,2,2,0,0,0,.27,2.36,2,2,0,0,0,1.46.63,2,2,0,0,0,.89-.21l1.86-.92c4.39-2.17,8.54-4.22,12.75-5.86a79.82,79.82,0,0,1,14.32-4.26,70.06,70.06,0,0,1,14.76-1.26,91.23,91.23,0,0,1,15.69,1.78,2,2,0,0,0,1.77-3.39Z"/></g></g></svg>