<svg xmlns="http://www.w3.org/2000/svg" viewBox="0 0 170.47 170.47"><defs><style>.cls-1{fill:#8cb7ea;}.cls-2{fill:#70a9e0;}.cls-3{fill:#a0c9f2;}.cls-4{fill:#303030;}.cls-5{fill:#414042;}.cls-6{fill:#5e4939;}</style></defs><g id="Layer_2" data-name="Layer 2"><g id="Object"><circle class="cls-1" cx="85.24" cy="85.24" r="85.24" transform="translate(-35.31 85.24) rotate(-45)"/><path class="cls-2" d="M129.83,12.49A85.25,85.25,0,0,1,13.41,131.05,85.24,85.24,0,1,0,129.83,12.49Z"/><path class="cls-3" d="M11.58,94.23A79.13,79.13,0,0,1,153.45,46,79.14,79.14,0,1,0,22.1,133.67,78.75,78.75,0,0,1,11.58,94.23Z"/><path class="cls-4" d="M39.26,93.25A3.62,3.62,0,0,1,37,86.78l12.29-9.57L36.62,69.73a3.62,3.62,0,0,1,3.67-6.23L57.58,73.67a3.62,3.62,0,0,1,.39,6L41.48,92.48A3.57,3.57,0,0,1,39.26,93.25Z"/><path class="cls-4" d="M131.21,93.25a3.59,3.59,0,0,1-2.22-.77L112.51,79.64a3.61,3.61,0,0,1,.39-6L130.19,63.5a3.61,3.61,0,0,1,3.66,6.23l-12.71,7.48,12.3,9.57a3.62,3.62,0,0,1-2.23,6.47Z"/><path class="cls-5" d="M21.42,53.73c1.06-.19,2.09-.35,3.09-.52,2.2-.36,4.28-.71,6.3-1.17a54.09,54.09,0,0,0,8.38-2.53A47.73,47.73,0,0,0,47,45.61a72.83,72.83,0,0,0,7.58-5.56A.41.41,0,0,1,55,40a.4.4,0,0,1,.2.42,18.13,18.13,0,0,1-4.78,9.3,23.82,23.82,0,0,1-8.79,6,25.21,25.21,0,0,1-10,1.73l-.39,0a21,21,0,0,1-9.94-2.91.41.41,0,0,1-.19-.43A.42.42,0,0,1,21.42,53.73Z"/><path class="cls-5" d="M149.05,53.73c-1.06-.19-2.08-.35-3.09-.52-2.2-.36-4.28-.71-6.3-1.17a54.42,54.42,0,0,1-8.38-2.53,48.14,48.14,0,0,1-7.76-3.9,72.83,72.83,0,0,1-7.58-5.56.41.41,0,0,0-.47,0,.41.41,0,0,0-.2.42,18.2,18.2,0,0,0,4.78,9.3,23.82,23.82,0,0,0,8.79,6,25.25,25.25,0,0,0,10,1.73l.39,0a20.93,20.93,0,0,0,9.94-2.91.4.4,0,0,0,.19-.43A.4.4,0,0,0,149.05,53.73Z"/><path class="cls-6" d="M114.61,99.15a3.5,3.5,0,0,1,2.73,1.31l11.53,14.32a3.5,3.5,0,1,1-5.45,4.39l-8.55-10.61-12,18a3.48,3.48,0,0,1-2.91,1.56h0A3.5,3.5,0,0,1,97,126.6L85.24,109,73.45,126.59a3.48,3.48,0,0,1-2.91,1.56h0a3.48,3.48,0,0,1-2.91-1.56l-12-18-8.54,10.61a3.5,3.5,0,1,1-5.46-4.39l11.54-14.32a3.48,3.48,0,0,1,5.63.25l11.77,17.64,11.79-17.64a3.49,3.49,0,0,1,5.82,0l11.78,17.64,11.77-17.64a3.5,3.5,0,0,1,2.75-1.56Z"/></g></g></svg>