<svg width="17" height="17" viewBox="0 0 17 17" fill="none" xmlns="http://www.w3.org/2000/svg">
<path d="M0.76416 8.90649C0.76416 5.13526 0.76416 3.24964 1.93573 2.07807C3.10731 0.906494 4.99292 0.906494 8.76416 0.906494C12.5354 0.906494 14.421 0.906494 15.5926 2.07807C16.7642 3.24964 16.7642 5.13526 16.7642 8.90649C16.7642 12.6777 16.7642 14.5633 15.5926 15.7349C14.421 16.9065 12.5354 16.9065 8.76416 16.9065C4.99292 16.9065 3.10731 16.9065 1.93573 15.7349C0.76416 14.5633 0.76416 12.6777 0.76416 8.90649Z" fill="#1C274C"/>
<path opacity="0.5" d="M1.93573 15.7346C3.10731 16.9062 4.99292 16.9062 8.76416 16.9062C12.5354 16.9062 14.421 16.9062 15.5926 15.7346C16.6782 14.649 16.7579 12.9503 16.7637 9.70621H14.236C13.5118 9.70621 13.1497 9.70621 12.8315 9.85259C12.5132 9.99896 12.2776 10.2739 11.8063 10.8237L11.8063 10.8237L11.322 11.3887L11.322 11.3887C10.8507 11.9385 10.6151 12.2134 10.2968 12.3598C9.97857 12.5062 9.61651 12.5062 8.89237 12.5062H8.63595C7.91182 12.5062 7.54975 12.5062 7.23148 12.3598C6.91322 12.2134 6.67759 11.9385 6.20633 11.3887L5.72199 10.8237C5.25073 10.2739 5.0151 9.99897 4.69684 9.85259C4.37857 9.70621 4.01651 9.70621 3.29237 9.70621H0.76416C0.770003 12.9503 0.850108 14.649 1.93573 15.7346Z" fill="white"/>
</svg>
