<svg width="31" height="31" viewBox="0 0 31 31" fill="none" xmlns="http://www.w3.org/2000/svg">
<path d="M21.7803 12.2063L22.6032 11.7948C25.0356 10.5786 26.2518 9.97055 27.141 10.5201C28.0303 11.0697 28.0303 12.4295 28.0303 15.1489V15.5137C28.0303 18.2331 28.0303 19.5929 27.141 20.1425C26.2518 20.692 25.0356 20.084 22.6032 18.8678L21.7803 18.4563V12.2063Z" fill="#1C274C"/>
<path opacity="0.5" fill-rule="evenodd" clip-rule="evenodd" d="M4.16522 7.15909C3.03027 8.54203 3.03027 10.5967 3.03027 14.7061V15.9561C3.03027 20.0654 3.03027 22.1201 4.16522 23.503C4.37299 23.7562 4.60514 23.9883 4.85831 24.1961C6.24124 25.3311 8.29592 25.3311 12.4053 25.3311C16.5146 25.3311 18.5693 25.3311 19.9522 24.1961C20.2054 23.9883 20.4376 23.7562 20.6453 23.503C21.7803 22.1201 21.7803 20.0654 21.7803 15.9561V14.7061C21.7803 10.5967 21.7803 8.54203 20.6453 7.15909C20.4376 6.90592 20.2054 6.67377 19.9522 6.466C18.5693 5.33105 16.5146 5.33105 12.4053 5.33105C8.29592 5.33105 6.24124 5.33105 4.85831 6.466C4.60514 6.67377 4.37299 6.90592 4.16522 7.15909Z" fill="#1C274C"/>
<path d="M18.0303 10.9561C18.0303 11.9916 17.1908 12.8311 16.1553 12.8311C15.1197 12.8311 14.2803 11.9916 14.2803 10.9561C14.2803 9.92052 15.1197 9.08105 16.1553 9.08105C17.1908 9.08105 18.0303 9.92052 18.0303 10.9561Z" fill="#FC4B5D"/>
</svg>
