<svg width="17" height="17" viewBox="0 0 17 17" fill="none" xmlns="http://www.w3.org/2000/svg">
<path opacity="0.5" d="M1.47535 1.58918C0.527098 2.53742 0.527098 4.07484 1.47535 5.02308L2.8124 6.36014C2.82244 6.34853 3.27947 6.7837 3.29049 6.77267L6.65894 3.40423C6.66993 3.39324 6.23472 2.93623 6.2463 2.92622L4.90925 1.58918C3.96101 0.640929 2.42359 0.640929 1.47535 1.58918Z" fill="#1C274C"/>
<path d="M2.56024 11.242C2.69577 10.8971 3.18211 10.8971 3.31764 11.242L3.44979 11.5783C3.49116 11.6836 3.57421 11.767 3.67913 11.8085L4.01419 11.9411C4.35783 12.0772 4.35783 12.5653 4.01419 12.7014L3.67913 12.834C3.57421 12.8755 3.49116 12.9589 3.44979 13.0642L3.31764 13.4005C3.18211 13.7454 2.69577 13.7454 2.56024 13.4005L2.42809 13.0642C2.38671 12.9589 2.30366 12.8755 2.19875 12.834L1.86369 12.7014C1.52005 12.5653 1.52005 12.0772 1.86369 11.9411L2.19875 11.8085C2.30366 11.767 2.38671 11.6836 2.42809 11.5783L2.56024 11.242Z" fill="#1C274C"/>
<path d="M15.0524 6.03969C15.188 5.69478 15.6743 5.69478 15.8098 6.03969L15.942 6.37599C15.9834 6.48129 16.0664 6.56465 16.1713 6.60618L16.5064 6.73881C16.85 6.87485 16.85 7.36299 16.5064 7.49902L16.1713 7.63165C16.0664 7.67319 15.9834 7.75654 15.942 7.86185L15.8098 8.19814C15.6743 8.54306 15.188 8.54306 15.0524 8.19814L14.9203 7.86185C14.8789 7.75654 14.7959 7.67319 14.6909 7.63165L14.3559 7.49902C14.0122 7.36299 14.0122 6.87485 14.3559 6.73881L14.6909 6.60618C14.7959 6.56465 14.8789 6.48129 14.9203 6.37599L15.0524 6.03969Z" fill="#1C274C"/>
<path opacity="0.7" d="M11.7958 0.294576C11.9313 -0.0503403 12.4177 -0.0503406 12.5532 0.294576L12.9156 1.21693C12.957 1.32223 13.0401 1.40559 13.145 1.44712L14.0639 1.81089C14.4076 1.94692 14.4076 2.43507 14.0639 2.5711L13.145 2.93487C13.0401 2.9764 12.957 3.05976 12.9156 3.16506L12.5532 4.08742C12.4177 4.43233 11.9313 4.43233 11.7958 4.08742L11.4334 3.16506C11.392 3.05976 11.3089 2.9764 11.204 2.93487L10.2851 2.5711C9.94143 2.43507 9.94143 1.94692 10.2851 1.81089L11.204 1.44712C11.3089 1.40559 11.392 1.32223 11.4334 1.21693L11.7958 0.294576Z" fill="#1C274C"/>
<path d="M7.13689 3.81697C7.12688 3.82854 6.66968 3.39314 6.65869 3.40414L3.29024 6.77258C3.27922 6.7836 3.71458 7.24083 3.70297 7.25087L11.7768 15.3247C12.7251 16.273 14.2625 16.273 15.2107 15.3247C16.159 14.3765 16.159 12.8391 15.2107 11.8908L7.13689 3.81697Z" fill="#1C274C"/>
</svg>
