<svg width="24" height="25" viewBox="0 0 24 25" fill="none" xmlns="http://www.w3.org/2000/svg">
<path opacity="0.5" d="M22.7642 1.71606V23.7161" stroke="#1C274C" stroke-width="1.5" stroke-linecap="round"/>
<path d="M17.8753 7.76611C17.8753 6.73804 17.8753 6.224 17.6297 5.84111C17.4687 5.59028 17.2373 5.38199 16.9586 5.23717C16.5332 5.01611 15.962 5.01611 14.8197 5.01611H3.81972C2.67741 5.01611 2.10625 5.01611 1.68083 5.23717C1.40212 5.38199 1.17069 5.59028 1.00978 5.84111C0.76416 6.224 0.76416 6.73804 0.76416 7.76611C0.76416 8.79419 0.76416 9.30823 1.00978 9.69111C1.17069 9.94195 1.40212 10.1502 1.68083 10.2951C2.10625 10.5161 2.67741 10.5161 3.81972 10.5161H14.8197C15.962 10.5161 16.5332 10.5161 16.9586 10.2951C17.2373 10.1502 17.4687 9.94195 17.6297 9.69111C17.8753 9.30823 17.8753 8.79419 17.8753 7.76611Z" stroke="#1C274C" stroke-width="1.5"/>
<path d="M17.8756 17.666C17.8756 16.6379 17.8756 16.1239 17.63 15.741C17.4691 15.4902 17.2376 15.2819 16.9589 15.1371C16.5335 14.916 15.9623 14.916 14.82 14.916H7.48671C6.3444 14.916 5.77325 14.916 5.34782 15.1371C5.06912 15.2819 4.83768 15.4902 4.67677 15.741C4.43115 16.1239 4.43115 16.6379 4.43115 17.666C4.43115 18.6941 4.43115 19.2081 4.67677 19.591C4.83768 19.8418 5.06912 20.0501 5.34782 20.195C5.77325 20.416 6.3444 20.416 7.48671 20.416H14.82C15.9623 20.416 16.5335 20.416 16.9589 20.195C17.2376 20.0501 17.4691 19.8418 17.63 19.591C17.8756 19.2081 17.8756 18.6941 17.8756 17.666Z" stroke="#1C274C" stroke-width="1.5"/>
</svg>
