<svg width="17" height="17" viewBox="0 0 17 17" fill="none" xmlns="http://www.w3.org/2000/svg">
<path opacity="0.5" fill-rule="evenodd" clip-rule="evenodd" d="M12.6962 8.01543C10.9991 8.01543 10.1506 8.01543 9.6234 7.48822C9.09619 6.96101 9.09619 6.11249 9.09619 4.41543C9.09619 2.71837 9.09619 1.86985 9.6234 1.34264C10.1506 0.81543 10.9991 0.81543 12.6962 0.81543C14.3932 0.81543 15.2418 0.81543 15.769 1.34264C16.2962 1.86985 16.2962 2.71837 16.2962 4.41543C16.2962 6.11249 16.2962 6.96101 15.769 7.48822C15.2418 8.01543 14.3932 8.01543 12.6962 8.01543ZM13.2962 2.81543C13.2962 2.48406 13.0276 2.21543 12.6962 2.21543C12.3648 2.21543 12.0962 2.48406 12.0962 2.81543V3.81543H11.0962C10.7648 3.81543 10.4962 4.08406 10.4962 4.41543C10.4962 4.7468 10.7648 5.01543 11.0962 5.01543H12.0962V6.01543C12.0962 6.3468 12.3648 6.61543 12.6962 6.61543C13.0276 6.61543 13.2962 6.3468 13.2962 6.01543V5.01543H14.2962C14.6276 5.01543 14.8962 4.7468 14.8962 4.41543C14.8962 4.08406 14.6276 3.81543 14.2962 3.81543H13.2962V2.81543Z" fill="#1C274C"/>
<path d="M16.2957 9.37371C16.2945 10.5494 16.2856 11.5486 16.2188 12.3686C16.1412 13.32 15.9824 14.1151 15.6268 14.7754C15.47 15.0667 15.2772 15.3275 15.0426 15.5621C14.3767 16.228 13.5283 16.5297 12.4531 16.6742C11.4027 16.8155 10.0565 16.8154 8.33859 16.8154H8.2532C6.53533 16.8154 5.18907 16.8155 4.13866 16.6742C3.0635 16.5297 2.21511 16.228 1.54921 15.5621C0.958863 14.9718 0.654 14.237 0.491881 13.3255C0.332624 12.4301 0.303491 11.3161 0.297438 9.93281C0.295899 9.58095 0.295899 9.20879 0.295899 8.81618V8.77273C0.295889 7.05486 0.295882 5.70859 0.437105 4.65819C0.581656 3.58304 0.883305 2.73465 1.54921 2.06874C2.21511 1.40284 3.0635 1.10119 4.13866 0.956637C5.07279 0.831046 6.27467 0.817149 7.73752 0.815618C8.04577 0.815296 8.2959 1.06532 8.2959 1.37357C8.2959 1.68182 8.04566 1.93159 7.73741 1.93191C6.25389 1.93348 5.1499 1.947 4.2874 2.06296C3.33603 2.19087 2.76247 2.43414 2.33854 2.85807C1.91461 3.282 1.67134 3.85556 1.54343 4.80693C1.41336 5.77435 1.41218 7.04559 1.41218 8.81543C1.41218 9.03156 1.41218 9.24058 1.41243 9.44297L2.15746 8.79107C2.83562 8.19769 3.8577 8.23172 4.49488 8.8689L7.68723 12.0613C8.19866 12.5727 9.00372 12.6424 9.59547 12.2265L9.81738 12.0706C10.6689 11.4721 11.821 11.5415 12.5946 12.2377L14.701 14.1335C14.913 13.6882 15.0389 13.1032 15.1062 12.2779C15.1695 11.5003 15.1782 10.5558 15.1794 9.37374C15.1797 9.06549 15.4295 8.81543 15.7378 8.81543C16.046 8.81543 16.296 9.06546 16.2957 9.37371Z" fill="#1C274C"/>
</svg>
