<svg width="16" height="17" viewBox="0 0 16 17" fill="none" xmlns="http://www.w3.org/2000/svg">
<path d="M8.55791 9.19348L14.8835 6.66325V10.8701C14.5076 10.6294 14.0607 10.4898 13.5812 10.4898C12.2454 10.4898 11.1626 11.5727 11.1626 12.9085C11.1626 14.2442 12.2454 15.3271 13.5812 15.3271C14.9169 15.3271 15.9998 14.2442 15.9998 12.9085C15.9998 12.9084 15.9998 12.9085 15.9998 12.9085L15.9998 5.79869C15.9998 4.9482 15.9998 4.23494 15.9399 3.66664C15.9315 3.58632 15.9215 3.50647 15.9104 3.43197C15.8528 3.04372 15.7509 2.68153 15.5543 2.37908C15.456 2.22785 15.334 2.09156 15.182 1.97442C15.1535 1.95245 15.1239 1.93116 15.0932 1.91057L15.0871 1.90646C14.5608 1.55619 13.9691 1.58124 13.3596 1.73656C12.7702 1.88677 12.0394 2.19266 11.1432 2.56775L9.58487 3.22001C9.16482 3.3958 8.80894 3.54474 8.52961 3.699C8.23242 3.86313 7.97642 4.05672 7.78444 4.34519C7.59246 4.63366 7.51272 4.94455 7.47606 5.28207C7.44161 5.59929 7.44162 5.98507 7.44163 6.44042V12.3584C7.06571 12.1178 6.6188 11.9782 6.13931 11.9782C4.80355 11.9782 3.7207 13.0611 3.7207 14.3968C3.7207 15.7326 4.80355 16.8154 6.13931 16.8154C7.47507 16.8154 8.55791 15.7326 8.55791 14.3968C8.55791 14.3968 8.55791 14.3969 8.55791 14.3968L8.55791 9.19348Z" fill="#1C274C"/>
<path opacity="0.5" d="M4.83721 1.37357C4.83721 1.06532 4.58732 0.81543 4.27907 0.81543C3.97082 0.81543 3.72093 1.06532 3.72093 1.37357V5.66076C3.345 5.42008 2.8981 5.28055 2.4186 5.28055C1.08285 5.28055 0 6.36339 0 7.69915C0 9.03491 1.08285 10.1178 2.4186 10.1178C3.75436 10.1178 4.83721 9.03491 4.83721 7.69915V3.60948C5.35704 3.98502 5.97548 4.16427 6.51163 4.16427C6.81988 4.16427 7.06977 3.91438 7.06977 3.60613C7.06977 3.29788 6.81988 3.04799 6.51163 3.04799C6.1735 3.04799 5.74237 2.91693 5.40398 2.63747C5.0816 2.37123 4.83721 1.96732 4.83721 1.37357Z" fill="#1C274C"/>
</svg>
