<svg width="25" height="25" viewBox="0 0 25 25" fill="none" xmlns="http://www.w3.org/2000/svg">
<path opacity="0.5" d="M23.5 19.4383V11.4938C23.5 6.88455 23.5 4.57991 22.2113 3.14799C20.9225 1.71606 18.8484 1.71606 14.7 1.71606H10.3C6.15164 1.71606 4.07746 1.71606 2.78873 3.14799C1.5 4.57991 1.5 6.88455 1.5 11.4938V13.9383C1.5 18.5476 1.5 20.8522 2.78873 22.2841C4.07746 23.7161 6.15164 23.7161 10.3 23.7161H11.4H19.1" stroke="#1C274C" stroke-width="1.5"/>
<path d="M13.6001 18.8271C13.6001 16.5225 13.6001 15.3702 14.2445 14.6542C14.8888 13.9382 15.9259 13.9382 18.0001 13.9382H19.1001C21.1743 13.9382 22.2114 13.9382 22.8557 14.6542C23.5001 15.3702 23.5001 16.5225 23.5001 18.8271C23.5001 21.1318 23.5001 22.2841 22.8557 23C22.2114 23.716 21.1743 23.716 19.1001 23.716H18.0001C15.9259 23.716 14.8888 23.716 14.2445 23C13.6001 22.2841 13.6001 21.1318 13.6001 18.8271Z" stroke="#1C274C" stroke-width="1.5"/>
<path d="M7.5502 7.21609V10.8828M7.5502 7.21609H10.8502M7.5502 7.21609L11.9502 12.105" stroke="#1C274C" stroke-width="1.5" stroke-linecap="round" stroke-linejoin="round"/>
</svg>
