<svg width="20" height="19" viewBox="0 0 20 19" fill="none" xmlns="http://www.w3.org/2000/svg">
<path opacity="0.5" d="M2.54842 11.647C1.60398 8.12232 1.13177 6.35999 1.93335 4.97161C2.73492 3.58323 4.49726 3.11102 8.02194 2.16658C11.5466 1.22215 13.309 0.749931 14.6973 1.55151C16.0857 2.35309 16.5579 4.11543 17.5024 7.64011C18.4468 11.1648 18.919 12.9271 18.1174 14.3155C17.3159 15.7039 15.5535 16.1761 12.0288 17.1205C8.50416 18.065 6.74182 18.5372 5.35345 17.7356C3.96507 16.934 3.49285 15.1717 2.54842 11.647Z" stroke="#1C274C" stroke-width="1.5"/>
<path d="M6.85303 12.188C7.92262 12.4561 9.13609 12.4562 10.3572 12.129C11.5783 11.8019 12.6291 11.195 13.4213 10.428" stroke="#5F9CE3" stroke-width="1.5" stroke-linecap="round"/>
<mask id="path-3-inside-1_640_1683" fill="white">
<ellipse cx="11.6105" cy="6.95297" rx="0.85" ry="1.275" transform="rotate(-15 11.6105 6.95297)"/>
</mask>
<ellipse cx="11.6105" cy="6.95297" rx="0.85" ry="1.275" transform="rotate(-15 11.6105 6.95297)" fill="#5F9CE3"/>
<path d="M11.4656 6.99179C11.5128 7.16777 11.4945 7.29662 11.4771 7.3478C11.4693 7.37103 11.4693 7.35654 11.4981 7.32514C11.5304 7.29001 11.592 7.24262 11.6817 7.2186L12.1993 9.15045C12.8495 8.97623 13.214 8.45491 13.3717 7.98869C13.5321 7.51452 13.5326 6.97833 13.3975 6.47415L11.4656 6.99179ZM11.6817 7.2186C11.7713 7.19457 11.8484 7.20483 11.8939 7.21909C11.9346 7.23185 11.9418 7.24441 11.9234 7.22822C11.8828 7.19255 11.8025 7.09013 11.7554 6.91414L9.82354 7.43178C9.95864 7.93597 10.2271 8.40007 10.6032 8.73052C10.9728 9.05542 11.5491 9.32466 12.1993 9.15045L11.6817 7.2186ZM11.7554 6.91414C11.7082 6.73816 11.7266 6.60932 11.7439 6.55813C11.7517 6.5349 11.7518 6.54939 11.7229 6.58079C11.6906 6.61592 11.629 6.66331 11.5393 6.68734L11.0217 4.75548C10.3715 4.9297 10.0071 5.45102 9.84934 5.91724C9.68893 6.39141 9.68845 6.9276 9.82354 7.43178L11.7554 6.91414ZM11.5393 6.68734C11.4497 6.71136 11.3726 6.7011 11.3271 6.68684C11.2864 6.67408 11.2792 6.66153 11.2976 6.67771C11.3382 6.71338 11.4185 6.8158 11.4656 6.99179L13.3975 6.47415C13.2624 5.96997 12.9939 5.50586 12.6179 5.17541C12.2482 4.85051 11.6719 4.58127 11.0217 4.75548L11.5393 6.68734Z" fill="#5F9CE3" mask="url(#path-3-inside-1_640_1683)"/>
<mask id="path-5-inside-2_640_1683" fill="white">
<ellipse cx="6.68423" cy="8.27328" rx="0.85" ry="1.275" transform="rotate(-15 6.68423 8.27328)"/>
</mask>
<ellipse cx="6.68423" cy="8.27328" rx="0.85" ry="1.275" transform="rotate(-15 6.68423 8.27328)" fill="#5F9CE3"/>
<path d="M6.53935 8.3121C6.5865 8.48809 6.56818 8.61693 6.55087 8.66811C6.54301 8.69134 6.54299 8.67685 6.57187 8.64545C6.60418 8.61032 6.66575 8.56293 6.75541 8.53891L7.27305 10.4708C7.92322 10.2965 8.28769 9.77523 8.4454 9.30901C8.60581 8.83483 8.60629 8.29865 8.4712 7.79446L6.53935 8.3121ZM6.75541 8.53891C6.84507 8.51488 6.92209 8.52514 6.96763 8.53941C7.00835 8.55216 7.01557 8.56472 6.99715 8.54853C6.95656 8.51286 6.87628 8.41044 6.82912 8.23446L4.89727 8.75209C5.03237 9.25628 5.30088 9.72038 5.67688 10.0508C6.04658 10.3757 6.62288 10.645 7.27305 10.4708L6.75541 8.53891ZM6.82912 8.23446C6.78197 8.05847 6.80028 7.92963 6.8176 7.87845C6.82546 7.85522 6.82548 7.8697 6.7966 7.9011C6.76429 7.93623 6.70272 7.98362 6.61306 8.00765L6.09542 6.0758C5.44525 6.25001 5.08078 6.77133 4.92307 7.23755C4.76266 7.71173 4.76218 8.24791 4.89727 8.75209L6.82912 8.23446ZM6.61306 8.00765C6.5234 8.03167 6.44638 8.02142 6.40083 8.00715C6.36012 7.9944 6.3529 7.98184 6.37132 7.99803C6.41191 8.03369 6.49219 8.13612 6.53935 8.3121L8.4712 7.79446C8.3361 7.29028 8.06759 6.82617 7.69159 6.49573C7.32189 6.17083 6.74559 5.90158 6.09542 6.0758L6.61306 8.00765Z" fill="#5F9CE3" mask="url(#path-5-inside-2_640_1683)"/>
<path d="M10.3276 12.2446L10.7339 13.0724C11.0411 13.6981 11.7938 13.9611 12.4238 13.6629C13.0666 13.3586 13.3362 12.5873 13.0228 11.9489L12.6324 11.1536" stroke="#5F9CE3" stroke-width="1.5"/>
</svg>
