<svg width="17" height="17" viewBox="0 0 17 17" fill="none" xmlns="http://www.w3.org/2000/svg">
<path d="M15.2213 9.71426C15.6573 9.70649 16.1637 9.70649 16.7642 9.70649V8.90649C16.7642 5.13526 16.7642 3.24964 15.5926 2.07807C14.421 0.906494 12.5354 0.906494 8.76416 0.906494C4.99292 0.906494 3.10731 0.906494 1.93573 2.07807C0.76416 3.24964 0.76416 5.13526 0.76416 8.90649C0.76416 12.6777 0.76416 14.5633 1.93573 15.7349C3.10731 16.9065 4.99292 16.9065 8.76416 16.9065H9.56416C9.56416 16.306 9.56416 15.7997 9.57193 15.3636C9.58752 14.4884 9.63441 13.8962 9.77541 13.3939L9.77751 13.3864C9.78806 13.3492 9.79912 13.3124 9.81073 13.2761L9.81587 13.2601C9.99102 12.7211 10.2514 12.2221 10.5814 11.7788C10.6108 11.7392 10.6408 11.7001 10.6713 11.6615C11.2928 10.8749 12.1392 10.2762 13.1178 9.9582C13.6495 9.78545 14.2672 9.73126 15.2213 9.71426Z" fill="#1C274C"/>
<path opacity="0.5" d="M11.0676 16.7493L11.064 16.7501L11.0152 16.7602L11.0136 16.7605C10.5454 16.8562 10.0607 16.9065 9.56416 16.9065H8.76416L9.03935 16.6316C9.37603 16.2953 9.56345 15.8394 9.57193 15.3636C9.58892 14.4095 9.64311 13.7918 9.81587 13.2601C10.3246 11.6944 11.5521 10.4669 13.1178 9.95821C13.6495 9.78545 14.2672 9.73126 15.2213 9.71427C15.6971 9.70579 16.153 9.51851 16.4895 9.18204L16.7642 8.90735V9.7065C16.7642 10.2361 16.707 10.7523 16.5985 11.2494C16.0007 13.9874 13.845 16.143 11.1071 16.7408L11.0676 16.7493Z" fill="#1C274C"/>
<path d="M11.1645 8.9065C11.6063 8.9065 11.9645 8.36924 11.9645 7.7065C11.9645 7.04376 11.6063 6.5065 11.1645 6.5065C10.7226 6.5065 10.3645 7.04376 10.3645 7.7065C10.3645 8.36924 10.7226 8.9065 11.1645 8.9065Z" fill="white"/>
<path d="M6.36445 8.9065C6.80628 8.9065 7.16445 8.36924 7.16445 7.7065C7.16445 7.04376 6.80628 6.5065 6.36445 6.5065C5.92263 6.5065 5.56445 7.04376 5.56445 7.7065C5.56445 8.36924 5.92263 8.9065 6.36445 8.9065Z" fill="white"/>
<path d="M9.81616 13.2601C9.99131 12.7211 10.2517 12.2221 10.5817 11.7788C10.0467 12.1154 9.42601 12.3065 8.76449 12.3065C8.00777 12.3065 7.30445 12.0564 6.72178 11.6245C6.45557 11.4272 6.0798 11.483 5.88247 11.7492C5.68514 12.0155 5.74099 12.3912 6.0072 12.5886C6.78513 13.1652 7.73651 13.5065 8.76449 13.5065C9.11153 13.5065 9.44984 13.4676 9.7757 13.3939L9.77781 13.3864C9.78835 13.3492 9.79941 13.3124 9.81102 13.2761L9.81616 13.2601Z" fill="white"/>
</svg>
