<svg width="16" height="17" viewBox="0 0 16 17" fill="none" xmlns="http://www.w3.org/2000/svg">
<path d="M0 8.81543C0 5.04419 0 3.15858 1.17157 1.987C2.34315 0.81543 4.22876 0.81543 8 0.81543C11.7712 0.81543 13.6569 0.81543 14.8284 1.987C16 3.15858 16 5.04419 16 8.81543C16 12.5867 16 14.4723 14.8284 15.6439C13.6569 16.8154 11.7712 16.8154 8 16.8154C4.22876 16.8154 2.34315 16.8154 1.17157 15.6439C0 14.4723 0 12.5867 0 8.81543Z" fill="#1C274C"/>
<path d="M6.36129 4.21543C6.0174 4.21537 5.6959 4.21532 5.43325 4.25456C5.13653 4.29888 4.83171 4.40367 4.58805 4.6744C4.35253 4.93608 4.26939 5.24792 4.23334 5.54578C4.19966 5.82419 4.19968 6.16931 4.19971 6.55902V6.55906L4.19971 7.01543C4.19971 7.3468 4.46834 7.61543 4.79971 7.61543C5.13108 7.61543 5.39971 7.3468 5.39971 7.01543V6.59321C5.39971 6.15888 5.40075 5.88752 5.42465 5.68993C5.43587 5.59723 5.44989 5.54381 5.46123 5.5132C5.47079 5.48737 5.47762 5.4798 5.47989 5.47728L5.48054 5.47653C5.48163 5.47522 5.48243 5.47425 5.48965 5.47095C5.50295 5.46488 5.53706 5.45237 5.61054 5.44139C5.77383 5.417 6.0038 5.41543 6.39971 5.41543H7.39971V12.2154H5.99971C5.66834 12.2154 5.39971 12.4841 5.39971 12.8154C5.39971 13.1468 5.66834 13.4154 5.99971 13.4154H10.3997C10.7311 13.4154 10.9997 13.1468 10.9997 12.8154C10.9997 12.4841 10.7311 12.2154 10.3997 12.2154H8.59971V5.41543H9.59971C9.99562 5.41543 10.2256 5.417 10.3889 5.44139C10.4624 5.45237 10.4965 5.46488 10.5098 5.47095C10.517 5.47425 10.5178 5.47522 10.5189 5.47653L10.5194 5.47716C10.5217 5.47968 10.5286 5.48737 10.5382 5.5132C10.5495 5.54381 10.5635 5.59723 10.5748 5.68993C10.5987 5.88752 10.5997 6.15888 10.5997 6.59321V7.01543C10.5997 7.3468 10.8683 7.61543 11.1997 7.61543C11.5311 7.61543 11.7997 7.3468 11.7997 7.01543L11.7997 6.55906V6.55904C11.7997 6.16933 11.7998 5.82419 11.7661 5.54578C11.73 5.24792 11.6469 4.93608 11.4114 4.6744C11.1677 4.40367 10.8629 4.29888 10.5662 4.25456C10.3035 4.21532 9.98202 4.21537 9.63813 4.21543H6.36129Z" fill="white"/>
</svg>
