<svg width="16" height="16" viewBox="0 0 16 16" fill="none" xmlns="http://www.w3.org/2000/svg">
<path d="M6.46924 15.4609C6.95898 15.4609 7.34082 15.27 7.60645 14.8716L15.376 2.85205C15.5752 2.55322 15.6499 2.2876 15.6499 2.03027C15.6499 1.37451 15.1685 0.901367 14.4961 0.901367C14.0312 0.901367 13.749 1.06738 13.4668 1.51562L6.43604 12.6553L2.8335 8.08984C2.55957 7.74951 2.27734 7.6001 1.87061 7.6001C1.18994 7.6001 0.700195 8.08154 0.700195 8.74561C0.700195 9.03613 0.799805 9.31006 1.04053 9.60059L5.34033 14.8965C5.65576 15.2866 6.00439 15.4609 6.46924 15.4609Z" fill="white"/>
</svg>
