<svg width="36" height="36" viewBox="0 0 36 36" fill="none" xmlns="http://www.w3.org/2000/svg">
<rect opacity="0.5" x="0.921875" y="0.525757" width="35" height="35" rx="17.5" fill="white"/>
<path opacity="0.5" d="M10.2783 21.1016C9.48501 20.071 9.08838 19.5557 9.08838 18.0256C9.08838 16.4955 9.48501 15.9803 10.2783 14.9497C11.8622 12.8919 14.5186 10.559 18.4217 10.559C22.3248 10.559 24.9812 12.8919 26.5651 14.9497C27.3584 15.9803 27.755 16.4955 27.755 18.0256C27.755 19.5557 27.3584 20.071 26.5651 21.1016C24.9812 23.1594 22.3248 25.4923 18.4217 25.4923C14.5186 25.4923 11.8622 23.1594 10.2783 21.1016Z" stroke="#1C274C" stroke-width="1.5"/>
<path d="M21.2221 18.0257C21.2221 19.5721 19.9685 20.8257 18.4221 20.8257C16.8757 20.8257 15.6221 19.5721 15.6221 18.0257C15.6221 16.4793 16.8757 15.2257 18.4221 15.2257C19.9685 15.2257 21.2221 16.4793 21.2221 18.0257Z" stroke="#1C274C" stroke-width="1.5"/>
</svg>
