<svg width="299" height="203" viewBox="0 0 299 203" fill="none" xmlns="http://www.w3.org/2000/svg">
<path d="M282.407 202.02C283.105 194.507 285.031 187.159 288.11 180.27C288.968 178.353 289.913 176.479 290.944 174.646C290.996 174.55 291.008 174.438 290.979 174.333C290.949 174.228 290.88 174.139 290.786 174.084C290.692 174.029 290.58 174.013 290.475 174.039C290.369 174.064 290.277 174.13 290.219 174.222C286.47 180.897 283.844 188.143 282.445 195.67C282.056 197.771 281.763 199.888 281.568 202.02C281.518 202.557 282.357 202.554 282.407 202.02Z" fill="#F2F2F2"/>
<path d="M292.977 175.99C295.913 175.99 298.293 173.61 298.293 170.674C298.293 167.738 295.913 165.358 292.977 165.358C290.041 165.358 287.661 167.738 287.661 170.674C287.661 173.61 290.041 175.99 292.977 175.99Z" fill="#F2F2F2"/>
<path d="M282.951 202.16C283.403 197.286 284.653 192.52 286.651 188.051C287.207 186.807 287.82 185.591 288.489 184.402C288.523 184.34 288.531 184.267 288.512 184.199C288.493 184.131 288.448 184.073 288.387 184.037C288.326 184.001 288.253 183.991 288.185 184.008C288.116 184.024 288.056 184.067 288.019 184.127C285.587 188.457 283.883 193.158 282.975 198.041C282.723 199.404 282.533 200.778 282.406 202.16C282.374 202.509 282.919 202.507 282.951 202.16Z" fill="#F2F2F2"/>
<path d="M289.811 185.275C291.716 185.275 293.26 183.731 293.26 181.826C293.26 179.922 291.716 178.378 289.811 178.378C287.906 178.378 286.362 179.922 286.362 181.826C286.362 183.731 287.906 185.275 289.811 185.275Z" fill="#F2F2F2"/>
<path d="M282.264 201.834C279.623 197.713 277.677 193.185 276.503 188.433C276.177 187.11 275.913 185.774 275.709 184.425C275.697 184.356 275.658 184.293 275.602 184.252C275.545 184.21 275.474 184.192 275.404 184.201C275.334 184.21 275.27 184.247 275.226 184.302C275.182 184.357 275.162 184.428 275.169 184.498C275.915 189.408 277.462 194.162 279.75 198.571C280.39 199.801 281.085 201.001 281.835 202.169C282.024 202.464 282.452 202.127 282.264 201.834Z" fill="#F2F2F2"/>
<path d="M275.164 185.033C277.069 185.033 278.613 183.489 278.613 181.584C278.613 179.68 277.069 178.136 275.164 178.136C273.259 178.136 271.715 179.68 271.715 181.584C271.715 183.489 273.259 185.033 275.164 185.033Z" fill="#F2F2F2"/>
<path d="M59.7763 202.021C59.0786 194.508 57.1519 187.16 54.0729 180.271C53.2147 178.354 52.2702 176.48 51.2393 174.647C51.1876 174.551 51.1752 174.439 51.2046 174.334C51.234 174.229 51.303 174.14 51.397 174.085C51.491 174.03 51.6027 174.014 51.7085 174.04C51.8143 174.065 51.906 174.131 51.9641 174.223C55.713 180.898 58.3394 188.144 59.7383 195.671C60.1274 197.772 60.4198 199.889 60.6156 202.021C60.6654 202.558 59.8257 202.555 59.7763 202.021Z" fill="#F2F2F2"/>
<path d="M49.2071 175.992C52.143 175.992 54.523 173.612 54.523 170.676C54.523 167.74 52.143 165.36 49.2071 165.36C46.2711 165.36 43.8911 167.74 43.8911 170.676C43.8911 173.612 46.2711 175.992 49.2071 175.992Z" fill="#F2F2F2"/>
<path d="M59.2322 202.16C58.7796 197.286 57.5297 192.519 55.5322 188.05C54.9755 186.807 54.3627 185.59 53.6939 184.402C53.6603 184.339 53.6522 184.267 53.6712 184.198C53.6903 184.13 53.7351 184.072 53.7961 184.037C53.8571 184.001 53.9296 183.991 53.9983 184.007C54.067 184.024 54.1264 184.067 54.1641 184.127C56.5962 188.457 58.3001 193.158 59.2076 198.04C59.46 199.404 59.6497 200.777 59.7768 202.16C59.809 202.509 59.2643 202.507 59.2322 202.16Z" fill="#F2F2F2"/>
<path d="M52.3735 185.275C54.2782 185.275 55.8222 183.731 55.8222 181.826C55.8222 179.922 54.2782 178.378 52.3735 178.378C50.4688 178.378 48.9248 179.922 48.9248 181.826C48.9248 183.731 50.4688 185.275 52.3735 185.275Z" fill="#F2F2F2"/>
<path d="M59.9245 201.834C62.5656 197.713 64.5118 193.185 65.6855 188.433C66.0114 187.11 66.2764 185.774 66.4803 184.425C66.4921 184.356 66.5305 184.293 66.5874 184.252C66.6442 184.21 66.7152 184.192 66.7852 184.201C66.8552 184.21 66.9189 184.247 66.9627 184.302C67.0065 184.357 67.0271 184.428 67.0201 184.498C66.2744 189.408 64.7267 194.162 62.4389 198.571C61.7993 199.801 61.1043 201.001 60.3539 202.169C60.1648 202.464 59.7367 202.127 59.9245 201.834Z" fill="#F2F2F2"/>
<path d="M67.0229 185.033C68.9276 185.033 70.4716 183.489 70.4716 181.584C70.4716 179.679 68.9276 178.135 67.0229 178.135C65.1183 178.135 63.5742 179.679 63.5742 181.584C63.5742 183.489 65.1183 185.033 67.0229 185.033Z" fill="#F2F2F2"/>
<path d="M262.43 132.524L262.513 195.026C262.513 196.186 262.054 197.299 261.234 198.121C260.415 198.943 259.303 199.406 258.143 199.409L232.18 199.447C239.489 185.775 243.627 164.254 243.603 147.666C243.596 141.12 242.931 134.591 241.618 128.178L258.047 128.154C259.207 128.153 260.321 128.613 261.142 129.432C261.964 130.252 262.427 131.363 262.43 132.524Z" fill="#5F9CE3"/>
<path d="M298.223 202.813H42.0238C41.9144 202.813 41.8096 202.769 41.7324 202.692C41.6552 202.614 41.6118 202.509 41.6118 202.4C41.6118 202.291 41.6552 202.186 41.7324 202.108C41.8096 202.031 41.9144 201.987 42.0238 201.987H298.223C298.333 201.987 298.438 202.03 298.515 202.108C298.593 202.185 298.636 202.29 298.636 202.4C298.636 202.51 298.593 202.615 298.515 202.692C298.438 202.77 298.333 202.813 298.223 202.813Z" fill="#3F3D56"/>
<path d="M224.38 123.981L178.11 123.8L182.609 108.831C182.968 107.655 183.694 106.624 184.681 105.891C185.668 105.157 186.864 104.758 188.093 104.753H188.115L214.525 104.857C215.758 104.867 216.956 105.273 217.941 106.015C218.927 106.756 219.648 107.795 219.999 108.977L224.38 123.981Z" fill="#3F3D56"/>
<path d="M250.21 118.858C248.922 118.858 247.686 119.37 246.775 120.281C245.864 121.192 245.352 122.428 245.352 123.716H255.068C255.068 122.428 254.557 121.192 253.646 120.281C252.734 119.37 251.499 118.858 250.21 118.858Z" fill="#5F9CE3"/>
<path d="M265.133 202.489H137.431C135.867 202.487 134.368 201.865 133.262 200.759C132.156 199.653 131.534 198.154 131.532 196.59V129.269C131.534 127.705 132.156 126.205 133.262 125.099C134.368 123.993 135.867 123.371 137.431 123.37H265.133C266.697 123.371 268.197 123.993 269.302 125.099C270.408 126.205 271.031 127.705 271.032 129.269V196.59C271.031 198.154 270.408 199.653 269.302 200.759C268.197 201.865 266.697 202.487 265.133 202.489ZM137.431 124.064C136.051 124.065 134.728 124.614 133.753 125.59C132.777 126.566 132.228 127.889 132.226 129.269V196.59C132.228 197.97 132.777 199.293 133.753 200.269C134.728 201.244 136.051 201.793 137.431 201.795H265.133C266.513 201.793 267.836 201.244 268.812 200.269C269.788 199.293 270.337 197.97 270.338 196.59V129.269C270.337 127.889 269.788 126.566 268.812 125.59C267.836 124.614 266.513 124.065 265.133 124.064H137.431Z" fill="#3F3D56"/>
<path d="M206.839 118.338H195.735C194.952 118.338 194.202 118.028 193.649 117.475C193.096 116.921 192.785 116.171 192.785 115.389C192.785 114.607 193.096 113.856 193.649 113.303C194.202 112.75 194.952 112.439 195.735 112.439H206.839C207.622 112.439 208.372 112.75 208.925 113.303C209.478 113.856 209.789 114.607 209.789 115.389C209.789 116.171 209.478 116.921 208.925 117.475C208.372 118.028 207.622 118.338 206.839 118.338Z" fill="white"/>
<path d="M201.283 189.305C196.067 189.305 190.968 187.758 186.631 184.86C182.294 181.963 178.913 177.844 176.917 173.025C174.921 168.205 174.399 162.903 175.416 157.787C176.434 152.671 178.946 147.972 182.634 144.283C186.323 140.595 191.022 138.083 196.138 137.066C201.254 136.048 206.556 136.57 211.375 138.566C216.194 140.563 220.313 143.943 223.211 148.28C226.109 152.617 227.656 157.716 227.656 162.932C227.648 169.924 224.867 176.628 219.923 181.572C214.979 186.516 208.275 189.297 201.283 189.305ZM201.283 137.253C196.204 137.253 191.239 138.759 187.016 141.581C182.793 144.402 179.502 148.413 177.558 153.105C175.615 157.797 175.106 162.96 176.097 167.942C177.088 172.923 179.534 177.499 183.125 181.09C186.716 184.681 191.292 187.127 196.273 188.118C201.254 189.108 206.418 188.6 211.11 186.656C215.802 184.713 219.813 181.421 222.634 177.199C225.456 172.976 226.962 168.011 226.962 162.932C226.954 156.124 224.246 149.597 219.432 144.783C214.618 139.969 208.091 137.261 201.283 137.253Z" fill="#3F3D56"/>
<path d="M201.284 180.282C197.853 180.282 194.498 179.264 191.645 177.358C188.791 175.451 186.568 172.741 185.254 169.571C183.941 166.4 183.598 162.912 184.267 159.546C184.936 156.18 186.589 153.089 189.016 150.662C191.442 148.236 194.534 146.583 197.899 145.914C201.265 145.244 204.754 145.588 207.924 146.901C211.095 148.214 213.804 150.438 215.711 153.292C217.618 156.145 218.635 159.499 218.635 162.931C218.63 167.531 216.8 171.941 213.547 175.194C210.295 178.447 205.884 180.277 201.284 180.282ZM201.284 146.274C197.99 146.274 194.77 147.251 192.03 149.082C189.291 150.912 187.156 153.513 185.896 156.557C184.635 159.6 184.305 162.95 184.948 166.181C185.59 169.412 187.177 172.38 189.506 174.709C191.836 177.039 194.804 178.625 198.035 179.268C201.266 179.91 204.615 179.581 207.659 178.32C210.702 177.059 213.304 174.924 215.134 172.185C216.964 169.446 217.941 166.225 217.941 162.931C217.936 158.515 216.18 154.281 213.057 151.159C209.934 148.036 205.7 146.279 201.284 146.274Z" fill="#3F3D56"/>
<path d="M201.284 176.118C208.566 176.118 214.47 170.215 214.47 162.932C214.47 155.649 208.566 149.745 201.284 149.745C194.001 149.745 188.097 155.649 188.097 162.932C188.097 170.215 194.001 176.118 201.284 176.118Z" fill="#CCCCCC"/>
<path d="M193.3 162.931C193.3 160.841 194.055 158.821 195.426 157.243C196.796 155.665 198.691 154.635 200.761 154.343C199.53 154.168 198.277 154.259 197.085 154.61C195.894 154.962 194.791 155.565 193.853 156.379C192.915 157.194 192.162 158.2 191.646 159.331C191.131 160.461 190.864 161.689 190.864 162.931C190.864 164.174 191.131 165.402 191.646 166.532C192.162 167.663 192.915 168.669 193.853 169.483C194.791 170.298 195.894 170.901 197.085 171.253C198.277 171.604 199.53 171.695 200.761 171.52C198.691 171.228 196.796 170.198 195.426 168.62C194.055 167.042 193.3 165.022 193.3 162.931Z" fill="white"/>
<path d="M258.887 124.064H241.536V123.717C241.536 121.417 242.45 119.21 244.077 117.583C245.704 115.956 247.911 115.042 250.212 115.042C252.512 115.042 254.719 115.956 256.346 117.583C257.973 119.21 258.887 121.417 258.887 123.717V124.064ZM242.238 123.37H258.185C258.096 121.316 257.217 119.375 255.731 117.952C254.245 116.53 252.268 115.736 250.211 115.736C248.155 115.736 246.178 116.53 244.692 117.952C243.206 119.375 242.327 121.316 242.238 123.37Z" fill="#3F3D56"/>
<path d="M140.206 133.781C139.52 133.781 138.849 133.578 138.278 133.197C137.707 132.815 137.263 132.273 137 131.639C136.737 131.005 136.669 130.307 136.803 129.634C136.936 128.961 137.267 128.343 137.752 127.857C138.238 127.372 138.856 127.042 139.529 126.908C140.202 126.774 140.9 126.843 141.534 127.105C142.168 127.368 142.71 127.813 143.091 128.383C143.473 128.954 143.676 129.625 143.676 130.311C143.675 131.231 143.309 132.113 142.659 132.764C142.008 133.414 141.126 133.78 140.206 133.781ZM140.206 127.535C139.657 127.535 139.12 127.698 138.664 128.003C138.207 128.308 137.851 128.742 137.641 129.249C137.431 129.756 137.376 130.314 137.483 130.853C137.59 131.391 137.855 131.886 138.243 132.274C138.631 132.662 139.126 132.927 139.664 133.034C140.203 133.141 140.761 133.086 141.268 132.876C141.776 132.666 142.209 132.31 142.514 131.854C142.819 131.397 142.982 130.86 142.982 130.311C142.981 129.575 142.689 128.87 142.168 128.349C141.648 127.829 140.942 127.536 140.206 127.535Z" fill="#3F3D56"/>
<path d="M140.209 132.048C141.167 132.048 141.944 131.271 141.944 130.313C141.944 129.354 141.167 128.578 140.209 128.578C139.251 128.578 138.474 129.354 138.474 130.313C138.474 131.271 139.251 132.048 140.209 132.048Z" fill="#5F9CE3"/>
<path d="M149.231 132.048C150.189 132.048 150.966 131.271 150.966 130.313C150.966 129.354 150.189 128.578 149.231 128.578C148.272 128.578 147.496 129.354 147.496 130.313C147.496 131.271 148.272 132.048 149.231 132.048Z" fill="#CCCCCC"/>
<path d="M158.253 132.048C159.211 132.048 159.988 131.271 159.988 130.313C159.988 129.354 159.211 128.578 158.253 128.578C157.294 128.578 156.518 129.354 156.518 130.313C156.518 131.271 157.294 132.048 158.253 132.048Z" fill="#CCCCCC"/>
<path d="M149.229 133.781C148.543 133.781 147.872 133.578 147.301 133.197C146.73 132.815 146.286 132.273 146.023 131.639C145.76 131.005 145.692 130.307 145.825 129.634C145.959 128.961 146.29 128.343 146.775 127.857C147.26 127.372 147.879 127.042 148.552 126.908C149.225 126.774 149.923 126.843 150.557 127.105C151.191 127.368 151.733 127.813 152.114 128.383C152.496 128.954 152.699 129.625 152.699 130.311C152.698 131.231 152.332 132.113 151.682 132.764C151.031 133.414 150.149 133.78 149.229 133.781ZM149.229 127.535C148.68 127.535 148.143 127.698 147.687 128.003C147.23 128.308 146.874 128.742 146.664 129.249C146.454 129.756 146.399 130.314 146.506 130.853C146.613 131.391 146.878 131.886 147.266 132.274C147.654 132.662 148.149 132.927 148.687 133.034C149.226 133.141 149.784 133.086 150.291 132.876C150.799 132.666 151.232 132.31 151.537 131.854C151.842 131.397 152.005 130.86 152.005 130.311C152.004 129.575 151.711 128.87 151.191 128.349C150.671 127.829 149.965 127.536 149.229 127.535Z" fill="#3F3D56"/>
<path d="M158.251 133.781C157.565 133.781 156.894 133.578 156.323 133.197C155.753 132.815 155.308 132.273 155.045 131.639C154.783 131.005 154.714 130.307 154.848 129.634C154.982 128.961 155.312 128.343 155.798 127.857C156.283 127.372 156.901 127.042 157.574 126.908C158.248 126.774 158.945 126.843 159.579 127.105C160.213 127.368 160.755 127.813 161.137 128.383C161.518 128.954 161.722 129.625 161.722 130.311C161.721 131.231 161.355 132.113 160.704 132.764C160.053 133.414 159.171 133.78 158.251 133.781ZM158.251 127.535C157.702 127.535 157.166 127.698 156.709 128.003C156.253 128.308 155.897 128.742 155.687 129.249C155.476 129.756 155.422 130.314 155.529 130.853C155.636 131.391 155.9 131.886 156.288 132.274C156.677 132.662 157.171 132.927 157.71 133.034C158.248 133.141 158.807 133.086 159.314 132.876C159.821 132.666 160.255 132.31 160.56 131.854C160.865 131.397 161.028 130.86 161.028 130.311C161.027 129.575 160.734 128.87 160.213 128.349C159.693 127.829 158.987 127.536 158.251 127.535Z" fill="#3F3D56"/>
<path d="M176.99 153.516H131.878V154.21H176.99V153.516Z" fill="#3F3D56"/>
<path d="M175.87 167.484H131.878V168.178H175.87V167.484Z" fill="#3F3D56"/>
<path d="M270.692 153.517H225.58V154.211H270.692V153.517Z" fill="#3F3D56"/>
<path d="M270.606 167.484H226.614V168.178H270.606V167.484Z" fill="#3F3D56"/>
<path d="M95.3099 85.0193C92.4958 83.7265 90.646 80.0303 90.7513 76.3851C90.8567 72.7399 92.775 69.3307 95.4207 67.5924C96.7105 66.7659 98.1854 66.2728 99.713 66.1574C101.241 66.042 102.773 66.3078 104.172 66.9311C107.012 68.1397 110.824 68.469 112.531 71.4731C113.842 73.7818 113.37 78.9321 112.441 81.4992C111.639 83.718 109.676 84.9682 107.762 85.6678C105.644 86.4352 103.386 86.7387 101.14 86.5578C98.8943 86.3769 96.7136 85.7158 94.7455 84.6192" fill="#2F2E41"/>
<path d="M78.1547 198.226L74.1089 196.909L77.2601 180.678L83.2312 182.621L78.1547 198.226Z" fill="#FFB8B8"/>
<path d="M71.5942 194.813L79.3964 197.352L77.7983 202.264L65.0835 198.128C65.2933 197.483 65.6282 196.885 66.069 196.369C66.5098 195.854 67.0478 195.43 67.6524 195.122C68.257 194.814 68.9162 194.629 69.5926 194.576C70.2689 194.523 70.949 194.603 71.5942 194.813Z" fill="#2F2E41"/>
<path d="M114.369 198.313L110.114 198.312L108.09 181.903L114.369 181.903L114.369 198.313Z" fill="#FFB8B8"/>
<path d="M107.077 197.095H115.281V202.261H101.911C101.911 201.583 102.044 200.911 102.304 200.284C102.563 199.657 102.944 199.088 103.424 198.608C103.903 198.129 104.473 197.748 105.1 197.488C105.726 197.229 106.398 197.095 107.077 197.095Z" fill="#2F2E41"/>
<path d="M114.155 191.598C114.129 191.598 114.103 191.597 114.078 191.596L109.363 191.371C108.966 191.352 108.592 191.182 108.315 190.896C108.039 190.611 107.882 190.23 107.876 189.833L107.237 143.198C107.236 143.082 107.195 142.97 107.123 142.88C107.051 142.789 106.951 142.726 106.838 142.699C106.726 142.672 106.608 142.683 106.502 142.731C106.397 142.778 106.31 142.86 106.256 142.962L81.2856 190.309C81.1307 190.605 80.8841 190.844 80.5826 190.989C80.2811 191.134 79.9408 191.178 79.6123 191.114L74.9203 190.221C74.6993 190.179 74.49 190.089 74.3068 189.959C74.1235 189.828 73.9706 189.66 73.8585 189.465C73.7464 189.27 73.6778 189.053 73.6574 188.829C73.6369 188.605 73.6651 188.379 73.74 188.167L91.934 136.617L93.334 121.368C93.3651 121.013 93.518 120.679 93.7668 120.423C94.0157 120.167 94.3452 120.004 94.6998 119.963C100.001 119.312 107.409 114.968 110.348 113.131C110.528 113.017 110.73 112.942 110.941 112.91C111.152 112.878 111.367 112.891 111.573 112.946C111.781 113.002 111.975 113.1 112.144 113.234C112.313 113.368 112.453 113.535 112.555 113.725C119.634 126.881 122.342 141.949 120.285 156.747L115.699 190.248C115.65 190.622 115.466 190.966 115.181 191.214C114.897 191.463 114.532 191.599 114.155 191.598Z" fill="#2F2E41"/>
<path d="M101.469 88.5974C106.176 88.5974 109.992 84.7815 109.992 80.0743C109.992 75.3672 106.176 71.5513 101.469 71.5513C96.7622 71.5513 92.9463 75.3672 92.9463 80.0743C92.9463 84.7815 96.7622 88.5974 101.469 88.5974Z" fill="#FFB8B8"/>
<path d="M92.9749 125.032L90.4085 106.694C89.7837 103.907 90.2908 100.987 91.8184 98.5743C93.3459 96.1616 95.7688 94.4541 98.5547 93.827C101.341 93.1999 104.262 93.7045 106.676 95.23C109.09 96.7556 110.799 99.1771 111.428 101.962C112.159 105.352 113.644 109.479 113.102 113.927C109.301 124.476 102.401 127.729 92.9749 125.032Z" fill="#B3B3B3"/>
<path d="M104.251 96.5788H98.0044C97.5904 96.5783 97.1935 96.4136 96.9008 96.1209C96.608 95.8281 96.4433 95.4312 96.4429 95.0172V92.9351C96.4433 92.5211 96.608 92.1242 96.9008 91.8314C97.1935 91.5387 97.5904 91.374 98.0044 91.3735H104.251C104.665 91.374 105.062 91.5387 105.354 91.8314C105.647 92.1242 105.812 92.5211 105.812 92.9351V95.0172C105.812 95.4312 105.647 95.8281 105.354 96.1209C105.062 96.4136 104.665 96.5783 104.251 96.5788Z" fill="#B3B3B3"/>
<path d="M135.906 131.238C136.075 130.72 136.129 130.171 136.063 129.63C135.998 129.089 135.814 128.569 135.526 128.107C135.238 127.644 134.852 127.251 134.395 126.953C133.938 126.656 133.421 126.463 132.882 126.387L113.439 98.5518L107.673 104.251L128.598 129.821C128.531 130.736 128.801 131.644 129.359 132.373C129.916 133.101 130.721 133.6 131.622 133.775C132.523 133.95 133.457 133.788 134.246 133.32C135.036 132.853 135.626 132.112 135.906 131.238Z" fill="#FFB8B8"/>
<path d="M119.525 107.066L112.504 111.754C112.304 111.887 112.078 111.976 111.841 112.014C111.603 112.052 111.361 112.038 111.129 111.974C110.898 111.91 110.683 111.797 110.499 111.642C110.315 111.487 110.167 111.295 110.065 111.078L106.468 103.468C105.792 102.442 105.55 101.19 105.796 99.9865C106.042 98.7827 106.754 97.7254 107.778 97.0462C108.802 96.367 110.053 96.1215 111.258 96.3633C112.463 96.6051 113.522 97.3147 114.205 98.3364L119.836 104.555C119.997 104.733 120.118 104.943 120.191 105.172C120.263 105.401 120.285 105.643 120.256 105.882C120.226 106.12 120.146 106.349 120.02 106.554C119.894 106.758 119.725 106.933 119.525 107.066Z" fill="#B3B3B3"/>
<path d="M67.2218 93.8338C67.2644 94.021 67.2921 94.2113 67.3048 94.4029L82.2117 103.003L85.835 100.917L89.6977 105.974L83.6422 110.29C83.153 110.638 82.5639 110.819 81.9633 110.804C81.3627 110.79 80.7831 110.581 80.3115 110.208L64.9399 98.0817C64.2462 98.3385 63.4907 98.378 62.774 98.195C62.0573 98.0119 61.4133 97.615 60.9277 97.0571C60.442 96.4991 60.1378 95.8065 60.0554 95.0714C59.973 94.3362 60.1163 93.5935 60.4664 92.9418C60.8164 92.2902 61.3566 91.7605 62.015 91.4234C62.6734 91.0862 63.4189 90.9575 64.1522 91.0543C64.8856 91.1511 65.572 91.4689 66.1204 91.9654C66.6687 92.4619 67.0529 93.1136 67.2218 93.8338Z" fill="#FFB8B8"/>
<path d="M86.5437 109.255L82.798 101.689C82.6915 101.474 82.6325 101.238 82.6253 100.998C82.618 100.758 82.6626 100.519 82.7559 100.298C82.8493 100.076 82.9893 99.8777 83.1663 99.7153C83.3433 99.553 83.5533 99.4307 83.7818 99.3568L91.7904 96.7682C92.8949 96.2292 94.168 96.1501 95.3306 96.5483C96.4933 96.9466 97.4506 97.7896 97.9927 98.8925C98.5347 99.9955 98.6173 101.268 98.2222 102.432C97.8272 103.596 96.9868 104.556 95.8853 105.101L88.9947 109.886C88.7974 110.023 88.5728 110.116 88.3364 110.158C88.1 110.201 87.8572 110.191 87.6246 110.132C87.392 110.072 87.175 109.962 86.9885 109.811C86.802 109.66 86.6503 109.47 86.5437 109.255Z" fill="#B3B3B3"/>
<path d="M107.186 69.3435C107.493 69.3883 107.806 69.3306 108.076 69.1795C108.347 69.0283 108.561 68.7921 108.684 68.5074C108.797 68.2189 108.844 67.9083 108.819 67.5992C108.794 67.2902 108.698 66.991 108.539 66.7245C108.217 66.1936 107.766 65.7518 107.229 65.4394C106.611 65.026 105.895 64.78 105.154 64.7253C104.783 64.701 104.412 64.7566 104.065 64.8883C103.718 65.0199 103.404 65.2246 103.143 65.4885C102.888 65.7588 102.72 66.099 102.66 66.4655C102.6 66.8319 102.651 67.2079 102.806 67.5454C103.117 68.1464 103.771 68.4834 104.408 68.7123C105.672 69.165 107.019 69.3419 108.357 69.2308" fill="#2F2E41"/>
<path d="M109.909 83.9565C108.42 84.0265 108.676 80.8655 108.21 79.449C107.744 78.0324 107.101 76.3427 105.635 76.0711C104.433 75.8486 103.347 76.7273 102.3 77.3581C100.435 78.4824 98.0195 78.8972 96.0605 77.9447C94.1014 76.9923 92.9101 74.4475 93.8628 72.4887C94.153 71.9502 94.5506 71.4771 95.0311 71.0985C95.5115 70.72 96.0646 70.4442 96.656 70.2881C97.8417 69.9834 99.0771 69.924 100.287 70.1137C102.985 70.4445 105.577 71.3634 107.881 72.8056C109.471 73.8028 110.984 75.1606 111.457 76.9767C111.931 78.7929 112.124 83.7315 110.273 84.0441L109.909 83.9565Z" fill="#2F2E41"/>
<path d="M106.013 64.9474C104.888 63.5209 105.311 61.2733 106.623 60.0159C107.934 58.7585 109.885 58.3666 111.695 58.5265C113.488 58.7072 115.202 59.3561 116.665 60.4082C118.128 61.4604 119.289 62.8788 120.031 64.5212C121.175 67.1374 121.166 70.1299 122.2 72.7913C122.751 74.21 123.587 75.5009 124.656 76.5843C125.725 77.6677 127.005 78.5209 128.416 79.0912C129.827 79.6614 131.34 79.9368 132.862 79.9003C134.384 79.8638 135.882 79.5162 137.264 78.8789C139.064 78.0488 140.779 76.4233 140.676 74.4435C141.814 78.8319 139.764 83.8518 135.879 86.1889C133.604 87.5578 130.909 88.0225 128.273 88.3423C126.555 88.5507 124.789 88.7058 123.112 88.2764C120.767 87.6758 118.803 85.9446 117.614 83.8355C116.425 81.7264 115.957 79.2686 115.939 76.8474C115.925 74.9613 116.172 73.0741 116.041 71.1925C115.911 69.3108 115.345 67.3645 113.981 66.0617C112.617 64.7589 110.315 64.3302 108.818 65.4777C108.217 65.9389 107.776 66.6123 107.099 66.9525C106.421 67.2928 105.351 67.0282 105.306 66.2715L106.013 64.9474Z" fill="#2F2E41"/>
<path d="M73.3577 93.8969H3.06028C2.41761 93.8961 1.80148 93.6405 1.34704 93.1861C0.892605 92.7316 0.636976 92.1155 0.63623 91.4728V51.8801C0.636977 51.2374 0.892606 50.6213 1.34704 50.1669C1.80148 49.7124 2.41761 49.4568 3.06028 49.4561H73.3577C74.0003 49.4568 74.6165 49.7124 75.0709 50.1668C75.5253 50.6213 75.781 51.2374 75.7817 51.8801V91.4728C75.781 92.1155 75.5253 92.7316 75.0709 93.1861C74.6165 93.6405 74.0003 93.8961 73.3577 93.8969ZM3.06028 49.9947C2.56042 49.9953 2.08119 50.1941 1.72774 50.5476C1.37428 50.901 1.17547 51.3802 1.1749 51.8801V91.4728C1.17547 91.9727 1.37428 92.4519 1.72774 92.8054C2.08119 93.1588 2.56042 93.3576 3.06028 93.3582H73.3577C73.8575 93.3576 74.3367 93.1588 74.6902 92.8053C75.0436 92.4519 75.2424 91.9727 75.243 91.4728V51.8801C75.2424 51.3802 75.0436 50.901 74.6902 50.5476C74.3367 50.1941 73.8575 49.9953 73.3577 49.9947H3.06028Z" fill="#3F3D56"/>
<path d="M26.2293 77.2489C31.7809 77.2489 36.2814 72.7484 36.2814 67.1968C36.2814 61.6452 31.7809 57.1448 26.2293 57.1448C20.6777 57.1448 16.1772 61.6452 16.1772 67.1968C16.1772 72.7484 20.6777 77.2489 26.2293 77.2489Z" fill="#FAD117"/>
<path d="M64.9696 84.9472L53.17 64.5097C53.0963 64.382 52.9902 64.2759 52.8624 64.2022C52.7347 64.1284 52.5898 64.0896 52.4423 64.0896C52.2948 64.0896 52.1499 64.1284 52.0222 64.2022C51.8944 64.2759 51.7883 64.382 51.7146 64.5097L44.5137 76.9821L33.7786 58.3883C33.684 58.2245 33.548 58.0885 33.3842 57.9939C33.2204 57.8994 33.0347 57.8496 32.8455 57.8496C32.6564 57.8496 32.4706 57.8994 32.3069 57.9939C32.1431 58.0885 32.0071 58.2245 31.9125 58.3883L16.784 84.5916C16.6894 84.7554 16.6396 84.9411 16.6396 85.1303C16.6396 85.3194 16.6894 85.5052 16.784 85.6689C16.8785 85.8327 17.0145 85.9687 17.1783 86.0633C17.3421 86.1578 17.5279 86.2076 17.717 86.2076H64.2419C64.3894 86.2076 64.5343 86.1688 64.662 86.095C64.7898 86.0213 64.8958 85.9152 64.9696 85.7875C65.0434 85.6597 65.0822 85.5148 65.0822 85.3673C65.0822 85.2198 65.0434 85.0749 64.9696 84.9472Z" fill="#5F9CE3"/>
<path d="M10.0667 54.3044H5.75732V58.6139H10.0667V54.3044Z" fill="#3F3D56"/>
<path d="M100.72 35.5984H45.792C45.2899 35.5979 44.8084 35.3981 44.4534 35.043C44.0983 34.688 43.8985 34.2065 43.8979 33.7044V2.76809C43.8985 2.26593 44.0983 1.78451 44.4534 1.42943C44.8084 1.07435 45.2899 0.874608 45.792 0.874023H100.72C101.222 0.874589 101.703 1.07433 102.058 1.42941C102.413 1.78449 102.613 2.26592 102.614 2.76809V33.7044C102.613 34.2065 102.413 34.688 102.058 35.043C101.703 35.3981 101.222 35.5979 100.72 35.5984ZM45.792 1.29493C45.4014 1.29536 45.027 1.45071 44.7508 1.72689C44.4746 2.00306 44.3193 2.37752 44.3189 2.76809V33.7044C44.3193 34.0949 44.4746 34.4694 44.7508 34.7456C45.027 35.0218 45.4014 35.1771 45.792 35.1775H100.72C101.11 35.1771 101.485 35.0217 101.761 34.7456C102.037 34.4694 102.192 34.0949 102.193 33.7044V2.76809C102.192 2.37752 102.037 2.00308 101.761 1.72691C101.485 1.45074 101.11 1.29538 100.72 1.29493H45.792Z" fill="#747688"/>
<path d="M63.8982 22.5904C68.2361 22.5904 71.7525 19.0739 71.7525 14.7361C71.7525 10.3983 68.2361 6.88184 63.8982 6.88184C59.5604 6.88184 56.0439 10.3983 56.0439 14.7361C56.0439 19.0739 59.5604 22.5904 63.8982 22.5904Z" fill="#F2F2F2"/>
<path d="M94.168 28.6054L84.9483 12.6363C84.8906 12.5365 84.8078 12.4536 84.7079 12.396C84.6081 12.3384 84.4949 12.308 84.3796 12.308C84.2644 12.308 84.1512 12.3384 84.0514 12.396C83.9515 12.4536 83.8687 12.5365 83.811 12.6363L78.1845 22.3817L69.7965 7.85326C69.7226 7.7253 69.6163 7.61903 69.4884 7.54515C69.3604 7.47127 69.2152 7.43237 69.0675 7.43237C68.9197 7.43237 68.7745 7.47127 68.6466 7.54515C68.5186 7.61903 68.4123 7.7253 68.3384 7.85326L56.5176 28.3276C56.4437 28.4555 56.4048 28.6007 56.4048 28.7485C56.4048 28.8962 56.4437 29.0414 56.5176 29.1694C56.5915 29.2973 56.6977 29.4036 56.8257 29.4775C56.9537 29.5514 57.0988 29.5903 57.2466 29.5903H93.5994C93.7147 29.5903 93.8279 29.5599 93.9277 29.5023C94.0275 29.4447 94.1104 29.3618 94.168 29.262C94.2256 29.1622 94.256 29.0489 94.256 28.9337C94.256 28.8184 94.2256 28.7052 94.168 28.6054Z" fill="#747688"/>
<path d="M51.2627 4.65991H47.8955V8.02713H51.2627V4.65991Z" fill="#747688"/>
</svg>
