<svg width="25" height="25" viewBox="0 0 25 25" fill="none" xmlns="http://www.w3.org/2000/svg">
<path d="M13.3334 5.58087L8.35557 10.0056C7.42499 10.8328 6.9597 11.2464 6.78823 11.7348C6.63765 12.1636 6.63765 12.631 6.78823 13.0599C6.9597 13.5483 7.42499 13.9619 8.35557 14.789L13.3334 19.2138C13.7557 19.5891 13.9669 19.7768 14.1462 19.7835C14.302 19.7894 14.4516 19.7222 14.5508 19.6019C14.6649 19.4634 14.6649 19.1809 14.6649 18.6158V15.8259C17.093 15.8259 19.6575 16.6057 21.5302 17.9901C22.5051 18.7108 22.9925 19.0712 23.1782 19.057C23.3592 19.0431 23.474 18.9724 23.5679 18.8171C23.6642 18.6577 23.5792 18.1598 23.409 17.164C22.304 10.6979 17.854 8.96875 14.6649 8.96875V6.1788C14.6649 5.61378 14.6649 5.33127 14.5508 5.19277C14.4516 5.07245 14.302 5.00526 14.1462 5.01109C13.9669 5.01781 13.7557 5.20549 13.3334 5.58087Z" fill="#1C274C"/>
<path fill-rule="evenodd" clip-rule="evenodd" d="M10.6762 4.38713C10.3943 4.08359 9.91977 4.06602 9.61624 4.34787L4.40003 9.19149C3.45309 10.0708 2.91504 11.3047 2.91504 12.5969C2.91504 13.9591 3.51272 15.2527 4.55003 16.1357L9.64045 20.4686C9.95587 20.7371 10.4292 20.699 10.6977 20.3836C10.9662 20.0682 10.9281 19.5948 10.6127 19.3263L5.52229 14.9934C4.8198 14.3955 4.41504 13.5194 4.41504 12.5969C4.41504 11.7218 4.77942 10.8862 5.42071 10.2907L10.6369 5.44706C10.9404 5.16521 10.958 4.69066 10.6762 4.38713Z" fill="white"/>
</svg>
