<svg width="23" height="23" viewBox="0 0 23 23" fill="none" xmlns="http://www.w3.org/2000/svg">
<path d="M0.47168 11.0249C0.47168 5.83945 0.47168 3.24673 2.08259 1.63581C3.6935 0.0249023 6.28623 0.0249023 11.4717 0.0249023C16.6571 0.0249023 19.2499 0.0249023 20.8608 1.63581C22.4717 3.24673 22.4717 5.83945 22.4717 11.0249C22.4717 16.2104 22.4717 18.8031 20.8608 20.414C19.2499 22.0249 16.6571 22.0249 11.4717 22.0249C6.28623 22.0249 3.6935 22.0249 2.08259 20.414C0.47168 18.8031 0.47168 16.2104 0.47168 11.0249Z" fill="#1C274C"/>
<path d="M2.08259 20.4136C3.6935 22.0245 6.28623 22.0245 11.4717 22.0245C16.6571 22.0245 19.2499 22.0245 20.8608 20.4136C22.3535 18.9209 22.463 16.5851 22.471 12.1245H18.9954C17.9997 12.1245 17.5019 12.1245 17.0642 12.3258C16.6266 12.5271 16.3027 12.905 15.6547 13.661L15.6547 13.661L14.9887 14.438L14.9887 14.438C14.3407 15.194 14.0167 15.572 13.5791 15.7732C13.1415 15.9745 12.6437 15.9745 11.648 15.9745H11.2954C10.2997 15.9745 9.80186 15.9745 9.36425 15.7732C8.92664 15.572 8.60265 15.194 7.95466 14.438L7.28869 13.661C6.64071 12.905 6.31672 12.5271 5.87911 12.3258C5.4415 12.1245 4.94365 12.1245 3.94797 12.1245H0.47168C0.479713 16.5851 0.589857 18.9209 2.08259 20.4136Z" fill="white"/>
</svg>
