<svg width="376" height="630" viewBox="0 0 376 630" fill="none" xmlns="http://www.w3.org/2000/svg">
<mask id="mask0_612_1560" style="mask-type:alpha" maskUnits="userSpaceOnUse" x="0" y="-1" width="376" height="631">
<rect x="0.881836" y="-0.0065918" width="375" height="630" fill="black"/>
</mask>
<g mask="url(#mask0_612_1560)">
<path opacity="0.3" d="M271.388 1054.6C272.232 1050.79 272.603 1048.94 273.251 1045.91C274.106 1041.96 274.611 1039.67 275.223 1037.26C275.784 1035.14 275.771 1029.7 274.136 1028.88C273.211 1026.96 274.537 1022.32 273.255 1022.16C273.051 1020.55 274.406 1015.38 273.824 1015.47C273.828 1014.85 274.957 1007.98 275.902 1006.68C276.467 1006.75 276.782 1002.13 280.295 998.932C281.822 995.248 284.184 995.667 286.885 991.515C289.29 988.88 292.858 987.156 294.491 983.772C295.506 980.05 294.991 978.53 294.383 975.379C296.015 973.987 294.165 971.481 293.343 969.144C293.426 967.027 295.608 965.342 293.659 962.746C294.81 958.407 293.107 952.922 296.095 948.629C294.312 945.68 295.146 943.382 296.685 941.329C298.219 939.273 300.878 937.566 301.495 935.489C299.397 931.75 305.715 930.117 306.052 926.999C309.183 924.562 310.535 921.668 309.414 918.073C309.913 915.294 310.421 912.806 309.356 910.107C308.844 907.542 307.875 905.039 306.566 902.512C299.68 896.416 295.503 891.217 299.494 887.336C298.897 883.427 297.949 878.632 300.158 874.575C301.837 870.386 306.591 866.913 305.364 862.702C306.364 860.402 311.662 859.433 308.509 856.372C311.798 854.886 309.448 851.992 310.63 849.631C312.111 847.835 312.406 845.748 311.981 843.485C313.08 841.594 311.86 839.138 313.364 837.348C316.014 833.583 314.024 828.613 316.403 824.706C315.741 820.054 318.285 816.18 319.06 811.927C322.919 808.43 317.143 802.633 319.996 799.063C320.039 795.719 317.911 792.269 318.207 788.945C316.739 785.545 319.549 783.232 319.693 780.224C320.051 776.993 319.344 773.362 320.398 770.135C319.539 766.44 320.594 763.189 322.622 760.267C324.65 757.846 323.627 754.756 326.33 752.546C327.359 749.927 329.486 747.543 329.313 744.452C331.841 741.609 333.298 739.174 332.705 735.631C332.521 731.327 331.719 727.459 333.837 723.794C335.305 720.541 334.173 716.029 336.207 712.897C339.17 708.737 340.258 707.491 344.978 704.974C348.49 702.816 349.416 699.883 350.702 696.874C351.485 693.743 353.992 690.87 352.931 686.941C353.713 683.466 357.057 680.399 355.392 676.384C356.025 672.436 359.215 669.786 362.148 666.704C365.145 663.8 366.009 659.754 366.54 655.561C367.873 651.564 368.972 647.45 368.785 643.516C367.26 639.092 370.586 635.911 370.266 631.874C371.287 628.164 371.816 624.369 370.761 620.195C372.106 616.772 373.417 614.471 371.885 610.378C371.448 607.678 369.103 604.867 370.081 602.459C368.776 599.313 370.528 597.243 368.895 594.295C369.015 591.776 369.117 589.201 369.084 586.162C369.563 582.763 371.957 579.303 371.084 575.683C373.135 572.232 366.722 571.38 363.935 568.418C361.803 565.625 360.197 565.225 362.018 562.053C366.333 559.559 360.831 554.665 364.254 551.953C364.05 549.125 364.267 546.401 366.007 544.05C368.457 541.871 368.692 539.152 367.76 536.145C369.034 533.327 368.061 530.086 369.886 527.561C370.504 524.742 373.069 522.427 373.39 519.499C377.306 518.057 375.402 515.686 378.426 514.573C383.119 513.869 381.677 511.713 384.009 510.089C384.392 508.751 384.543 507.23 386.983 506.454C389.747 505.253 390.981 504.214 392.546 503.796C393.088 503.755 396.166 504.334 394.564 503.768C397.933 501.756 393.33 497.644 394.725 495.626C393.625 493.071 396.647 491.252 395.462 488.21C394.888 484.444 394.158 480.61 397.689 477.853C397.641 475.199 400.058 473.931 400.602 472.341C399.054 470.239 405.175 470.148 405.413 468.107C411.922 465.413 413.7 461.141 414.025 456.3C416.997 452.107 417.74 447.156 418.435 442.194C418.972 437.195 424.891 433.511 421.263 427.707C420.944 425.778 423.391 422.114 423.278 419.961C422.595 417.883 423.456 417.251 427.065 416.208C425.967 413.97 430.353 412.914 428.834 410.388C429.434 408.378 427.844 405.805 430.69 404.419C431.4 399.201 432.66 394.067 436.074 389.417C437.799 384.353 436.619 378.533 439.489 373.663C438.303 368.752 440.926 364.773 442.406 360.512C442.989 356.033 444.251 351.72 445.323 347.361C449.76 343.825 447.702 338.699 448.24 334.21C447.468 331.748 451.218 330.371 449.787 327.73C449.016 325.251 447.763 322.652 451.18 321.22C448.65 318.432 450.89 316.919 451.377 314.963C451.635 312.949 452.88 311.167 452.367 308.818C451.859 306.386 456.015 305.355 456.622 303.545C459.307 302.247 460.536 300.682 461.928 299.078C463.003 296.905 466.156 295.386 468.162 293.553C470.996 291.169 473.628 287.932 476.221 285.166C473.883 283.761 478.398 282.335 479.946 281.469C481.783 278.313 480.778 276.583 479.5 273.304C477.99 269.889 480.966 266.771 481.001 263.454C481.834 260.397 480.659 255.372 483.604 252.921C487.607 254.084 488.331 246.784 488.469 244.141C489.402 241.472 487.617 238.858 488.58 236.02C490.57 233.214 491.428 230.114 490.718 226.645C493.585 224.127 492.33 220.441 492.46 217.099C493.409 213.956 495.317 211.057 494.828 207.747C496.78 205.999 495.415 203.587 498.09 202.174C497.131 199.871 500.204 198.568 501.623 196.738C501.814 194.478 504.214 192.556 504.677 190.186C502.43 187.154 506.256 185.634 508.22 183.915C508.017 181.607 510.31 181.804 513.027 180.833C513.395 179.869 514.961 177.405 515.935 176.277C515.535 173.913 517.256 171.806 517.771 169.389C518.733 167.083 517.409 164.203 518.964 162.262C516.099 158.807 522.116 157.523 520.732 154.43C517.11 150.788 520.869 148.952 522.449 146.586C525.741 144.768 526.353 142.63 524.699 139.945C523.901 137.469 525.748 135.647 525.495 132.99C524.298 129.556 523.53 126.161 525.869 123.473C527.518 120.615 527.941 117.406 528.084 114.087C530.768 111.74 530.181 108.977 531.13 106.618C534.046 104.739 532.131 101.702 534.537 99.3888C535.346 96.7614 536.332 94.0653 536.603 91.1881C536.919 88.3219 537.757 85.5766 538.192 82.8287C538.396 80.4454 540.646 77.3802 538.437 74.6291C539.34 73.2421 537.083 72.7508 536.474 71.221C534.845 68.2871 533.31 65.3586 534.093 62.8385C533.021 59.8649 534.816 57.435 535.127 54.3473C536.301 52.3679 535.793 49.9779 536.58 47.9041C540.815 46.6743 540.015 44.2112 538.004 41.4529C541.453 39.3066 537.899 35.2459 539.722 32.5901C538.237 29.1244 541.041 26.3408 543.578 24.7924C543.673 22.0588 546.623 21.8403 549.384 19.776C552.587 17.7817 551.468 16.4816 555.008 14.5274C556.673 10.5016 556.234 13.5771 556.488 7.73684C553.383 2.10646 552.959 1.46903 552.719 -3.0357C552.538 -6.20554 552.979 -6.47093 554.52 -12.1975C556.001 -13.856 558.201 -17.9457 557.923 -20.4797C559.736 -25.2967 560.492 -25.3147 561.358 -28.7379C561.685 -29.7671 562.368 -32.6467 560.721 -34.5563C559.912 -34.9702 559.489 -37.2705 558.782 -37.1856C557.801 -36.5329 559.816 -40.1764 558.746 -40.6463C556.807 -40.9003 554.592 -40.1284 552.502 -39.777C550.63 -40.4059 548.454 -39.5202 546.111 -37.3511C542.848 -38.7474 537.947 -38.0023 534.297 -39.5899C531.668 -41.7866 528.975 -42.0467 526.336 -42.4503C523.259 -40.8697 521.396 -44.6528 518.752 -46.3057C514.549 -50.6185 511.213 -50.0774 506.168 -49.1646C503.677 -47.3004 502.54 -47.7594 500.761 -47.7567C499.152 -50.2388 497.89 -45.251 495.021 -47.7513C491.448 -47.5416 489.046 -50.3087 486.082 -50.1813C483.687 -52.6186 481.001 -53.4087 478.051 -54.5973C474.393 -54.9844 471.331 -60.851 466.694 -60.6557C461.86 -59.5688 458.517 -66.232 453.324 -63.8334C447.974 -60.727 444.119 -63.6321 440.394 -64.6412C438.037 -66.1667 435.041 -65.5562 432.206 -65.7824C429.658 -67.2973 426.55 -66.3977 424.111 -67.9616C421.557 -69.634 417.89 -67.0612 415.539 -70.385C412.379 -70.0582 409.858 -72.58 406.902 -72.2768C402.68 -71.7015 399.43 -71.0089 395.398 -72.0147C391.073 -76.3671 385.137 -73.5821 380.343 -75.8527C375.559 -78.172 370.479 -79.046 365.166 -78.5458C363.24 -81.1217 360.065 -80.1164 356.974 -79.2048C353.462 -76.3982 351.116 -78.5654 348.929 -78.8355C346.612 -80.1236 343.859 -71.973 341.849 -75.4212C338.907 -73.9838 335.638 -75.8797 332.128 -76.9102C327.884 -74.6324 325 -78.697 322.464 -79.9515C320.666 -82.9165 317.626 -80.5393 315.397 -81.8144C312.632 -80.6684 310.488 -82.3127 308.27 -83.3429C304.114 -83.8178 300.544 -81.0515 297.197 -82.5547C294.47 -82.636 290.715 -77.7517 288.914 -82.0296C285.46 -78.8499 283.278 -81.7544 280.388 -82.4858C276.884 -81.6713 274.221 -84.2189 270.298 -81.1386C267.237 -81.9392 263.6 -80.2005 260.361 -80.8222C257.241 -77.0449 256.118 -82.4831 253.751 -82.2904C251.329 -81.8615 249.274 -83.069 247.244 -84.1616C244.681 -82.499 243.439 -88.6512 240.345 -86.3727C238.582 -90.0897 234.906 -85.1255 233.65 -89.0553C230.752 -90.9196 227.775 -88.3687 225.26 -94.4532C222.738 -97.9212 217.803 -95.8001 216.039 -98.1057C215.121 -102.372 209.723 -102.837 206.098 -101.14C203.905 -103.897 201.782 -105.321 196.471 -104.979C195.146 -108.263 191.955 -107.292 190.906 -109.193C189.839 -110.821 189.05 -115.374 186.506 -114.398C184.471 -119.887 183.193 -120.705 180.372 -122.464C176.383 -125.772 174.69 -125.865 172.448 -128.477C171.183 -132.296 170.185 -130.816 167.682 -132.167C165.721 -133.914 161.398 -134.907 159.648 -133.922C158.315 -130.458 159.12 -129.329 160.159 -128.208C161.674 -128.935 160.934 -124.611 161.796 -126.064C163.558 -126.983 162.114 -123.742 161.752 -121.816C161.848 -117.66 162.9 -118.049 164.366 -114.819C166.236 -109.151 164.491 -107.145 166.268 -107.709C166.567 -105.676 165.415 -102.042 162.834 -99.5606C161.433 -98.3252 159.229 -92.5777 158.653 -95.3649C159.304 -90.4104 156.312 -88.3588 155.279 -86.7925C154.98 -84.9748 153.26 -81.0811 153.527 -77.7399C150.673 -74.8759 152.638 -71.1232 150.971 -68.9593C151.583 -65.4902 146.082 -65.7858 148.335 -62.5365C146.611 -59.186 147.77 -57.3907 145.111 -54.8429C144.542 -53.5507 141.853 -52.5704 142.027 -52.4919C137.094 -50.8712 137.118 -48.8241 138.237 -45.1047C134.253 -42.2857 138.898 -37.4466 135.805 -34.5217C136.798 -30.598 134.694 -27.4506 132.474 -24.289C130.438 -22.4669 131.492 -19.4638 130.275 -17.4488C131.308 -14.3486 128.001 -12.3636 125.474 -10.1339C123.116 -7.98523 121.714 -5.80837 121.082 -3.12821C121.482 0.605301 117.793 3.53568 118.852 7.47264C119.911 12.3998 118.56 15.1778 119.657 19.5545C121.753 23.0133 120.888 26.406 122.898 29.9842C121.919 32.1745 121.172 34.609 121.879 37.3008C122.625 39.1776 122.446 41.0874 121.961 42.76C120.524 44.3985 121.862 46.9109 120.554 48.5771C119.159 50.7532 119.539 53.2678 119.682 55.7176C119.473 58.0801 118.88 60.3424 119.051 62.8682C119.436 67.0423 118.614 71.4336 115.812 75.2256C114.567 79.3986 112.648 83.2927 115.024 87.4926C117.337 92.1631 117.539 93.9984 115.78 98.2151C113.839 101.315 114.71 105.102 113.506 108.382C114.813 112.275 111.442 115.026 111.272 118.558C109.597 121.48 110.11 125.22 109.454 128.31C105.162 129.209 107.709 131.495 109.335 133.932C111.099 137.248 108.901 138.434 110.477 141.631C108.989 143.517 110.537 146.369 110.347 148.579C113 152.119 112.75 154.348 112.168 157.207C111.449 159.361 112.36 162.263 110.775 164.571C109.762 167.019 107.643 169.21 108.761 171.869C105.963 175.185 108.566 179.821 106.237 183.252C106.117 187.222 103.865 190.673 103.712 194.634C104.708 197.551 102.992 199.805 102.014 202.238C101.349 204.834 100.373 209.477 99.3754 211.785C95.3364 213.623 95.4295 211.983 92.5704 215.666C92.5268 216.968 92.9862 218.821 92.2132 219.949C93.1851 222.722 94.1865 225.456 93.7517 227.827C94.178 230.408 93.9949 232.833 95.4646 235.687C94.6547 237.381 96.1642 240.108 95.6231 242.359C95.4805 244.706 95.5702 247.132 94.8139 248.932C93.6997 251.598 92.8276 254.288 93.6683 257.39C95.3235 260.691 95.3401 263.583 92.6084 265.83C89.9993 268.87 87.0786 270.969 88.9047 274.846C88.1286 275.841 92.2187 277.529 88.7211 277.778C88.8423 280.788 86.8568 283.174 87.8266 286.304C87.4726 289.109 85.7022 291.588 86.1398 294.76C88.0402 298.798 84.7114 301.032 83.3799 304.026C83.2445 305.552 80.9906 304.971 80.4813 306.846C81.1019 307.972 83.7328 309.589 81.1326 309.928C83.1746 313.305 79.6609 315.353 81.3095 318.694C80.3124 320.338 78.623 321.631 81.1541 324.109C76.1277 325.768 82.7823 330.088 82.0113 332.849C81.0467 335.293 81.3846 338.031 80.7753 340.515C79.2606 342.777 79.1332 345.361 77.9021 347.66C75.2459 351.712 71.0048 354.756 69.2329 358.346C63.7776 361.035 62.0622 364.581 60.058 368.566C55.1549 373.069 56.3383 379.181 54.0042 384.38C50.7625 389.357 50.8923 395.106 47.3591 399.734C45.9391 401.749 44.9279 404.098 43.449 406.368C42.9706 408.882 38.6462 410.491 40.0618 413.336C36.874 416.282 37.3424 420.378 35.1867 423.784C35.9506 427.905 32.3678 430.916 29.3117 433.709C29.7109 435.36 24.4628 435 25.5336 436.549C23.104 437.949 23.6424 441.529 22.5291 443.329C21.2246 447.137 19.6465 450.474 20.6103 454.399C20.5869 458.082 20.7877 461.785 20.3645 465.671C19.8333 469.055 19.0776 468.137 21.3088 471.367C21.3948 472.747 25.2033 474.695 23.6369 475.959C21.9407 477.356 23.7803 479.079 23.8232 480.927C24.571 483.532 23.2056 483.89 24.9322 486.817C25.6724 489.835 24.9289 492.387 24.3238 494.989C28.1132 498.664 20.7512 499.627 22.8834 503.04C20.7674 504.941 22.006 507.29 20.7572 509.017C18.1556 510.414 18.4948 512.514 18.6381 514.909C16.2507 517.171 17.052 519.745 17.9143 522.275C20.9857 525.347 17.6074 526.784 18.2157 529.545C20.1871 533.735 17.9055 537.224 16.1185 540.578C15.9003 544.202 13.7689 548.645 13.3925 552.141C12.0649 554.233 14.1282 555.99 15.3764 558.632C17.5932 561.274 15.8311 563.863 13.6825 565.532C10.874 567.378 10.8984 569.698 11.7882 572.21C7.7213 573.511 10.1308 576.379 8.85987 578.531C5.02805 580.255 6.25681 583.154 4.93261 585.536C6.67314 586.853 5.46992 588.09 3.68056 588.424C4.5717 590.204 0.0489379 588.867 -1.32408 590.701C-0.436612 592.718 -4.1239 594.002 -4.14467 596.221C-3.30245 598.652 -4.98074 600.506 -5.37749 602.368C-6.06501 604.468 -7.89204 606.55 -7.23043 609.217C-8.24473 611.475 -9.78302 613.581 -8.13545 616.159C-8.12362 619.904 -5.12544 622.853 -6.05557 626.72C-7.10308 630.359 -5.22777 634.394 -5.91775 638.167C-4.70079 642.592 -6.1842 646.186 -6.63637 650.287C-8.02725 654.222 -10.8426 655.583 -12.1677 659.158C-16.5718 663.157 -19.6628 668.107 -20.8584 673.655C-21.3653 679.37 -25.8054 684.258 -24.8854 690.095C-22.5563 692.936 -25.4552 694.274 -25.088 696.437C-24.6452 698.618 -25.0343 700.625 -26.0622 702.755C-29.2523 704.09 -28.0745 706.798 -27.2647 709.06C-26.5168 712.706 -24.9129 715.67 -23.4179 719.336C-20.1075 724.718 -26.9533 728.1 -23.5116 734.079C-25.31 738.777 -27.8778 743.368 -26.9013 748.508C-26.0737 753.583 -26.6448 758.315 -30.0124 762.366C-32.058 766.738 -31.9012 771.649 -33.0548 776.24C-33.0591 781.457 -35.1124 785.979 -38.7115 790.105C-41.6066 794.403 -42.0891 799.272 -45.2899 803.633C-49.8928 807.655 -49.8023 813.266 -51.3752 818.453C-52.6978 823.7 -52.4784 829.308 -53.6969 834.086C-50.0318 838.795 -53.0747 841.613 -53.4147 845.145C-54.3897 848.52 -53.7846 852.336 -55.3875 855.964C-54.8886 858.092 -54.4736 860.188 -56.7197 861.644C-62.4664 862.942 -59.1435 865.806 -57.0418 868.304C-56.5566 870.41 -56.7786 872.273 -55.9707 874.912C-54.9318 877.983 -53.4319 880.774 -54.1652 882.934C-54.0705 885.295 -52.5559 887.915 -50.968 890.772C-48.6651 894.32 -47.4378 897.647 -49.5072 900.327C-50.563 903.256 -50.6827 906.573 -51.9614 909.886C-51.6889 913.55 -54.613 916.917 -55.2414 920.433C-54.4973 925.159 -54.8971 927.983 -58.157 931.095C-57.4659 933.955 -59.4817 938.172 -58.819 937.467C-60.6096 938.575 -58.9016 940.239 -57.3205 943.064C-59.8311 942.578 -59.8664 945.735 -60.979 947.732C-63.469 949.036 -62.9038 953.684 -65.4462 955.119C-66.0872 958.23 -67.7816 961.502 -68.3009 963.212C-69.601 964.371 -69.8989 968.217 -69.3397 969.4C-69.6377 972.532 -70.1505 975.412 -69.8711 978.13C-67.1077 981.359 -63.4149 979.788 -59.969 978.73C-56.1172 975.832 -52.5057 973.407 -50.1216 975.884C-46.1438 975.596 -44.3314 978.998 -39.4002 977.126C-36.6257 977.475 -33.595 977.784 -30.8003 978.999C-27.8931 979.707 -24.6901 978.935 -22.7172 982.276C-19.3948 988.362 -17.0942 988.154 -11.7784 988.188C-9.25409 990.812 -6.01075 989.531 -3.05878 989.595C0.355156 987.588 2.39808 991.792 5.69322 991.078C10.9203 994.237 17.4724 990.928 22.7671 993.266C28.491 993.67 34.5086 992.719 39.9089 995.012C43.4084 994.755 47.0717 992.717 48.8373 999.035C51.9553 999.255 54.7919 1000.55 57.1951 1004.42C59.2493 1007.93 63.3215 1006.22 66.4707 1008.84C69.5332 1011.86 73.4406 1011.25 76.5396 1010.75C81.2081 1009.14 86.1756 1003.55 89.2636 1006.66C93.8323 1003.1 97.1823 1005.26 102.141 1003.28C104.616 1007.91 110.037 1002.34 113.562 1005.4C117.687 1005.76 121.686 1006.77 124.828 1008.73C127.324 1010.01 130.511 1008.18 132.744 1010.66C134.967 1013.18 138.414 1010.18 140.66 1012.6C144.031 1013.8 147.096 1016.39 151.013 1015.13C153.957 1018.26 158.258 1015.28 161.367 1017.66C164.589 1015.99 167.516 1017.66 170.263 1019.47C173.467 1019.22 176.254 1020.2 177.804 1023.43C180.452 1024.99 180.276 1026.55 183.415 1027.37C186.252 1026.56 187.458 1033.6 191.003 1030.11C194.064 1028.81 194.675 1038.59 198.693 1032.58C201.155 1036.38 204.82 1034.96 208.156 1035.02C211.5 1035.05 215.388 1032.63 217.693 1037.19C220.943 1039.35 224.644 1039.34 228.388 1037.98C229.405 1040.17 230.208 1036.29 232.228 1036.71C234.382 1037.36 237.55 1035.44 239.757 1037.94C241.609 1042.03 244.442 1041.79 247.195 1040.09C251.562 1039.08 251.531 1041.88 254.683 1044.06C255.504 1046.08 257.318 1043.79 259.238 1047.38C261.856 1047.78 264.961 1052.4 271.388 1054.6Z" fill="#515151"/>
<path d="M287.864 1064.17C288.729 1060.27 289.111 1058.37 289.777 1055.27C290.654 1051.22 291.172 1048.88 291.797 1046.4C292.371 1044.22 292.375 1038.71 290.725 1037.95C289.796 1036.05 291.152 1031.28 289.856 1031.18C289.655 1029.56 291.04 1024.25 290.452 1024.37C290.458 1023.74 291.621 1016.72 292.581 1015.35C293.151 1015.4 293.485 1010.7 297.044 1007.28C298.597 1003.47 300.985 1003.79 303.729 999.444C306.168 996.654 309.779 994.736 311.44 991.226C312.477 987.402 311.962 985.884 311.36 982.717C313.013 981.227 311.151 978.774 310.329 976.443C310.418 974.293 312.629 972.479 310.667 969.94C311.845 965.483 310.141 960.002 313.174 955.504C311.382 952.599 312.232 950.229 313.794 948.071C315.35 945.914 318.043 944.052 318.673 941.918C316.565 938.228 322.956 936.267 323.306 933.088C326.478 930.468 327.853 927.465 326.732 923.873C327.246 921.03 327.766 918.483 326.699 915.795C326.19 913.217 325.218 910.727 323.904 908.225C316.964 902.372 312.759 897.298 316.804 893.172C316.214 889.235 315.271 884.417 317.516 880.195C319.225 875.867 324.042 872.115 322.814 867.904C323.833 865.523 329.19 864.286 326.013 861.332C329.342 859.667 326.976 856.845 328.178 854.393C329.68 852.501 329.987 850.369 329.563 848.095C330.679 846.126 329.455 843.691 330.98 841.803C333.671 837.857 331.675 832.912 334.092 828.835C333.437 824.148 336.021 820.095 336.818 815.745C340.729 812.012 334.91 806.409 337.804 802.652C337.859 799.258 335.718 795.863 336.026 792.475C334.554 789.096 337.403 786.617 337.556 783.559C337.927 780.265 337.224 776.615 338.3 773.293C337.443 769.588 338.52 766.239 340.579 763.176C342.636 760.622 341.612 757.538 344.351 755.165C345.399 752.46 347.557 749.938 347.392 746.811C349.956 743.806 351.436 741.265 350.848 737.702C350.675 733.345 349.878 729.46 352.032 725.641C353.526 722.271 352.396 717.749 354.462 714.475C357.468 710.115 358.572 708.799 363.35 706.018C366.907 703.662 367.852 700.642 369.162 697.527C369.961 694.313 372.504 691.277 371.446 687.345C372.248 683.781 375.636 680.511 373.966 676.519C374.618 672.485 377.85 669.645 380.825 666.375C383.863 663.287 384.75 659.14 385.3 654.862C386.657 650.744 387.781 646.519 387.606 642.538C386.079 638.123 389.451 634.739 389.14 630.659C390.183 626.848 390.73 622.973 389.677 618.79C391.047 615.253 392.377 612.857 390.845 608.78C390.411 606.063 388.05 603.321 389.046 600.832C387.738 597.704 389.514 595.522 387.873 592.61C388.003 590.048 388.114 587.431 388.09 584.351C388.584 580.881 391.015 577.256 390.145 573.625C392.229 570.027 385.75 569.471 382.942 566.599C380.797 563.867 379.175 563.539 381.028 560.237C385.397 557.501 379.851 552.801 383.319 549.886C383.122 547.029 383.353 544.253 385.116 541.784C387.6 539.458 387.846 536.686 386.913 533.682C388.21 530.763 387.236 527.523 389.089 524.875C389.723 521.985 392.322 519.514 392.655 516.53C396.618 514.878 394.701 512.566 397.761 511.291C402.507 510.35 401.055 508.234 403.418 506.475C403.809 505.099 403.966 503.549 406.435 502.646C409.232 501.295 410.482 500.184 412.065 499.684C412.613 499.616 415.722 500.055 414.105 499.558C417.515 497.356 412.877 493.404 414.293 491.292C413.19 488.753 416.25 486.762 415.062 483.734C414.493 479.943 413.768 476.088 417.346 473.122C417.305 470.432 419.752 469.029 420.307 467.39C418.749 465.332 424.933 464.945 425.182 462.864C431.769 459.82 433.58 455.399 433.926 450.475C436.943 446.079 437.712 441.022 438.428 435.955C438.986 430.859 444.98 426.839 441.332 421.125C441.016 419.184 443.5 415.349 443.392 413.173C442.709 411.097 443.582 410.414 447.232 409.183C446.13 406.966 450.566 405.684 449.039 403.193C449.651 401.127 448.053 398.592 450.933 397.052C451.667 391.725 452.957 386.456 456.422 381.576C458.184 376.356 457.007 370.511 459.926 365.434C458.743 360.509 461.407 356.348 462.915 351.955C463.519 347.384 464.808 342.951 465.905 338.477C470.4 334.676 468.336 329.579 468.895 324.999C468.122 322.539 471.916 320.961 470.479 318.35C469.708 315.87 468.449 313.297 471.907 311.679C469.359 308.973 471.628 307.33 472.127 305.322C472.394 303.269 473.658 301.4 473.147 299.043C472.641 296.598 476.845 295.353 477.463 293.491C480.181 292.044 481.428 290.399 482.84 288.705C483.933 286.449 487.126 284.757 489.158 282.802C492.031 280.246 494.7 276.838 497.329 273.907C494.971 272.596 499.539 270.931 501.106 269.978C502.973 266.689 501.962 264.982 500.684 261.716C499.168 258.324 502.187 255.018 502.231 251.653C503.082 248.511 501.91 243.471 504.894 240.844C508.936 241.833 509.691 234.391 509.839 231.703C510.79 228.952 508.995 226.384 509.978 223.46C511.998 220.519 512.874 217.334 512.168 213.849C515.075 211.158 513.817 207.477 513.959 204.08C514.928 200.847 516.866 197.815 516.382 194.482C518.36 192.615 516.988 190.233 519.697 188.672C518.734 186.384 521.844 184.913 523.283 182.991C523.483 180.691 525.916 178.625 526.391 176.198C524.13 173.23 528.002 171.505 529.992 169.667C529.794 167.336 532.111 167.425 534.86 166.311C535.235 165.315 536.825 162.741 537.813 161.55C537.417 159.171 539.162 156.952 539.69 154.476C540.67 152.09 539.341 149.233 540.919 147.19C538.034 143.824 544.119 142.233 542.73 139.162C539.081 135.642 542.888 133.6 544.49 131.123C547.823 129.121 548.448 126.923 546.785 124.28C545.987 121.806 547.859 119.87 547.611 117.188C546.413 113.761 545.647 110.354 548.023 107.514C549.698 104.538 550.136 101.262 550.291 97.8893C553.011 95.3802 552.426 92.6069 553.392 90.1672C556.346 88.119 554.422 85.1333 556.859 82.6717C557.685 79.9683 558.69 77.1855 558.974 74.2534C559.302 71.3302 560.158 68.5046 560.605 65.6976C560.819 63.2699 563.103 60.0546 560.88 57.3691C561.796 55.9187 559.516 55.5288 558.907 54.0054C557.269 51.1094 555.728 48.2105 556.527 45.6165C555.453 42.6514 557.274 40.101 557.599 36.9542C558.792 34.8902 558.288 32.4902 559.088 30.3483C563.375 28.8972 562.571 26.4378 560.547 23.7366C564.042 21.3964 560.461 17.445 562.312 14.6646C560.822 11.22 563.664 8.26322 566.233 6.57109C566.338 3.79322 569.32 3.4289 572.117 1.20408C575.361 -0.971966 574.234 -2.23825 577.818 -4.3889C579.516 -8.5516 579.062 -5.41269 579.336 -11.3485C576.215 -16.9113 575.789 -17.5381 575.56 -22.0936C575.387 -25.2993 575.834 -25.5901 577.41 -31.473C578.912 -33.2265 581.148 -37.4789 580.875 -40.0361C582.722 -45.0074 583.486 -45.0634 584.373 -48.5774C584.706 -49.6384 585.405 -52.5897 583.747 -54.4486C582.931 -54.8308 582.511 -57.1438 581.795 -57.0209C580.802 -56.3112 582.85 -60.1046 581.771 -60.5302C579.812 -60.6954 577.57 -59.8052 575.457 -59.3482C573.567 -59.8969 571.365 -58.8928 568.99 -56.5801C565.697 -57.8412 560.741 -56.8489 557.057 -58.2844C554.408 -60.386 551.686 -60.5194 549.02 -60.8026C545.906 -59.0509 544.035 -62.8002 541.368 -64.3496C537.134 -68.5229 533.761 -67.8149 528.659 -66.6465C526.136 -64.6364 524.988 -65.0469 523.19 -64.9597C521.573 -67.3996 520.28 -62.2787 517.389 -64.6797C513.778 -64.2967 511.36 -66.9878 508.363 -66.7146C505.948 -69.0721 503.238 -69.7434 500.261 -70.8095C496.565 -71.0254 493.489 -76.8308 488.802 -76.4094C483.914 -75.0753 480.555 -81.6731 475.3 -78.9914C469.883 -75.5829 465.996 -78.3443 462.235 -79.1908C459.858 -80.6254 456.828 -79.8628 453.964 -79.9559C451.393 -81.3715 448.25 -80.3092 445.789 -81.7781C443.214 -83.3512 439.499 -80.5671 437.134 -83.8254C433.94 -83.3423 431.4 -85.7796 428.41 -85.3286C424.142 -84.542 420.855 -83.6846 416.782 -84.5113C412.424 -88.7179 406.416 -85.6096 401.578 -87.6817C396.751 -89.8045 391.619 -90.4483 386.248 -89.684C384.31 -92.2049 381.098 -91.0327 377.97 -89.9585C374.412 -86.9427 372.049 -89.0297 369.839 -89.1984C367.502 -90.3935 364.694 -81.9957 362.673 -85.3953C359.695 -83.7952 356.397 -85.5622 352.853 -86.4385C348.556 -83.9241 345.655 -87.9085 343.095 -89.0594C341.288 -91.9801 338.207 -89.4233 335.959 -90.6096C333.161 -89.3157 330.999 -90.8798 328.762 -91.8192C324.563 -92.1018 320.946 -89.1242 317.568 -90.488C314.812 -90.4384 311.001 -85.3047 309.196 -89.5573C305.694 -86.1664 303.498 -89.0075 300.579 -89.6099C297.035 -88.6138 294.353 -91.0727 290.378 -87.7579C287.286 -88.4232 283.605 -86.4838 280.334 -86.9598C277.168 -82.9775 276.051 -88.4411 273.657 -88.1301C271.211 -87.5782 269.136 -88.7059 267.089 -89.7156C264.492 -87.9078 263.258 -94.087 260.125 -91.6268C258.354 -95.3142 254.624 -90.1007 253.366 -94.0263C250.443 -95.7786 247.427 -93.0481 244.904 -99.0968C242.366 -102.493 237.374 -100.105 235.596 -102.358C234.682 -106.642 229.228 -106.855 225.559 -104.96C223.351 -107.649 221.21 -108.993 215.842 -108.393C214.513 -111.66 211.285 -110.522 210.231 -112.4C209.158 -114 208.374 -118.579 205.801 -117.468C203.761 -122.936 202.473 -123.705 199.627 -125.354C195.608 -128.518 193.895 -128.531 191.638 -131.074C190.372 -134.888 189.358 -133.336 186.832 -134.588C184.857 -136.265 180.49 -137.066 178.719 -135.981C177.361 -132.404 178.17 -131.298 179.217 -130.21C180.75 -131.02 179.987 -126.6 180.864 -128.115C182.647 -129.132 181.178 -125.775 180.805 -123.807C180.888 -119.595 181.953 -120.039 183.424 -116.835C185.296 -111.175 183.527 -109.058 185.325 -109.714C185.619 -107.666 184.444 -103.925 181.828 -101.285C180.408 -99.963 178.162 -94.0274 177.588 -96.8273C178.231 -91.8348 175.201 -89.6078 174.153 -87.9693C173.846 -86.1114 172.096 -82.0804 172.355 -78.7033C169.461 -75.6618 171.435 -71.9493 169.743 -69.6733C170.348 -66.1857 164.792 -66.221 167.059 -63.033C165.306 -59.5515 166.472 -57.7878 163.779 -55.0749C163.199 -53.7362 160.479 -52.6123 160.652 -52.5426C155.661 -50.662 155.679 -48.5875 156.798 -44.8681C152.763 -41.8167 157.442 -37.1319 154.307 -34.0168C155.297 -30.0846 153.162 -26.7915 150.908 -23.4777C148.845 -21.5331 149.9 -18.5364 148.664 -16.4347C149.698 -13.3409 146.349 -11.1657 143.789 -8.78602C141.399 -6.49372 139.975 -4.2197 139.328 -1.46983C139.72 2.2996 135.983 5.44757 137.04 9.39088C138.095 14.3371 136.72 17.2207 137.815 21.6059C139.923 25.0139 139.038 28.4975 141.058 32.0292C140.062 34.2977 139.299 36.8039 140.005 39.5C140.753 41.3662 140.566 43.3141 140.071 45.0332C138.613 46.7646 139.957 49.2474 138.63 51.0003C137.214 53.2735 137.59 55.8071 137.727 58.2844C137.508 60.6913 136.901 63.0148 137.065 65.5681C137.442 69.7823 136.597 74.2772 133.753 78.2593C132.481 82.5527 130.53 86.5926 132.917 90.7397C135.24 95.3658 135.439 97.218 133.648 101.578C131.676 104.816 132.544 108.616 131.317 112.001C132.625 115.888 129.21 118.839 129.027 122.431C127.325 125.474 127.829 129.242 127.159 132.411C122.817 133.529 125.385 135.727 127.02 138.119C128.794 141.398 126.567 142.705 128.149 145.873C126.64 147.858 128.195 150.676 127.995 152.926C130.664 156.39 130.405 158.663 129.807 161.59C129.074 163.81 129.985 166.709 128.376 169.125C127.345 171.656 125.196 173.98 126.318 176.626C123.479 180.124 126.094 184.702 123.729 188.294C123.596 192.328 121.309 195.935 121.141 199.962C122.139 202.872 120.398 205.24 119.401 207.755C118.721 210.422 117.719 215.179 116.707 217.567C112.619 219.625 112.718 217.957 109.817 221.831C109.768 223.153 110.227 225.011 109.442 226.192C110.416 228.958 111.419 231.682 110.972 234.108C111.395 236.706 111.202 239.173 112.679 241.997C111.855 243.755 113.372 246.448 112.818 248.756C112.666 251.143 112.749 253.601 111.979 255.462C110.844 258.221 109.955 260.989 110.795 264.095C112.457 267.364 112.462 270.296 109.697 272.706C107.052 275.916 104.092 278.186 105.925 282.029C105.138 283.075 109.266 284.592 105.73 285.012C105.843 288.06 103.831 290.575 104.799 293.702C104.433 296.565 102.636 299.164 103.068 302.362C104.975 306.365 101.602 308.791 100.249 311.891C100.105 313.444 97.8316 312.963 97.3106 314.891C97.9345 316.002 100.588 317.516 97.9591 317.985C100.012 321.312 96.4546 323.558 98.1098 326.87C97.0967 328.586 95.3853 329.978 97.9351 332.371C92.8501 334.295 99.562 338.357 98.7758 341.196C97.7929 343.723 98.1262 346.482 97.5023 349.031C95.9642 351.399 95.8274 354.025 94.5757 356.417C91.8805 360.656 87.5823 363.946 85.7805 367.672C80.2587 370.66 78.5137 374.339 76.4758 378.477C71.5061 383.279 72.683 389.421 70.3072 394.808C67.0153 400.011 67.1278 405.838 63.5426 410.701C62.101 412.813 61.0715 415.245 59.5696 417.618C59.0782 420.191 54.7027 422.031 56.1244 424.848C52.8934 427.989 53.3539 432.12 51.1639 435.68C51.9231 439.823 48.2921 443.051 45.1953 446.028C45.5935 447.684 40.2906 447.571 41.3679 449.09C38.9083 450.625 39.4411 454.23 38.3078 456.11C36.9775 460.035 35.3718 463.497 36.3337 467.43C36.2982 471.167 36.4896 474.913 36.0495 478.875C35.5019 482.332 34.741 481.439 36.9854 484.609C37.0676 486.006 40.9108 487.797 39.3233 489.157C37.6046 490.655 39.4587 492.313 39.4937 494.186C40.241 496.793 38.8602 497.22 40.5957 500.107C41.3345 503.132 40.5746 505.758 39.955 508.425C43.773 511.971 36.3294 513.302 38.4733 516.662C36.3288 518.692 37.573 521.016 36.3054 522.827C33.6719 524.367 34.0079 526.483 34.1451 528.905C31.7254 531.312 32.5268 533.886 33.39 536.412C36.4843 539.381 33.0656 540.999 33.6711 543.773C35.6505 547.927 33.3333 551.577 31.5163 555.065C31.2841 558.753 29.1184 563.361 28.7248 566.925C27.3766 569.11 29.4557 570.794 30.7091 573.413C32.9414 575.986 31.1521 578.697 28.9753 580.493C26.1285 582.501 26.1486 584.852 27.0394 587.359C22.9252 588.873 25.351 591.667 24.06 593.91C20.1818 595.844 21.4147 598.723 20.0685 601.205C21.8236 602.457 20.6035 603.77 18.7962 604.195C19.6911 605.958 15.1248 604.817 13.7311 606.744C14.6219 608.747 10.891 610.227 10.8627 612.479C11.7063 614.905 10.0041 616.866 9.59712 618.774C8.89551 620.938 7.04224 623.138 7.70245 625.811C6.67033 628.15 5.10861 630.361 6.76555 632.897C6.76567 636.695 9.78637 639.543 8.83423 643.509C7.76423 647.249 9.64605 651.254 8.93686 655.115C10.1529 659.544 8.64228 663.261 8.17184 667.444C6.75333 671.503 3.90376 673.018 2.55387 676.705C-1.9098 680.973 -5.04951 686.142 -6.27558 691.828C-6.80639 697.651 -11.3088 702.819 -10.3977 708.697C-8.05313 711.468 -10.9872 712.964 -10.6228 715.14C-10.1823 717.332 -10.5818 719.385 -11.6274 721.595C-14.8559 723.104 -13.674 725.792 -12.8628 728.048C-12.1186 731.711 -10.5067 734.639 -9.00755 738.286C-5.67931 743.588 -12.6086 747.345 -9.14907 753.244C-10.9812 758.095 -13.5912 762.876 -12.6207 768.043C-11.8001 773.15 -12.3929 777.98 -15.8087 782.248C-17.8881 786.783 -17.7472 791.755 -18.9274 796.466C-18.9487 801.759 -21.0381 806.444 -24.6881 810.8C-27.6273 815.297 -28.1305 820.259 -31.3795 824.838C-36.0442 829.138 -35.9707 834.825 -37.5764 840.16C-38.9321 845.546 -38.7255 851.222 -39.9726 856.129C-36.2836 860.73 -39.3677 863.734 -39.7227 867.333C-40.7188 870.804 -40.1193 874.645 -41.7512 878.404C-41.2538 880.538 -40.8411 882.645 -43.1157 884.23C-48.9277 885.822 -45.5785 888.567 -43.4627 891.002C-42.9789 893.114 -43.2093 895.016 -42.401 897.652C-41.3606 900.717 -39.8538 903.477 -40.6016 905.701C-40.5134 908.092 -38.9914 910.678 -37.395 913.498C-35.0785 916.984 -33.8489 920.3 -35.9492 923.12C-37.0252 926.14 -37.157 929.512 -38.4623 932.934C-38.1983 936.637 -41.1646 940.193 -41.8107 943.79C-41.0737 948.548 -41.4866 951.43 -44.7914 954.745C-44.1022 957.614 -46.1527 961.987 -45.4811 961.242C-47.292 962.452 -45.5731 964.056 -43.9845 966.847C-46.52 966.473 -46.5656 969.677 -47.6969 971.758C-50.2174 973.199 -49.6611 977.888 -52.2371 979.464C-52.8945 982.649 -54.6175 986.05 -55.1453 987.809C-56.4633 989.048 -56.7761 992.962 -56.215 994.136C-56.5279 997.325 -57.0535 1000.27 -56.7797 1003.02C-53.9993 1006.16 -50.2575 1004.39 -46.7741 1003.15C-42.8699 1000.03 -39.2143 997.391 -36.8128 999.79C-32.7919 999.307 -30.9706 1002.67 -25.9812 1000.54C-23.1781 1000.76 -20.1165 1000.92 -17.2956 1002.02C-14.3598 1002.6 -11.1203 1001.66 -9.13699 1004.96C-5.79872 1010.97 -3.47285 1010.65 1.89922 1010.43C4.44222 1012.97 7.724 1011.52 10.7069 1011.44C14.1635 1009.24 16.2149 1013.41 19.5475 1012.52C24.8205 1015.48 31.4528 1011.81 36.7962 1013.93C42.5801 1014.06 48.6641 1012.81 54.1147 1014.87C57.6521 1014.45 61.3608 1012.2 63.1255 1018.53C66.2763 1018.6 69.1386 1019.77 71.5549 1023.59C73.6199 1027.05 77.7409 1025.12 80.9149 1027.63C84.0004 1030.54 87.9518 1029.73 91.085 1029.09C95.8083 1027.22 100.847 1021.31 103.957 1024.32C108.586 1020.49 111.964 1022.52 116.982 1020.27C119.469 1024.85 124.966 1018.95 128.518 1021.88C132.686 1022.04 136.724 1022.88 139.893 1024.71C142.412 1025.9 145.639 1023.89 147.888 1026.3C150.127 1028.74 153.62 1025.54 155.882 1027.88C159.285 1028.94 162.374 1031.42 166.338 1029.95C169.303 1032.98 173.658 1029.75 176.793 1032.02C180.055 1030.17 183.008 1031.72 185.778 1033.43C189.02 1033.02 191.83 1033.88 193.386 1037.08C196.058 1038.54 195.875 1040.13 199.045 1040.81C201.914 1039.86 203.111 1046.93 206.705 1043.23C209.802 1041.77 210.389 1051.65 214.469 1045.37C216.945 1049.1 220.654 1047.48 224.026 1047.38C227.405 1047.25 231.341 1044.61 233.657 1049.13C236.934 1051.16 240.675 1050.98 244.463 1049.42C245.484 1051.59 246.308 1047.61 248.348 1047.94C250.524 1048.49 253.731 1046.39 255.954 1048.82C257.812 1052.89 260.677 1052.51 263.464 1050.65C267.881 1049.41 267.84 1052.26 271.019 1054.32C271.843 1056.33 273.683 1053.91 275.612 1057.47C278.253 1057.71 281.376 1062.24 287.864 1064.17Z" fill="white"/>
<mask id="mask1_612_1560" style="mask-type:alpha" maskUnits="userSpaceOnUse" x="-58" y="-137" width="643" height="1202">
<path d="M287.644 1064.17C288.509 1060.27 288.891 1058.37 289.557 1055.27C290.434 1051.22 290.952 1048.88 291.577 1046.4C292.151 1044.22 292.156 1038.71 290.505 1037.95C289.577 1036.05 290.932 1031.28 289.637 1031.18C289.435 1029.56 290.821 1024.25 290.233 1024.37C290.239 1023.74 291.401 1016.72 292.361 1015.35C292.931 1015.4 293.265 1010.7 296.825 1007.28C298.377 1003.47 300.765 1003.79 303.509 999.444C305.948 996.654 309.559 994.736 311.22 991.226C312.257 987.402 311.742 985.884 311.14 982.717C312.794 981.227 310.932 978.774 310.109 976.443C310.199 974.293 312.41 972.479 310.448 969.94C311.625 965.483 309.921 960.002 312.954 955.504C311.162 952.599 312.012 950.229 313.574 948.071C315.131 945.913 317.824 944.052 318.453 941.918C316.345 938.228 322.736 936.267 323.086 933.088C326.258 930.468 327.634 927.465 326.512 923.873C327.026 921.03 327.547 918.483 326.479 915.795C325.97 913.217 324.998 910.727 323.684 908.225C316.744 902.372 312.539 897.297 316.584 893.172C315.994 889.235 315.051 884.417 317.297 880.195C319.006 875.867 323.822 872.115 322.595 867.904C323.613 865.523 328.97 864.286 325.793 861.332C329.122 859.667 326.756 856.845 327.958 854.393C329.461 852.5 329.768 850.369 329.343 848.095C330.459 846.126 329.235 843.691 330.76 841.803C333.451 837.857 331.455 832.912 333.872 828.834C333.217 824.148 335.801 820.095 336.598 815.745C340.509 812.012 334.69 806.408 337.584 802.652C337.639 799.258 335.498 795.863 335.806 792.475C334.334 789.096 337.183 786.617 337.336 783.559C337.707 780.265 337.004 776.615 338.08 773.293C337.224 769.588 338.3 766.239 340.359 763.176C342.417 760.621 341.392 757.538 344.131 755.165C345.179 752.459 347.337 749.938 347.172 746.811C349.736 743.806 351.217 741.265 350.628 737.702C350.455 733.345 349.658 729.46 351.812 725.641C353.306 722.271 352.176 717.749 354.242 714.475C357.249 710.115 358.353 708.799 363.131 706.018C366.687 703.662 367.632 700.642 368.942 697.527C369.741 694.313 372.284 691.277 371.226 687.345C372.028 683.781 375.416 680.511 373.746 676.519C374.399 672.485 377.631 669.645 380.606 666.375C383.643 663.287 384.53 659.14 385.08 654.862C386.437 650.744 387.561 646.518 387.387 642.538C385.859 638.123 389.231 634.739 388.92 630.659C389.964 626.848 390.51 622.973 389.457 618.79C390.827 615.253 392.157 612.857 390.625 608.78C390.191 606.063 387.831 603.321 388.826 600.832C387.518 597.704 389.295 595.522 387.654 592.61C387.783 590.048 387.894 587.43 387.87 584.351C388.365 580.881 390.795 577.256 389.925 573.625C392.009 570.027 385.53 569.471 382.723 566.599C380.577 563.867 378.955 563.539 380.808 560.237C385.177 557.501 379.631 552.8 383.099 549.886C382.902 547.028 383.133 544.253 384.896 541.784C387.38 539.458 387.626 536.686 386.694 533.682C387.99 530.763 387.017 527.523 388.869 524.875C389.503 521.985 392.102 519.514 392.435 516.53C396.398 514.878 394.481 512.566 397.541 511.291C402.287 510.35 400.836 508.234 403.198 506.475C403.589 505.099 403.747 503.549 406.215 502.646C409.012 501.295 410.262 500.184 411.846 499.683C412.393 499.615 415.502 500.055 413.885 499.558C417.296 497.356 412.657 493.404 414.073 491.292C412.97 488.753 416.03 486.762 414.842 483.734C414.273 479.943 413.548 476.087 417.126 473.122C417.085 470.432 419.532 469.029 420.087 467.39C418.529 465.332 424.713 464.945 424.963 462.864C431.549 459.82 433.361 455.399 433.706 450.475C436.723 446.079 437.492 441.022 438.208 435.955C438.767 430.859 444.76 426.839 441.112 421.125C440.796 419.184 443.281 415.349 443.173 413.173C442.49 411.097 443.362 410.414 447.012 409.183C445.91 406.966 450.346 405.684 448.819 403.193C449.432 401.127 447.833 398.592 450.714 397.052C451.447 391.725 452.737 386.456 456.202 381.576C457.965 376.356 456.788 370.51 459.706 365.434C458.523 360.509 461.187 356.347 462.696 351.955C463.299 347.384 464.588 342.95 465.685 338.477C470.181 334.676 468.116 329.579 468.675 324.998C467.902 322.538 471.697 320.961 470.259 318.35C469.488 315.87 468.23 313.296 471.688 311.679C469.14 308.973 471.409 307.33 471.907 305.322C472.174 303.269 473.438 301.4 472.927 299.043C472.421 296.598 476.625 295.353 477.244 293.491C479.961 292.044 481.208 290.399 482.62 288.705C483.714 286.449 486.906 284.757 488.938 282.802C491.811 280.246 494.48 276.838 497.11 273.907C494.752 272.595 499.319 270.931 500.887 269.978C502.753 266.689 501.743 264.982 500.465 261.716C498.949 258.324 501.967 255.018 502.011 251.653C502.862 248.511 501.69 243.471 504.674 240.844C508.717 241.833 509.471 234.391 509.619 231.703C510.57 228.952 508.776 226.384 509.758 223.46C511.778 220.519 512.655 217.334 511.948 213.848C514.855 211.158 513.597 207.477 513.739 204.08C514.708 200.847 516.646 197.815 516.162 194.481C518.14 192.615 516.769 190.233 519.477 188.672C518.514 186.384 521.624 184.913 523.064 182.991C523.264 180.69 525.696 178.625 526.171 176.198C523.91 173.23 527.782 171.504 529.772 169.667C529.575 167.336 531.891 167.425 534.64 166.311C535.015 165.315 536.606 162.741 537.593 161.55C537.197 159.171 538.942 156.952 539.471 154.476C540.45 152.09 539.121 149.233 540.699 147.19C537.814 143.824 543.899 142.233 542.51 139.161C538.861 135.642 542.668 133.6 544.27 131.123C547.603 129.121 548.229 126.923 546.565 124.28C545.767 121.806 547.639 119.87 547.391 117.187C546.193 113.761 545.428 110.354 547.803 107.514C549.478 104.538 549.916 101.261 550.071 97.8892C552.791 95.3801 552.207 92.6068 553.173 90.167C556.126 88.1188 554.203 85.1332 556.639 82.6716C557.465 79.9681 558.47 77.1854 558.754 74.2533C559.082 71.33 559.938 68.5045 560.386 65.6975C560.6 63.2698 562.883 60.0545 560.66 57.369C561.577 55.9186 559.297 55.5287 558.687 54.0053C557.049 51.1093 555.508 48.2104 556.307 45.6164C555.233 42.6513 557.055 40.1009 557.379 36.9541C558.572 34.8901 558.068 32.49 558.868 30.3482C563.155 28.8971 562.351 26.4377 560.327 23.7365C563.822 21.3962 560.241 17.4449 562.092 14.6645C560.602 11.2199 563.445 8.26311 566.014 6.57098C566.119 3.7931 569.1 3.42878 571.897 1.20396C575.141 -0.972084 574.015 -2.23837 577.598 -4.38902C579.296 -8.55172 578.842 -5.41281 579.116 -11.3486C575.995 -16.9114 575.569 -17.5382 575.34 -22.0937C575.167 -25.2994 575.614 -25.5902 577.19 -31.4731C578.692 -33.2266 580.928 -37.479 580.655 -40.0363C582.502 -45.0075 583.266 -45.0635 584.153 -48.5775C584.486 -49.6385 585.185 -52.5898 583.528 -54.4488C582.712 -54.831 582.291 -57.1439 581.575 -57.0211C580.582 -56.3113 582.63 -60.1048 581.551 -60.5303C579.592 -60.6956 577.35 -59.8054 575.237 -59.3484C573.347 -59.897 571.145 -58.893 568.77 -56.5802C565.477 -57.8413 560.521 -56.849 556.837 -58.2845C554.188 -60.3862 551.466 -60.5195 548.801 -60.8027C545.686 -59.051 543.815 -62.8003 541.148 -64.3497C536.914 -68.523 533.541 -67.815 528.439 -66.6466C525.916 -64.6366 524.768 -65.047 522.971 -64.9598C521.353 -67.3997 520.061 -62.2788 517.17 -64.6798C513.558 -64.2968 511.14 -66.9879 508.143 -66.7147C505.728 -69.0722 503.018 -69.7435 500.041 -70.8096C496.346 -71.0256 493.269 -76.831 488.583 -76.4095C483.694 -75.0754 480.336 -81.6732 475.08 -78.9915C469.664 -75.583 465.777 -78.3444 462.016 -79.1909C459.638 -80.6256 456.608 -79.8629 453.744 -79.956C451.173 -81.3716 448.03 -80.3094 445.569 -81.7782C442.994 -83.3513 439.279 -80.5672 436.915 -83.8256C433.72 -83.3424 431.18 -85.7797 428.191 -85.3287C423.923 -84.5421 420.635 -83.6847 416.562 -84.5114C412.204 -88.718 406.196 -85.6097 401.358 -87.6818C396.531 -89.8046 391.4 -90.4484 386.028 -89.6841C384.09 -92.205 380.878 -91.0329 377.75 -89.9586C374.192 -86.9429 371.829 -89.0298 369.619 -89.1985C367.282 -90.3936 364.474 -81.9958 362.453 -85.3954C359.475 -83.7954 356.177 -85.5623 352.633 -86.4386C348.337 -83.9242 345.435 -87.9086 342.876 -89.0595C341.068 -91.9802 337.988 -89.4234 335.74 -90.6098C332.942 -89.3159 330.78 -90.8799 328.542 -91.8193C324.343 -92.1019 320.726 -89.1243 317.348 -90.4881C314.593 -90.4385 310.782 -85.3049 308.976 -89.5574C305.474 -86.1665 303.278 -89.0076 300.359 -89.6101C296.815 -88.6139 294.133 -91.0728 290.158 -87.758C287.067 -88.4233 283.386 -86.4839 280.114 -86.9599C276.948 -82.9777 275.831 -88.4413 273.438 -88.1302C270.991 -87.5784 268.917 -88.706 266.87 -89.7157C264.273 -87.9079 263.039 -94.0871 259.905 -91.6269C258.135 -95.3144 254.404 -90.1009 253.146 -94.0264C250.223 -95.7787 247.207 -93.0482 244.684 -99.0969C242.146 -102.493 237.155 -100.105 235.377 -102.359C234.462 -106.642 229.009 -106.855 225.34 -104.96C223.131 -107.649 220.99 -108.993 215.622 -108.393C214.293 -111.66 211.065 -110.522 210.012 -112.4C208.938 -114 208.155 -118.579 205.581 -117.468C203.541 -122.936 202.253 -123.705 199.407 -125.354C195.388 -128.519 193.675 -128.531 191.418 -131.074C190.152 -134.888 189.138 -133.336 186.613 -134.588C184.637 -136.265 180.271 -137.066 178.499 -135.981C177.141 -132.404 177.95 -131.298 178.997 -130.21C180.531 -131.02 179.767 -126.6 180.645 -128.115C182.427 -129.132 180.959 -125.775 180.585 -123.807C180.669 -119.595 181.733 -120.04 183.205 -116.835C185.076 -111.175 183.307 -109.058 185.105 -109.714C185.4 -107.666 184.224 -103.925 181.608 -101.285C180.188 -99.9631 177.943 -94.0276 177.369 -96.8274C178.012 -91.8349 174.981 -89.6079 173.934 -87.9694C173.627 -86.1115 171.876 -82.0805 172.135 -78.7034C169.241 -75.6619 171.216 -71.9494 169.523 -69.6735C170.129 -66.1858 164.573 -66.2211 166.839 -63.0331C165.086 -59.5516 166.252 -57.788 163.559 -55.075C162.98 -53.7364 160.259 -52.6124 160.433 -52.5427C155.441 -50.6622 155.459 -48.5877 156.578 -44.8682C152.543 -41.8168 157.222 -37.132 154.087 -34.0169C155.078 -30.0847 152.942 -26.7916 150.688 -23.4779C148.625 -21.5332 149.681 -18.5365 148.444 -16.4349C149.478 -13.341 146.13 -11.1658 143.569 -8.78615C141.18 -6.49385 139.756 -4.21983 139.108 -1.46996C139.5 2.29948 135.763 5.44746 136.821 9.39077C137.875 14.3369 136.501 17.2206 137.596 21.6057C139.703 25.0138 138.819 28.4974 140.838 32.0291C139.842 34.2976 139.079 36.8038 139.785 39.4999C140.534 41.3661 140.347 43.314 139.851 45.0331C138.393 46.7645 139.738 49.2473 138.411 51.0002C136.994 53.2734 137.37 55.807 137.507 58.2843C137.288 60.6912 136.682 63.0147 136.846 65.568C137.222 69.7822 136.377 74.2771 133.534 78.2592C132.261 82.5526 130.311 86.5924 132.698 90.7395C135.02 95.3657 135.219 97.2179 133.428 101.578C131.456 104.816 132.324 108.616 131.097 112.001C132.406 115.888 128.99 118.839 128.807 122.431C127.105 125.474 127.609 129.242 126.939 132.411C122.597 133.529 125.165 135.727 126.8 138.119C128.575 141.398 126.347 142.705 127.93 145.873C126.42 147.858 127.975 150.676 127.775 152.926C130.444 156.39 130.185 158.663 129.587 161.59C128.854 163.809 129.765 166.709 128.156 169.125C127.126 171.656 124.976 173.98 126.098 176.626C123.259 180.124 125.875 184.702 123.51 188.294C123.376 192.328 121.089 195.935 120.922 199.962C121.919 202.872 120.178 205.24 119.181 207.755C118.501 210.421 117.5 215.179 116.487 217.567C112.399 219.625 112.498 217.957 109.597 221.831C109.549 223.153 110.007 225.011 109.222 226.192C110.196 228.958 111.2 231.682 110.753 234.108C111.175 236.706 110.983 239.173 112.459 241.997C111.635 243.755 113.152 246.448 112.598 248.756C112.447 251.143 112.529 253.601 111.759 255.462C110.625 258.221 109.735 260.989 110.575 264.095C112.237 267.364 112.243 270.296 109.477 272.706C106.833 275.916 103.872 278.186 105.706 282.029C104.918 283.075 109.046 284.592 105.511 285.012C105.623 288.06 103.612 290.575 104.58 293.702C104.213 296.565 102.416 299.164 102.848 302.362C104.756 306.365 101.382 308.791 100.029 311.891C99.8856 313.444 97.6118 312.962 97.0908 314.89C97.7148 316.002 100.369 317.516 97.7393 317.985C99.7926 321.312 96.2348 323.558 97.89 326.87C96.877 328.586 95.1655 329.978 97.7153 332.371C92.6304 334.295 99.3422 338.357 98.5561 341.196C97.5732 343.723 97.9064 346.482 97.2826 349.031C95.7444 351.399 95.6077 354.025 94.356 356.417C91.6608 360.656 87.3626 363.946 85.5607 367.672C80.0389 370.66 78.2939 374.339 76.256 378.477C71.2863 383.279 72.4633 389.421 70.0875 394.808C66.7956 400.011 66.908 405.838 63.3229 410.701C61.8813 412.813 60.8518 415.244 59.3499 417.618C58.8584 420.191 54.483 422.031 55.9047 424.848C52.6737 427.988 53.1342 432.12 50.9442 435.68C51.7034 439.822 48.0724 443.051 44.9756 446.028C45.3738 447.684 40.0708 447.571 41.1482 449.09C38.6885 450.625 39.2214 454.23 38.088 456.11C36.7578 460.035 35.1521 463.496 36.114 467.43C36.0784 471.167 36.2698 474.913 35.8298 478.875C35.2822 482.332 34.5213 481.438 36.7656 484.609C36.8478 486.006 40.691 487.797 39.1036 489.157C37.3848 490.655 39.2389 492.313 39.274 494.186C40.0213 496.793 38.6405 497.22 40.376 500.107C41.1148 503.131 40.3549 505.758 39.7353 508.425C43.5533 511.971 36.1097 513.302 38.2536 516.662C36.109 518.692 37.3532 521.016 36.0857 522.827C33.4522 524.367 33.7882 526.482 33.9253 528.905C31.5056 531.312 32.307 533.886 33.1702 536.412C36.2646 539.381 32.8459 540.999 33.4514 543.772C35.4307 547.927 33.1136 551.577 31.2966 555.065C31.0644 558.753 28.8987 563.361 28.505 566.925C27.1568 569.11 29.236 570.794 30.4894 573.413C32.7216 575.986 30.9323 578.697 28.7556 580.493C25.9088 582.501 25.9289 584.852 26.8196 587.359C22.7054 588.873 25.1312 591.667 23.8402 593.91C19.962 595.844 21.195 598.723 19.8488 601.205C21.6038 602.457 20.3837 603.77 18.5764 604.195C19.4713 605.958 14.905 604.817 13.5114 606.744C14.4021 608.747 10.6712 610.226 10.643 612.479C11.4866 614.905 9.78437 616.866 9.37736 618.774C8.67574 620.938 6.82249 623.138 7.48268 625.811C6.45057 628.15 4.88884 630.361 6.54578 632.897C6.5459 636.695 9.56659 639.543 8.61446 643.509C7.54446 647.249 9.42628 651.254 8.71709 655.115C9.93313 659.544 8.42252 663.26 7.95208 667.444C6.53359 671.503 3.68403 673.018 2.33413 676.705C-2.12954 680.973 -5.26928 686.142 -6.49535 691.828C-7.02616 697.651 -11.5286 702.819 -10.6174 708.697C-8.2729 711.468 -11.207 712.964 -10.8425 715.14C-10.402 717.332 -10.8015 719.385 -11.8472 721.595C-15.0757 723.104 -13.8938 725.792 -13.0825 728.048C-12.3384 731.711 -10.7264 734.639 -9.2273 738.286C-5.89907 743.588 -12.8283 747.345 -9.36881 753.244C-11.2009 758.095 -13.8109 762.876 -12.8404 768.043C-12.0199 773.15 -12.6126 777.98 -16.0284 782.248C-18.1079 786.783 -17.9669 791.755 -19.1472 796.466C-19.1684 801.759 -21.2578 806.444 -24.9079 810.8C-27.8471 815.297 -28.3502 820.259 -31.5993 824.838C-36.264 829.138 -36.1905 834.825 -37.7961 840.16C-39.1518 845.546 -38.9452 851.222 -40.1923 856.129C-36.5034 860.73 -39.5875 863.734 -39.9425 867.333C-40.9386 870.804 -40.339 874.645 -41.971 878.404C-41.4735 880.538 -41.0609 882.645 -43.3355 884.23C-49.1474 885.822 -45.7982 888.567 -43.6825 891.002C-43.1987 893.114 -43.4291 895.016 -42.6207 897.652C-41.5804 900.717 -40.0735 903.476 -40.8214 905.701C-40.7332 908.092 -39.2111 910.678 -37.6147 913.497C-35.2982 916.984 -34.0687 920.3 -36.169 923.12C-37.2449 926.14 -37.3768 929.512 -38.6821 932.934C-38.4181 936.637 -41.3843 940.193 -42.0305 943.79C-41.2934 948.548 -41.7064 951.43 -45.0112 954.745C-44.322 957.614 -46.3725 961.987 -45.7009 961.242C-47.5118 962.452 -45.7929 964.056 -44.2043 966.847C-46.7398 966.473 -46.7854 969.677 -47.9167 971.758C-50.4372 973.199 -49.8809 977.888 -52.4569 979.464C-53.1143 982.649 -54.8372 986.05 -55.3651 987.809C-56.683 989.048 -56.9959 992.962 -56.4348 994.136C-56.7477 997.325 -57.2733 1000.27 -56.9994 1003.02C-54.2191 1006.16 -50.4773 1004.39 -46.9939 1003.15C-43.0897 1000.03 -39.4341 997.391 -37.0326 999.79C-33.0117 999.307 -31.1903 1002.67 -26.201 1000.54C-23.3979 1000.76 -20.3363 1000.92 -17.5154 1002.02C-14.5796 1002.6 -11.3401 1001.66 -9.35677 1004.96C-6.01847 1010.97 -3.69263 1010.65 1.67944 1010.43C4.22244 1012.97 7.50421 1011.52 10.4871 1011.44C13.9437 1009.24 15.9951 1013.41 19.3277 1012.52C24.6007 1015.48 31.233 1011.81 36.5764 1013.93C42.3603 1014.06 48.4444 1012.81 53.8949 1014.87C57.4323 1014.45 61.141 1012.2 62.9057 1018.53C66.0565 1018.6 68.9188 1019.77 71.3351 1023.59C73.4001 1027.05 77.5212 1025.12 80.6952 1027.63C83.7806 1030.54 87.7321 1029.73 90.8653 1029.09C95.5885 1027.22 100.627 1021.31 103.737 1024.32C108.366 1020.49 111.745 1022.52 116.762 1020.27C119.25 1024.85 124.746 1018.95 128.298 1021.88C132.466 1022.04 136.504 1022.88 139.673 1024.71C142.192 1025.9 145.42 1023.89 147.668 1026.3C149.907 1028.74 153.4 1025.54 155.662 1027.88C159.065 1028.94 162.154 1031.42 166.118 1029.95C169.083 1032.98 173.438 1029.75 176.574 1032.02C179.835 1030.17 182.788 1031.72 185.558 1033.43C188.8 1033.02 191.61 1033.88 193.167 1037.08C195.838 1038.54 195.655 1040.13 198.825 1040.81C201.695 1039.86 202.891 1046.93 206.485 1043.23C209.582 1041.77 210.169 1051.65 214.249 1045.37C216.725 1049.1 220.434 1047.48 223.806 1047.38C227.185 1047.25 231.121 1044.61 233.437 1049.13C236.715 1051.16 240.455 1050.98 244.243 1049.42C245.265 1051.59 246.088 1047.61 248.128 1047.94C250.304 1048.49 253.511 1046.39 255.734 1048.82C257.593 1052.89 260.457 1052.51 263.244 1050.65C267.661 1049.41 267.62 1052.26 270.799 1054.32C271.623 1056.33 273.464 1053.91 275.392 1057.47C278.033 1057.71 281.156 1062.24 287.644 1064.17Z" fill="white"/>
</mask>
<g mask="url(#mask1_612_1560)">
<rect width="131.613" height="187.427" rx="30" transform="matrix(0.916925 0.39906 -0.438093 0.898929 298.86 -33.5498)" fill="#D9D9D9"/>
<rect width="131.613" height="187.427" rx="30" transform="matrix(0.916925 0.39906 -0.438093 0.898929 455.434 -30.3225)" fill="#D9D9D9"/>
<rect width="131.613" height="187.427" rx="30" transform="matrix(0.916925 0.39906 -0.438093 0.898929 157.228 -67.4431)" fill="#D9D9D9"/>
<rect width="131.613" height="187.427" rx="30" transform="matrix(0.916925 0.39906 -0.438093 0.898929 214.393 140.901)" fill="#D9D9D9"/>
<rect width="131.613" height="187.427" rx="30" transform="matrix(0.916925 0.39906 -0.438093 0.898929 370.53 143.892)" fill="#D9D9D9"/>
<rect width="131.613" height="187.427" rx="30" transform="matrix(0.916925 0.39906 -0.438093 0.898929 72.7593 107.008)" fill="#D9D9D9"/>
<rect width="131.613" height="187.427" rx="30" transform="matrix(0.916925 0.39906 -0.438093 0.898929 129.071 314.355)" fill="#D9D9D9"/>
<rect width="131.613" height="187.427" rx="30" transform="matrix(0.916925 0.39906 -0.438093 0.898929 285.209 318.343)" fill="#D9D9D9"/>
<rect width="131.613" height="187.427" rx="30" transform="matrix(0.916925 0.39906 -0.438093 0.898929 -12.2817 280.836)" fill="#D9D9D9"/>
<rect width="131.613" height="187.427" rx="30" transform="matrix(0.916925 0.39906 -0.438093 0.898929 41.1909 494.787)" fill="#D9D9D9"/>
<rect width="131.613" height="187.427" rx="30" transform="matrix(0.916925 0.39906 -0.438093 0.898929 198.182 497.778)" fill="#D9D9D9"/>
<rect width="131.613" height="187.427" rx="30" transform="matrix(0.916925 0.39906 -0.438093 0.898929 -99.978 460.781)" fill="#D9D9D9"/>
<rect width="131.613" height="187.427" rx="30" transform="matrix(0.916925 0.39906 -0.438093 0.898929 408.071 394.104)" fill="#D9D9D9"/>
<rect width="131.613" height="187.427" rx="30" transform="matrix(0.916925 0.39906 -0.438093 0.898929 322.863 568.445)" fill="#D9D9D9"/>
</g>
</g>
</svg>
