<svg width="23" height="23" viewBox="0 0 23 23" fill="none" xmlns="http://www.w3.org/2000/svg">
<path d="M1.44956 2.16075C0.145718 3.46459 0.145718 5.57854 1.44956 6.88238L3.28802 8.72084C3.30182 8.70488 3.93024 9.30324 3.9454 9.28808L8.57703 4.65645C8.59214 4.64134 7.99373 4.01296 8.00965 3.99919L6.1712 2.16075C4.86736 0.8569 2.75341 0.8569 1.44956 2.16075Z" fill="white"/>
<path d="M2.94153 15.4333C3.12789 14.9591 3.79661 14.9591 3.98297 15.4333L4.16467 15.8957C4.22157 16.0405 4.33576 16.1551 4.48002 16.2123L4.94072 16.3946C5.41324 16.5817 5.41324 17.2529 4.94072 17.4399L4.48002 17.6223C4.33576 17.6794 4.22157 17.794 4.16467 17.9388L3.98297 18.4012C3.79661 18.8755 3.12789 18.8755 2.94153 18.4012L2.75983 17.9388C2.70294 17.794 2.58874 17.6794 2.44448 17.6223L1.98378 17.4399C1.51127 17.2529 1.51127 16.5817 1.98378 16.3946L2.44448 16.2123C2.58874 16.1551 2.70294 16.0405 2.75983 15.8957L2.94153 15.4333Z" fill="white"/>
<path d="M20.1178 8.28001C20.3042 7.80575 20.9729 7.80575 21.1592 8.28001L21.3409 8.74242C21.3978 8.88721 21.512 9.00183 21.6563 9.05894L22.117 9.24131C22.5895 9.42835 22.5895 10.0996 22.117 10.2866L21.6563 10.469C21.512 10.5261 21.3978 10.6407 21.3409 10.7855L21.1592 11.2479C20.9729 11.7222 20.3042 11.7222 20.1178 11.2479L19.9361 10.7855C19.8792 10.6407 19.765 10.5261 19.6208 10.469L19.16 10.2866C18.6875 10.0996 18.6875 9.42835 19.16 9.24131L19.6208 9.05894C19.765 9.00183 19.8792 8.88721 19.9361 8.74242L20.1178 8.28001Z" fill="white"/>
<path opacity="0.7" d="M15.6401 0.380599C15.8265 -0.0936629 16.4952 -0.0936633 16.6816 0.380598L17.1799 1.64884C17.2368 1.79363 17.351 1.90825 17.4953 1.96535L18.7588 2.46554C19.2314 2.65259 19.2314 3.32378 18.7588 3.51083L17.4953 4.01102C17.351 4.06812 17.2368 4.18274 17.1799 4.32753L16.6816 5.59577C16.4952 6.07003 15.8265 6.07004 15.6401 5.59577L15.1418 4.32753C15.0849 4.18274 14.9707 4.06812 14.8264 4.01102L13.5629 3.51083C13.0904 3.32379 13.0904 2.65259 13.5629 2.46554L14.8264 1.96535C14.9707 1.90825 15.0849 1.79363 15.1418 1.64884L15.6401 0.380599Z" fill="white"/>
<path d="M9.23426 5.22393C9.22049 5.23985 8.59185 4.64117 8.57674 4.65629L3.94511 9.28792C3.92995 9.30308 4.52857 9.93176 4.51261 9.94556L15.6142 21.0471C16.918 22.351 19.032 22.351 20.3358 21.0471C21.6397 19.7433 21.6397 17.6293 20.3358 16.3255L9.23426 5.22393Z" fill="#1C274C"/>
</svg>
