<svg width="23" height="23" viewBox="0 0 23 23" fill="none" xmlns="http://www.w3.org/2000/svg">
<path fill-rule="evenodd" clip-rule="evenodd" d="M7.0918 8.66606C7.0918 8.21043 7.46116 7.84106 7.9168 7.84106H14.5168C14.9724 7.84106 15.3418 8.21043 15.3418 8.66606C15.3418 9.1217 14.9724 9.49106 14.5168 9.49106H12.0418V15.2661C12.0418 15.7217 11.6724 16.0911 11.2168 16.0911C10.7612 16.0911 10.3918 15.7217 10.3918 15.2661V9.49106H7.9168C7.46116 9.49106 7.0918 9.1217 7.0918 8.66606Z" fill="#1C274C"/>
<path d="M2.4168 5.36606C3.63182 5.36606 4.6168 4.38109 4.6168 3.16606C4.6168 1.95104 3.63182 0.966064 2.4168 0.966064C1.20177 0.966064 0.216797 1.95104 0.216797 3.16606C0.216797 4.38109 1.20177 5.36606 2.4168 5.36606Z" fill="#1C274C"/>
<path d="M2.4168 22.9661C3.63182 22.9661 4.6168 21.9811 4.6168 20.7661C4.6168 19.551 3.63182 18.5661 2.4168 18.5661C1.20177 18.5661 0.216797 19.551 0.216797 20.7661C0.216797 21.9811 1.20177 22.9661 2.4168 22.9661Z" fill="#1C274C"/>
<path d="M22.2168 3.16606C22.2168 4.38109 21.2318 5.36606 20.0168 5.36606C18.8018 5.36606 17.8168 4.38109 17.8168 3.16606C17.8168 1.95104 18.8018 0.966064 20.0168 0.966064C21.2318 0.966064 22.2168 1.95104 22.2168 3.16606Z" fill="#1C274C"/>
<path d="M20.0168 22.9661C21.2318 22.9661 22.2168 21.9811 22.2168 20.7661C22.2168 19.551 21.2318 18.5661 20.0168 18.5661C18.8018 18.5661 17.8168 19.551 17.8168 20.7661C17.8168 21.9811 18.8018 22.9661 20.0168 22.9661Z" fill="#1C274C"/>
<g opacity="0.5">
<path d="M3.2418 5.20615C2.98703 5.30927 2.70854 5.36606 2.4168 5.36606C2.12505 5.36606 1.84657 5.30927 1.5918 5.20615V18.726C1.84657 18.6229 2.12505 18.5661 2.4168 18.5661C2.70854 18.5661 2.98703 18.6229 3.2418 18.726V5.20615Z" fill="#1C274C"/>
<path d="M4.45688 3.99106H17.9767C17.8736 3.7363 17.8168 3.45781 17.8168 3.16606C17.8168 2.87432 17.8736 2.59583 17.9767 2.34106H4.45688C4.56001 2.59583 4.6168 2.87432 4.6168 3.16606C4.6168 3.45781 4.56001 3.7363 4.45688 3.99106Z" fill="#1C274C"/>
<path d="M19.1918 5.20615C19.4466 5.30928 19.725 5.36606 20.0168 5.36606C20.3085 5.36606 20.587 5.30928 20.8418 5.20615V18.726C20.587 18.6229 20.3085 18.5661 20.0168 18.5661C19.725 18.5661 19.4466 18.6229 19.1918 18.726V5.20615Z" fill="#1C274C"/>
<path d="M17.9767 19.9411H4.45688C4.56001 20.1958 4.6168 20.4743 4.6168 20.7661C4.6168 21.0578 4.56001 21.3363 4.45688 21.5911H17.9767C17.8736 21.3363 17.8168 21.0578 17.8168 20.7661C17.8168 20.4743 17.8736 20.1958 17.9767 19.9411Z" fill="#1C274C"/>
</g>
</svg>
