<svg width="23" height="23" viewBox="0 0 23 23" fill="none" xmlns="http://www.w3.org/2000/svg">
<g opacity="0.5">
<path d="M0.25 1.81222C0.25 1.3449 0.672132 0.966064 1.19286 0.966064H21.3071C21.8279 0.966064 22.25 1.3449 22.25 1.81222C22.25 2.27954 21.8279 2.65837 21.3071 2.65837H1.19286C0.672132 2.65837 0.25 2.27954 0.25 1.81222Z" fill="#1C274C"/>
<path d="M0.25 22.1199C0.25 21.6526 0.672132 21.2738 1.19286 21.2738H21.3071C21.8279 21.2738 22.25 21.6526 22.25 22.1199C22.25 22.5872 21.8279 22.9661 21.3071 22.9661H1.19286C0.672132 22.9661 0.25 22.5872 0.25 22.1199Z" fill="#1C274C"/>
</g>
<path d="M11.9166 4.03445C11.5484 3.70401 10.9514 3.70401 10.5832 4.03445L6.8118 7.41907C6.44359 7.74951 6.44359 8.28527 6.8118 8.61571C7.18001 8.94616 7.77699 8.94616 8.1452 8.61571L10.3071 6.67557V17.2566L8.1452 15.3165C7.77699 14.9861 7.18001 14.9861 6.8118 15.3165C6.44359 15.6469 6.44359 16.1827 6.8118 16.5131L10.5832 19.8978C10.9514 20.2282 11.5484 20.2282 11.9166 19.8978L15.6881 16.5131C16.0563 16.1827 16.0563 15.6469 15.6881 15.3165C15.3198 14.9861 14.7229 14.9861 14.3547 15.3165L12.1928 17.2566V6.67557L14.3547 8.61571C14.7229 8.94616 15.3198 8.94616 15.6881 8.61571C16.0563 8.28527 16.0563 7.74951 15.6881 7.41907L11.9166 4.03445Z" fill="#1C274C"/>
</svg>
