<svg width="23" height="23" viewBox="0 0 23 23" fill="none" xmlns="http://www.w3.org/2000/svg">
<path fill-rule="evenodd" clip-rule="evenodd" d="M18.0218 10.5995C15.6883 10.5995 14.5216 10.5995 13.7967 9.87455C13.0718 9.14964 13.0718 7.98291 13.0718 5.64946C13.0718 3.31601 13.0718 2.14928 13.7967 1.42437C14.5216 0.699463 15.6883 0.699463 18.0218 0.699463C20.3552 0.699463 21.522 0.699463 22.2469 1.42437C22.9718 2.14928 22.9718 3.31601 22.9718 5.64946C22.9718 7.98291 22.9718 9.14964 22.2469 9.87455C21.522 10.5995 20.3552 10.5995 18.0218 10.5995ZM18.8468 3.44946C18.8468 2.99383 18.4774 2.62446 18.0218 2.62446C17.5661 2.62446 17.1968 2.99383 17.1968 3.44946V4.82446H15.8218C15.3661 4.82446 14.9968 5.19383 14.9968 5.64946C14.9968 6.1051 15.3661 6.47446 15.8218 6.47446H17.1968V7.84946C17.1968 8.3051 17.5661 8.67446 18.0218 8.67446C18.4774 8.67446 18.8468 8.3051 18.8468 7.84946V6.47446H20.2218C20.6774 6.47446 21.0468 6.1051 21.0468 5.64946C21.0468 5.19383 20.6774 4.82446 20.2218 4.82446H18.8468V3.44946Z" fill="white"/>
<path d="M22.9714 12.4671C22.9698 14.0836 22.9575 15.4576 22.8656 16.585C22.759 17.8933 22.5406 18.9865 22.0517 19.8944C21.836 20.2949 21.571 20.6535 21.2484 20.9762C20.3328 21.8918 19.1662 22.3066 17.6879 22.5053C16.2436 22.6995 14.3925 22.6995 12.0304 22.6995H11.913C9.55089 22.6995 7.69979 22.6995 6.25547 22.5053C4.77714 22.3066 3.6106 21.8918 2.69498 20.9762C1.88326 20.1644 1.46407 19.1541 1.24116 17.9008C1.02218 16.6697 0.982119 15.1379 0.973797 13.2359C0.97168 12.7521 0.97168 12.2403 0.97168 11.7005V11.6407C0.971667 9.27868 0.971657 7.42756 1.16584 5.98325C1.3646 4.50492 1.77936 3.33839 2.69498 2.42277C3.6106 1.50715 4.77714 1.09238 6.25547 0.893622C7.53991 0.720935 9.19249 0.701827 11.2039 0.699722C11.6278 0.699279 11.9717 1.04306 11.9717 1.4669C11.9717 1.89075 11.6276 2.23418 11.2038 2.23463C9.16392 2.23679 7.64594 2.25537 6.45999 2.41482C5.15186 2.59069 4.36321 2.92519 3.78031 3.50809C3.19741 4.091 2.86291 4.87964 2.68704 6.18777C2.50819 7.51799 2.50656 9.26593 2.50656 11.6995C2.50656 11.9966 2.50656 12.284 2.50691 12.5623L3.53133 11.666C4.46379 10.8501 5.86915 10.8969 6.74528 11.773L11.1348 16.1625C11.838 16.8657 12.9449 16.9616 13.7586 16.3897L14.0637 16.1753C15.2346 15.3524 16.8187 15.4478 17.8824 16.4051L20.7787 19.0118C21.0702 18.3996 21.2433 17.5952 21.3358 16.4604C21.4229 15.3912 21.4349 14.0925 21.4365 12.4671C21.437 12.0433 21.7804 11.6995 22.2042 11.6995C22.6281 11.6995 22.9719 12.0433 22.9714 12.4671Z" fill="#1C274C"/>
</svg>
