<svg width="23" height="23" viewBox="0 0 23 23" fill="none" xmlns="http://www.w3.org/2000/svg">
<path d="M12.5686 12.2193L21.2663 8.74021V14.5246C20.7494 14.1936 20.1349 14.0018 19.4756 14.0018C17.639 14.0018 16.15 15.4907 16.15 17.3274C16.15 19.164 17.639 20.653 19.4756 20.653C21.3123 20.653 22.8012 19.164 22.8012 17.3274C22.8012 17.3273 22.8012 17.3274 22.8012 17.3274L22.8012 7.55144C22.8012 6.38203 22.8012 5.40128 22.7189 4.61987C22.7073 4.50944 22.6935 4.39965 22.6784 4.2972C22.5991 3.76336 22.459 3.26535 22.1887 2.84948C22.0535 2.64155 21.8857 2.45415 21.6767 2.29307C21.6375 2.26287 21.5969 2.2336 21.5547 2.20528L21.5463 2.19963C20.8226 1.71801 20.0091 1.75245 19.171 1.96602C18.3605 2.17255 17.3557 2.59315 16.1235 3.10891L13.9807 4.00576C13.4031 4.24747 12.9138 4.45226 12.5297 4.66438C12.1211 4.89006 11.7691 5.15623 11.5051 5.55288C11.2411 5.94953 11.1315 6.377 11.0811 6.84109C11.0337 7.27727 11.0337 7.80772 11.0338 8.43382V16.5711C10.5169 16.2402 9.90237 16.0483 9.24306 16.0483C7.40639 16.0483 5.91748 17.5372 5.91748 19.3739C5.91748 21.2106 7.40639 22.6995 9.24306 22.6995C11.0797 22.6995 12.5686 21.2106 12.5686 19.3739C12.5686 19.3738 12.5686 19.3739 12.5686 19.3739L12.5686 12.2193Z" fill="#1C274C"/>
<path d="M7.45243 1.4669C7.45243 1.04306 7.10884 0.699463 6.68499 0.699463C6.26114 0.699463 5.91755 1.04306 5.91755 1.4669V7.36179C5.40065 7.03086 4.78616 6.839 4.12685 6.839C2.29018 6.839 0.80127 8.32791 0.80127 10.1646C0.80127 12.0012 2.29018 13.4902 4.12685 13.4902C5.96352 13.4902 7.45243 12.0012 7.45243 10.1646V4.54128C8.1672 5.05764 9.01755 5.30411 9.75476 5.30411C10.1786 5.30411 10.5222 4.96052 10.5222 4.53667C10.5222 4.11283 10.1786 3.76923 9.75476 3.76923C9.28984 3.76923 8.69702 3.58903 8.23174 3.20477C7.78847 2.83869 7.45243 2.28331 7.45243 1.4669Z" fill="white"/>
</svg>
