<svg width="36" height="36" viewBox="0 0 36 36" fill="none" xmlns="http://www.w3.org/2000/svg">
<rect x="0.907715" y="0.447632" width="35" height="35" rx="15" fill="#D9D9D9"/>
<path d="M9.90771 12.3336C9.90771 11.8491 10.2531 11.4564 10.6791 11.4564L13.3434 11.4559C13.8727 11.4407 14.3397 11.058 14.5199 10.4917C14.5246 10.4769 14.53 10.4585 14.5496 10.3919L14.6644 10.0002C14.7346 9.76004 14.7958 9.55082 14.8815 9.36381C15.2198 8.62499 15.8458 8.11195 16.5692 7.9806C16.7523 7.94735 16.9462 7.94749 17.1688 7.94765H20.6468C20.8694 7.94749 21.0633 7.94735 21.2464 7.9806C21.9698 8.11195 22.5958 8.62499 22.9341 9.36381C23.0198 9.55082 23.081 9.76004 23.1512 10.0002L23.266 10.3919C23.2856 10.4585 23.291 10.4769 23.2957 10.4917C23.4759 11.058 24.0355 11.4412 24.5649 11.4564H27.1363C27.5623 11.4564 27.9077 11.8491 27.9077 12.3336C27.9077 12.8181 27.5623 13.2108 27.1363 13.2108H10.6791C10.2531 13.2108 9.90771 12.8181 9.90771 12.3336Z" fill="#1C274C"/>
<path fill-rule="evenodd" clip-rule="evenodd" d="M16.3331 17.4291C16.7453 17.3858 17.1128 17.7023 17.154 18.1361L17.654 23.3993C17.6953 23.8332 17.3946 24.22 16.9824 24.2634C16.5702 24.3068 16.2027 23.9903 16.1615 23.5564L15.6615 18.2933C15.6203 17.8594 15.921 17.4725 16.3331 17.4291Z" fill="#1C274C"/>
<path fill-rule="evenodd" clip-rule="evenodd" d="M21.4824 17.4291C21.8946 17.4725 22.1953 17.8594 22.154 18.2933L21.654 23.5564C21.6128 23.9903 21.2453 24.3068 20.8331 24.2634C20.421 24.22 20.1203 23.8332 20.1615 23.3993L20.6615 18.1361C20.7027 17.7023 21.0702 17.3858 21.4824 17.4291Z" fill="#1C274C"/>
<path opacity="0.5" d="M18.5033 27.9478H19.3121C22.0948 27.9478 23.4862 27.9478 24.3908 27.0618C25.2955 26.1759 25.388 24.7227 25.5731 21.8163L25.8398 17.6284C25.9403 16.0514 25.9905 15.2629 25.5367 14.7632C25.0828 14.2635 24.3164 14.2635 22.7837 14.2635H15.0318C13.499 14.2635 12.7326 14.2635 12.2788 14.7632C11.8249 15.2629 11.8752 16.0514 11.9756 17.6284L12.2423 21.8163C12.4274 24.7227 12.52 26.1759 13.4246 27.0618C14.3292 27.9478 15.7206 27.9478 18.5033 27.9478Z" fill="#1C274C"/>
</svg>
