<svg width="23" height="23" viewBox="0 0 23 23" fill="none" xmlns="http://www.w3.org/2000/svg">
<g opacity="0.5">
<path d="M0.25 1.81222C0.25 1.3449 0.672132 0.966064 1.19286 0.966064H21.3071C21.8279 0.966064 22.25 1.3449 22.25 1.81222C22.25 2.27954 21.8279 2.65837 21.3071 2.65837H1.19286C0.672132 2.65837 0.25 2.27954 0.25 1.81222Z" fill="#1C274C"/>
<path d="M0.25 22.1199C0.25 21.6526 0.672132 21.2738 1.19286 21.2738H21.3071C21.8279 21.2738 22.25 21.6526 22.25 22.1199C22.25 22.5872 21.8279 22.9661 21.3071 22.9661H1.19286C0.672132 22.9661 0.25 22.5872 0.25 22.1199Z" fill="#1C274C"/>
</g>
<path d="M3.31815 11.2994C2.9877 11.6676 2.9877 12.2646 3.31815 12.6328L6.70276 16.4043C7.0332 16.7725 7.56896 16.7725 7.8994 16.4043C8.22985 16.0361 8.22985 15.4391 7.8994 15.0709L5.95926 12.909H16.5403L14.6002 15.0709C14.2698 15.4391 14.2698 16.0361 14.6002 16.4043C14.9306 16.7725 15.4664 16.7725 15.7968 16.4043L19.1815 12.6328C19.5119 12.2646 19.5119 11.6676 19.1815 11.2994L15.7968 7.528C15.4664 7.1598 14.9306 7.1598 14.6002 7.528C14.2698 7.89621 14.2698 8.4932 14.6002 8.86141L16.5403 11.0233H5.95926L7.8994 8.86141C8.22985 8.4932 8.22985 7.89621 7.8994 7.528C7.56896 7.1598 7.0332 7.1598 6.70276 7.528L3.31815 11.2994Z" fill="#1C274C"/>
</svg>
