<svg width="23" height="23" viewBox="0 0 23 23" fill="none" xmlns="http://www.w3.org/2000/svg">
<path d="M0.97168 11.6985C0.97168 6.51304 0.97168 3.92031 2.58259 2.3094C4.19351 0.698486 6.78623 0.698486 11.9717 0.698486C17.1571 0.698486 19.7499 0.698486 21.3608 2.3094C22.9717 3.92031 22.9717 6.51304 22.9717 11.6985C22.9717 16.8839 22.9717 19.4767 21.3608 21.0876C19.7499 22.6985 17.1571 22.6985 11.9717 22.6985C6.78623 22.6985 4.19351 22.6985 2.58259 21.0876C0.97168 19.4767 0.97168 16.8839 0.97168 11.6985Z" fill="#1C274C"/>
<path d="M9.71875 5.37354C9.24591 5.37347 8.80385 5.3734 8.4427 5.42735C8.03471 5.48829 7.61558 5.63237 7.28055 6.00463C6.95672 6.36444 6.84239 6.79321 6.79283 7.20278C6.74651 7.5856 6.74654 8.06017 6.74658 8.59604L6.74659 9.22355C6.74659 9.67918 7.11595 10.0485 7.57159 10.0485C8.02722 10.0485 8.39659 9.67918 8.39659 9.22355V8.64299C8.39659 8.04579 8.39801 7.67267 8.43089 7.40098C8.44631 7.27352 8.46559 7.20007 8.48117 7.15798C8.49433 7.12247 8.50372 7.11205 8.50684 7.10859L8.50773 7.10756C8.50923 7.10575 8.51033 7.10442 8.52025 7.09989C8.53854 7.09153 8.58544 7.07433 8.68648 7.05924C8.911 7.0257 9.22721 7.02355 9.77159 7.02355H11.1466V16.3735H9.22159C8.76595 16.3735 8.39659 16.7429 8.39659 17.1985C8.39659 17.6542 8.76595 18.0235 9.22159 18.0235H15.2716C15.7272 18.0235 16.0966 17.6542 16.0966 17.1985C16.0966 16.7429 15.7272 16.3735 15.2716 16.3735H12.7966V7.02355H14.1716C14.716 7.02355 15.0322 7.0257 15.2567 7.05924C15.3577 7.07433 15.4046 7.09153 15.4229 7.09989C15.4328 7.10442 15.4339 7.10575 15.4354 7.10756L15.4362 7.10842C15.4393 7.11188 15.4488 7.12247 15.462 7.15798C15.4776 7.20007 15.4969 7.27352 15.5123 7.40098C15.5452 7.67267 15.5466 8.04579 15.5466 8.64299V9.22355C15.5466 9.67918 15.916 10.0485 16.3716 10.0485C16.8272 10.0485 17.1966 9.67918 17.1966 9.22355L17.1966 8.59603C17.1966 8.06016 17.1967 7.5856 17.1503 7.20278C17.1008 6.79321 16.9865 6.36444 16.6626 6.00463C16.3276 5.63237 15.9085 5.48829 15.5005 5.42735C15.1393 5.3734 14.6973 5.37347 14.2244 5.37354H9.71875Z" fill="white"/>
</svg>
