<svg width="51" height="51" viewBox="0 0 51 51" fill="none" xmlns="http://www.w3.org/2000/svg">
<path opacity="0.5" d="M44.7593 18.7877C21.149 -39.5364 65.6524 70.4031 44.7593 18.7877V18.7877ZM0.971521 28.4875C0.933799 25.4845 2.19915 22.7841 5.15143 21.7219C5.2609 21.5732 5.36841 21.4579 5.55973 21.3138C5.90075 21.0564 6.21046 20.9802 6.61148 20.8427C20.7658 16.16 26.1978 8.86351 29.2873 4.71377C30.1892 3.50239 30.9087 2.5361 31.651 1.86965C32.0627 1.49991 32.3865 1.26225 32.8731 1.09791C33.3762 0.928 33.8443 0.912553 34.4963 1.0068C35.928 1.21347 37.3964 2.07231 38.8317 3.40952C42.01 6.37046 45.3614 11.9822 47.7249 17.8208C50.0999 23.6881 51.5055 29.8671 50.7788 33.9355C50.4793 35.6134 49.8188 36.9904 48.7254 37.9396L48.7238 37.938C48.6592 37.9937 48.5895 38.0444 48.5154 38.0895C47.7643 38.5485 47.0559 38.727 46.3227 38.7521C45.689 38.774 45.1341 38.677 44.5175 38.5618C43.4072 38.3544 42.3445 38.0818 41.1988 37.7881C37.4687 36.8318 32.8153 35.6395 25.4214 36.4197C25.2742 36.8602 25.166 37.3307 25.1614 37.7507C25.1585 38.03 25.1899 38.2516 25.2803 38.3261L25.4054 38.4286C26.0973 38.9946 26.4382 39.2729 26.6426 39.9596C26.8019 40.4968 26.7353 40.9595 26.6042 41.8703L26.5603 42.1769C26.4865 42.6995 26.7849 42.8141 27.0829 42.9283C27.9563 43.2633 28.8296 43.5981 29.3032 44.7353C29.4331 44.999 29.4702 45.2921 29.4095 45.5752C29.0301 47.328 27.8798 48.2175 26.7301 49.1065C26.5041 49.2812 26.2777 49.4564 26.0756 49.6285L26.0729 49.626C26.0403 49.6537 26.0063 49.6806 25.9705 49.7063C23.229 51.6778 21.3224 51.0904 19.8475 49.4315C18.9072 48.3741 18.3117 46.8975 17.7558 45.5192L17.5271 44.961C16.7336 43.0294 16.1382 40.72 15.5365 38.3161L15.3849 38.358C14.7763 38.5202 14.1698 38.6887 13.5654 38.8632C13.5058 38.8803 13.4748 38.8916 13.4496 38.9006C12.9089 39.094 12.6376 39.1905 12.2019 39.0502C8.60072 39.8817 5.60648 38.3038 3.59507 35.7726C2.774 34.7393 2.12436 33.5401 1.67747 32.2907C1.23318 31.048 0.987284 29.7419 0.971521 28.4875Z" fill="white"/>
<path fill-rule="evenodd" clip-rule="evenodd" d="M6.20224 22.8945C-1.24748 24.8655 3.63261 40.212 12.359 37.5268C12.695 37.7157 12.6903 37.6267 13.083 37.5129C14.2828 37.164 15.4914 36.8402 16.7079 36.5418C17.4303 39.4065 18.0858 42.2235 19.0096 44.472C20.188 47.34 21.4154 51.1695 24.9879 48.6004C26.1147 47.6408 27.5136 46.9012 27.8583 45.3085C27.2848 43.7611 24.6187 44.6736 24.9969 41.999C25.2588 40.1467 25.3165 40.279 24.2173 39.3763C23.1044 38.462 23.6841 36.3839 24.2641 35.1217C28.1444 34.6388 31.3175 34.6677 34.0087 34.9405C30.6001 31.4732 28.1867 27.8028 26.6949 23.9751C25.1978 20.1335 24.6334 16.1506 24.9263 12.0708C21.2171 15.5679 15.7379 19.3364 7.15484 22.1762C6.4564 22.4074 6.60043 22.3232 6.20224 22.8945Z" fill="white"/>
<path fill-rule="evenodd" clip-rule="evenodd" d="M36.4065 35.1883C38.0038 35.529 40.2007 36.0937 42.0854 36.5525C38.2288 33.0778 35.0792 27.7393 32.9496 22.2742C30.6765 16.4406 29.5588 10.3749 29.9718 6.20264C28.9527 7.51178 27.8139 8.98487 26.701 10.2832C25.4703 19.2374 28.4243 27.7062 36.4065 35.1883Z" fill="white"/>
<path fill-rule="evenodd" clip-rule="evenodd" d="M16.6929 36.5305C17.2935 38.9317 18.2285 42.5694 19.0101 44.4719C20.1884 47.3399 21.4159 51.1694 24.9883 48.6003C26.1152 47.6406 27.514 46.9011 27.8588 45.3084C27.2853 43.761 24.6192 44.6734 24.9974 41.9988C25.2592 40.1466 25.317 40.2789 24.2178 39.3762C23.1462 38.4959 23.6438 36.5368 24.2 35.2658C25.6546 34.6239 29.6045 34.5613 33.9536 34.9511C31.2203 32.1696 29.1543 29.5709 27.3085 25.5181C23.1472 28.801 20.8543 33.2476 16.6929 36.5305Z" fill="white"/>
</svg>
