<svg width="5" height="8" viewBox="0 0 5 8" fill="none" xmlns="http://www.w3.org/2000/svg">
<path d="M0.947822 7.06624C1.01365 7.06658 1.07891 7.05543 1.13986 7.03344C1.2008 7.01145 1.25623 6.97905 1.30297 6.9381L4.30425 4.28682C4.39741 4.20403 4.44971 4.09204 4.44971 3.9753C4.44971 3.85856 4.39741 3.74657 4.30425 3.66378L1.30297 1.0125C1.20728 0.940111 1.08419 0.902284 0.9583 0.90658C0.832408 0.910875 0.712988 0.956977 0.623903 1.03567C0.534818 1.11437 0.482629 1.21986 0.477767 1.33107C0.472904 1.44228 0.515726 1.55102 0.597674 1.63555L3.2438 3.97309L0.597674 6.31063C0.527433 6.37217 0.479427 6.45073 0.459726 6.53637C0.440025 6.62201 0.449514 6.71089 0.486993 6.79177C0.524472 6.87265 0.588257 6.94189 0.670283 6.99075C0.75231 7.0396 0.848894 7.06588 0.947822 7.06624Z" fill="#747688"/>
</svg>
