<svg width="31" height="31" viewBox="0 0 31 31" fill="none" xmlns="http://www.w3.org/2000/svg">
<path opacity="0.5" d="M30.105 15.7964C30.105 24.0807 23.3893 30.7964 15.105 30.7964C6.82071 30.7964 0.10498 24.0807 0.10498 15.7964C0.10498 7.51212 6.82071 0.796387 15.105 0.796387C23.3893 0.796387 30.105 7.51212 30.105 15.7964Z" fill="#1C274C"/>
<path d="M22.3154 26.3132C20.2646 27.7219 17.7811 28.5464 15.105 28.5464C12.4289 28.5464 9.94532 27.7219 7.89448 26.3131C6.9887 25.6909 6.60162 24.5056 7.12826 23.5411C8.22 21.5417 10.4696 20.2964 15.1049 20.2964C19.7404 20.2964 21.99 21.5418 23.0817 23.5412C23.6083 24.5057 23.2212 25.691 22.3154 26.3132Z" fill="white"/>
<path d="M15.105 15.7964C17.5903 15.7964 19.605 13.7817 19.605 11.2964C19.605 8.81111 17.5903 6.79639 15.105 6.79639C12.6198 6.79639 10.605 8.81111 10.605 11.2964C10.605 13.7817 12.6198 15.7964 15.105 15.7964Z" fill="white"/>
</svg>
