<svg width="26" height="26" viewBox="0 0 26 26" fill="none" xmlns="http://www.w3.org/2000/svg">
<rect x="0.637207" y="0.326172" width="25" height="25" rx="12.5" fill="white"/>
<path d="M20.304 15.3262C20.304 18.8716 18.1223 20.4274 16.4364 20.952C16.3662 20.9738 16.3007 20.9754 16.2424 20.9616C16.0018 20.9045 15.8825 20.5844 16.0556 20.3357C16.7893 19.2814 17.6374 17.6727 17.6374 16.1595C17.6374 14.534 16.2673 12.6149 15.1975 11.4313C14.9529 11.1607 14.5263 11.3397 14.5129 11.7042C14.4687 12.9119 14.2782 14.5277 13.4564 15.794C13.3241 15.9978 13.0433 16.0147 12.8926 15.8241C12.6359 15.4994 12.3791 15.0982 12.1223 14.7813C11.984 14.6107 11.7341 14.6083 11.5745 14.7594C10.9526 15.3483 10.0818 16.2666 10.0818 17.4095C10.0818 18.1844 10.382 18.9968 10.7208 19.6505C10.8892 19.9756 10.6345 20.3606 10.3191 20.2923C10.2856 20.285 10.2515 20.2727 10.2171 20.2547C8.73159 19.4751 6.9707 17.8959 6.9707 15.3262C6.9707 12.7041 10.5626 9.07187 11.9341 5.64027C12.1505 5.09878 12.8174 4.84434 13.2813 5.1977C16.0906 7.33775 20.304 11.4746 20.304 15.3262Z" fill="#FC4B5D"/>
<path opacity="0.5" d="M10.0815 17.41C10.0815 18.1849 10.3818 18.9973 10.7205 19.651C10.889 19.9761 10.6342 20.3611 10.3188 20.2928C10.7204 20.743 13.3673 21.0909 16.2421 20.9621C16.0015 20.905 15.8823 20.585 16.0554 20.3362C16.789 19.2819 17.6371 17.6732 17.6371 16.16C17.6371 14.5345 16.267 12.6154 15.1972 11.4318C14.9526 11.1612 14.526 11.3402 14.5126 11.7047C14.4685 12.9124 14.2779 14.5282 13.4561 15.7945C13.3238 15.9983 13.0431 16.0152 12.8924 15.8246C12.6356 15.4999 12.3788 15.0987 12.1221 14.7819C11.9838 14.6112 11.7338 14.6088 11.5743 14.7599C10.9523 15.3488 10.0815 16.2672 10.0815 17.41Z" fill="#FAD117"/>
</svg>
