<svg width="33" height="19" viewBox="0 0 33 19" fill="none" xmlns="http://www.w3.org/2000/svg">
<circle cx="1.44971" cy="9.40625" r="1" fill="black" fill-opacity="0.4"/>
<path d="M9.23734 10.751C8.90282 8.37832 8.73556 7.19199 9.44645 6.42412C10.1573 5.65625 11.4229 5.65625 13.954 5.65625H18.9454C21.4765 5.65625 22.7421 5.65625 23.453 6.42412C24.1639 7.19199 23.9966 8.37832 23.6621 10.751L23.3448 13.001C23.0825 14.8616 22.9513 15.792 22.2785 16.3491C21.6056 16.9063 20.6131 16.9062 18.6282 16.9062H14.2712C12.2863 16.9062 11.2939 16.9063 10.621 16.3491C9.94807 15.792 9.8169 14.8616 9.55457 13.001L9.23734 10.751Z" stroke="#1C274C"/>
<path opacity="0.5" d="M22.1212 5.65625C22.2927 4.67767 21.5397 3.78125 20.5462 3.78125H12.3534C11.3599 3.78125 10.6069 4.67767 10.7783 5.65625M20.5749 3.78125C20.5962 3.58694 20.6068 3.48976 20.607 3.40951C20.6087 2.64179 20.0304 1.99673 19.2671 1.91481C19.1873 1.90625 19.0895 1.90625 18.894 1.90625H14.0057C13.8102 1.90625 13.7125 1.90625 13.6327 1.91481C12.8693 1.99673 12.2911 2.64179 12.2927 3.40951C12.2929 3.48977 12.3035 3.58693 12.3248 3.78125" stroke="#1C274C"/>
<circle opacity="0.5" cx="19.8247" cy="9.03125" r="1.125" stroke="#1C274C"/>
<path opacity="0.5" d="M22.4494 15.4062L20.2862 13.7948C19.5886 13.2752 18.5498 13.2234 17.7819 13.6701L17.5818 13.7865C17.0482 14.0969 16.3223 14.0448 15.8611 13.6631L12.9825 11.2804C12.4079 10.8049 11.4863 10.7795 10.8748 11.2223L9.88184 11.9415" stroke="#1C274C" stroke-linecap="round"/>
<circle cx="31.4497" cy="9.40625" r="1" fill="black" fill-opacity="0.4"/>
</svg>
