<svg width="26" height="27" viewBox="0 0 26 27" fill="none" xmlns="http://www.w3.org/2000/svg">
<ellipse cx="13" cy="13.5971" rx="3.81833" ry="3.6" stroke="white" stroke-width="1.5"/>
<path d="M15.2469 1.77986C14.7791 1.59717 14.1861 1.59717 13 1.59717C11.8139 1.59717 11.2209 1.59717 10.7531 1.77986C10.1294 2.02344 9.6338 2.49066 9.37544 3.07873C9.2575 3.34718 9.21135 3.65937 9.19329 4.11476C9.16674 4.78398 8.80273 5.40344 8.18758 5.73828C7.57244 6.07313 6.82144 6.06062 6.19346 5.74768C5.76612 5.53473 5.45628 5.41631 5.15072 5.37839C4.48138 5.29531 3.80444 5.46632 3.26883 5.85381C2.86712 6.14442 2.5706 6.62864 1.97756 7.59709C1.38452 8.56553 1.088 9.04975 1.02191 9.52305C0.933791 10.1541 1.11518 10.7924 1.52616 11.2973C1.71375 11.5278 1.9774 11.7216 2.38657 11.964C2.9881 12.3203 3.37514 12.9274 3.3751 13.5972C3.37507 14.2669 2.98804 14.8739 2.38657 15.2302C1.97733 15.4726 1.71365 15.6664 1.52604 15.8969C1.11505 16.4019 0.933666 17.0401 1.02179 17.6712C1.08788 18.1445 1.3844 18.6287 1.97744 19.5972C2.57048 20.5656 2.867 21.0498 3.2687 21.3404C3.80431 21.7279 4.48125 21.8989 5.1506 21.8159C5.45614 21.7779 5.76596 21.6595 6.19326 21.4466C6.82129 21.1337 7.57234 21.1211 8.18752 21.456C8.8027 21.7909 9.16674 22.4104 9.19329 23.0796C9.21135 23.535 9.25751 23.8472 9.37544 24.1156C9.6338 24.7037 10.1294 25.1709 10.7531 25.4145C11.2209 25.5972 11.8139 25.5972 13 25.5972C14.1861 25.5972 14.7791 25.5972 15.2469 25.4145C15.8706 25.1709 16.3662 24.7037 16.6246 24.1156C16.7425 23.8472 16.7887 23.5349 16.8067 23.0795C16.8333 22.4103 17.1972 21.7909 17.8123 21.456C18.4275 21.1211 19.1786 21.1336 19.8067 21.4466C20.2339 21.6595 20.5437 21.7779 20.8493 21.8158C21.5186 21.8989 22.1956 21.7279 22.7312 21.3404C23.1329 21.0497 23.4294 20.5655 24.0224 19.5971C24.6155 18.6286 24.912 18.1444 24.9781 17.6711C25.0662 17.04 24.8848 16.4018 24.4738 15.8968C24.2862 15.6663 24.0226 15.4726 23.6134 15.2301C23.0119 14.8738 22.6249 14.2668 22.6249 13.5971C22.6249 12.9274 23.0119 12.3205 23.6134 11.9642C24.0226 11.7217 24.2863 11.528 24.474 11.2974C24.8849 10.7924 25.0663 10.1542 24.9782 9.52314C24.9121 9.04983 24.6156 8.56561 24.0226 7.59717C23.4295 6.62873 23.133 6.14451 22.7313 5.85389C22.1957 5.4664 21.5187 5.29539 20.8494 5.37847C20.5439 5.4164 20.234 5.5348 19.8067 5.74772C19.1787 6.06068 18.4277 6.07319 17.8125 5.73832C17.1973 5.40345 16.8333 4.78396 16.8067 4.11469C16.7886 3.65934 16.7425 3.34716 16.6246 3.07873C16.3662 2.49066 15.8706 2.02344 15.2469 1.77986Z" stroke="white" stroke-width="1.5"/>
</svg>
