<svg width="51" height="51" viewBox="0 0 51 51" fill="none" xmlns="http://www.w3.org/2000/svg">
<path d="M19.5347 1.39766C21.3256 0.990502 23.1881 0.775879 25.0986 0.775879C38.9057 0.775879 50.0986 11.9688 50.0986 25.7759C50.0986 39.583 38.9057 50.7759 25.0986 50.7759C23.1881 50.7759 21.3256 50.5613 19.5347 50.1541C18.5953 49.9405 18.007 49.006 18.2205 48.0666C18.4341 47.1273 19.3687 46.539 20.308 46.7525C21.8469 47.1024 23.4501 47.2875 25.0986 47.2875C36.9791 47.2875 46.6102 37.6564 46.6102 25.7759C46.6102 13.8953 36.9791 4.26425 25.0986 4.26425C23.4501 4.26425 21.8469 4.44937 20.308 4.79923C19.3687 5.01278 18.4341 4.42443 18.2205 3.48511C18.007 2.5458 18.5953 1.61121 19.5347 1.39766Z" fill="#1C274C"/>
<g opacity="0.5">
<path d="M14.2022 5.15198C14.7154 5.96714 14.4707 7.04403 13.6555 7.5573C10.9225 9.27814 8.60333 11.5973 6.8825 14.3303C6.36923 15.1455 5.29233 15.3902 4.47717 14.877C3.66202 14.3637 3.41729 13.2868 3.93055 12.4716C5.92944 9.29705 8.62224 6.60425 11.7968 4.60536C12.612 4.09209 13.6889 4.33682 14.2022 5.15198Z" fill="#1C274C"/>
<path d="M4.47717 36.6736C5.29233 36.1603 6.36923 36.4051 6.8825 37.2202C8.60333 39.9532 10.9225 42.2724 13.6555 43.9933C14.4707 44.5065 14.7154 45.5834 14.2022 46.3986C13.6889 47.2137 12.612 47.4585 11.7968 46.9452C8.62224 44.9463 5.92944 42.2535 3.93055 39.0789C3.41729 38.2638 3.66202 37.1869 4.47717 36.6736Z" fill="#1C274C"/>
</g>
<path opacity="0.3" d="M4.12296 20.9848C4.33651 20.0454 3.74816 19.1108 2.80884 18.8973C1.86953 18.6837 0.934942 19.2721 0.721391 20.2114C0.314233 22.0023 0.0996094 23.8648 0.0996094 25.7753C0.0996094 27.6858 0.314233 29.5483 0.721391 31.3393C0.934942 32.2786 1.86953 32.8669 2.80884 32.6534C3.74816 32.4398 4.33651 31.5053 4.12296 30.5659C3.7731 29.027 3.58798 27.4239 3.58798 25.7753C3.58798 24.1268 3.7731 22.5237 4.12296 20.9848Z" fill="#1C274C"/>
<path d="M33.0386 23.3132C34.8566 24.3866 34.8566 27.1653 33.0386 28.2387L22.0614 34.7197C20.2945 35.7629 18.123 34.4051 18.123 32.257L18.123 19.2949C18.123 17.1468 20.2945 15.789 22.0614 16.8322L33.0386 23.3132Z" fill="#1C274C"/>
</svg>
