<svg width="31" height="31" viewBox="0 0 31 31" fill="none" xmlns="http://www.w3.org/2000/svg">
<path opacity="0.5" d="M0.973145 12.7964C0.973145 8.65425 4.33101 5.29639 8.47314 5.29639C8.84892 5.29639 9.21824 5.32402 9.57919 5.37737C10.4826 2.71347 13.004 0.796387 15.9731 0.796387C18.9423 0.796387 21.4637 2.71347 22.3671 5.37737C22.728 5.32402 23.0974 5.29639 23.4731 5.29639C27.6153 5.29639 30.9731 8.65425 30.9731 12.7964C30.9731 15.8719 29.122 18.515 26.4731 19.6723L26.4731 24.7964C26.4731 27.6248 26.4731 29.039 25.5945 29.9177C24.7158 30.7964 23.3016 30.7964 20.4731 30.7964H11.4731C8.64472 30.7964 7.2305 30.7964 6.35182 29.9177C5.47314 29.039 5.47314 27.6248 5.47314 24.7964V19.6723C2.82429 18.515 0.973145 15.8719 0.973145 12.7964Z" fill="#1C274C"/>
<path d="M11.4731 23.6714C10.8518 23.6714 10.3481 24.1751 10.3481 24.7964C10.3481 25.4177 10.8518 25.9214 11.4731 25.9214H20.4731C21.0945 25.9214 21.5981 25.4177 21.5981 24.7964C21.5981 24.1751 21.0945 23.6714 20.4731 23.6714H11.4731Z" fill="#1C274C"/>
</svg>
