<svg width="31" height="31" viewBox="0 0 31 31" fill="none" xmlns="http://www.w3.org/2000/svg">
<path d="M0.0836403 4.54211C0.263214 3.87688 0.933475 3.48723 1.58071 3.67179L4.34341 4.45961C5.83022 4.88359 7.00687 6.06163 7.41734 7.58869L10.9054 20.5654L11.1621 21.4763C12.1888 21.8702 13.0706 22.6083 13.6303 23.5884L14.133 23.4289L28.5167 19.587C29.1668 19.4133 29.8307 19.8142 29.9997 20.4824C30.1686 21.1505 29.7786 21.8329 29.1285 22.0066L14.798 25.8344L14.265 26.0035C14.254 28.1218 12.8322 30.0563 10.6805 30.631C8.10143 31.3199 5.45045 29.7942 4.75938 27.2232C4.06832 24.6522 5.59886 22.0096 8.17795 21.3207C8.30576 21.2865 8.43374 21.2579 8.56165 21.2344L5.07278 8.25442C4.89721 7.60124 4.38326 7.06541 3.69311 6.86861L0.930415 6.08079C0.28318 5.89623 -0.0959336 5.20733 0.0836403 4.54211Z" fill="#1C274C"/>
<path opacity="0.5" d="M11.9003 10.3479L12.7345 13.4514C13.5209 16.3773 13.9142 17.8403 15.0704 18.5057C16.2265 19.1711 17.6941 18.7791 20.6293 17.9951L23.7425 17.1636C26.6777 16.3796 28.1453 15.9876 28.8128 14.835C29.4804 13.6825 29.0871 12.2195 28.3007 9.29359L27.4664 6.19012C26.68 3.26417 26.2867 1.80119 25.1306 1.13578C23.9744 0.470359 22.5068 0.862362 19.5716 1.64637L16.4584 2.47793C13.5232 3.26194 12.0556 3.65394 11.3881 4.80648C10.7205 5.95901 11.1138 7.42199 11.9003 10.3479Z" fill="#1C274C"/>
</svg>
