<svg width="31" height="31" viewBox="0 0 31 31" fill="none" xmlns="http://www.w3.org/2000/svg">
<path opacity="0.5" d="M11.5004 2.73259C11.1351 3.04385 10.9525 3.1995 10.7574 3.33024C10.3103 3.62994 9.80808 3.83795 9.27997 3.94221C9.04958 3.9877 8.81037 4.00679 8.33194 4.04497L8.33192 4.04497C7.12985 4.14089 6.52882 4.18886 6.02738 4.36597C4.86758 4.77562 3.95531 5.68789 3.54566 6.84769C3.36854 7.34913 3.32058 7.95017 3.22466 9.15223L3.22465 9.15225C3.18647 9.63068 3.16739 9.86989 3.1219 10.1003C3.01764 10.6284 2.80963 11.1306 2.50992 11.5777C2.37918 11.7728 2.22354 11.9554 1.91225 12.3207L1.91222 12.3207C1.13007 13.2385 0.738973 13.6975 0.50964 14.1773C-0.0207914 15.2871 -0.0207914 16.5772 0.50964 17.687C0.738975 18.1668 1.13006 18.6257 1.91222 19.5435L1.9123 19.5436C2.22352 19.9088 2.3792 20.0915 2.50992 20.2865C2.80963 20.7337 3.01764 21.2359 3.1219 21.764C3.16739 21.9944 3.18647 22.2336 3.22465 22.712L3.22466 22.712C3.32058 23.9141 3.36854 24.5151 3.54566 25.0166C3.95531 26.1764 4.86758 27.0886 6.02738 27.4983C6.52882 27.6754 7.12985 27.7234 8.33191 27.8193H8.33194C8.81037 27.8575 9.04958 27.8766 9.27997 27.922C9.80808 28.0263 10.3103 28.2343 10.7574 28.534C10.9525 28.6648 11.1351 28.8204 11.5004 29.1317L11.5004 29.1317C12.4182 29.9139 12.8772 30.305 13.357 30.5343C14.4667 31.0647 15.7569 31.0647 16.8667 30.5343C17.3465 30.305 17.8054 29.9139 18.7232 29.1317L18.7232 29.1317C19.0885 28.8204 19.2712 28.6648 19.4662 28.534C19.9134 28.2343 20.4156 28.0263 20.9437 27.922C21.174 27.8766 21.4133 27.8575 21.8917 27.8193H21.8917C23.0938 27.7234 23.6948 27.6754 24.1963 27.4983C25.3561 27.0886 26.2683 26.1764 26.678 25.0166C26.8551 24.5151 26.9031 23.9141 26.999 22.712V22.712C27.0372 22.2336 27.0563 21.9944 27.1017 21.764C27.206 21.2359 27.414 20.7337 27.7137 20.2865C27.8445 20.0915 28.0001 19.9088 28.3114 19.5435C29.0936 18.6257 29.4847 18.1668 29.714 17.687C30.2444 16.5772 30.2444 15.2871 29.714 14.1773C29.4847 13.6975 29.0936 13.2386 28.3114 12.3207L28.3114 12.3207C28.0001 11.9554 27.8444 11.7728 27.7137 11.5777C27.414 11.1306 27.206 10.6284 27.1017 10.1003C27.0563 9.86989 27.0372 9.63068 26.999 9.15225V9.15222C26.9031 7.95016 26.8551 7.34913 26.678 6.84769C26.2683 5.68789 25.3561 4.77562 24.1963 4.36597C23.6948 4.18886 23.0938 4.14089 21.8917 4.04497L21.8917 4.04497C21.4133 4.00679 21.1741 3.9877 20.9437 3.94221C20.4156 3.83795 19.9134 3.62994 19.4662 3.33024C19.2712 3.19949 19.0885 3.04384 18.7232 2.73254C17.8054 1.95037 17.3465 1.55929 16.8667 1.32995C15.7569 0.799521 14.4667 0.799521 13.357 1.32995C12.8772 1.55929 12.4182 1.95038 11.5004 2.73254L11.5004 2.73259Z" fill="#1C274C"/>
<path d="M20.8582 10.1872C21.3349 10.6639 21.3349 11.4369 20.8582 11.9136L11.0918 21.6799C10.6151 22.1567 9.84212 22.1567 9.36537 21.6799C8.88863 21.2032 8.88863 20.4302 9.36537 19.9535L19.1317 10.1872C19.6084 9.7104 20.3814 9.7104 20.8582 10.1872Z" fill="#1C274C"/>
<path d="M20.8088 20.0028C20.8088 20.9018 20.08 21.6306 19.1811 21.6306C18.2821 21.6306 17.5533 20.9018 17.5533 20.0028C17.5533 19.1039 18.2821 18.3751 19.1811 18.3751C20.08 18.3751 20.8088 19.1039 20.8088 20.0028Z" fill="#1C274C"/>
<path d="M11.0425 13.492C11.9414 13.492 12.6702 12.7632 12.6702 11.8642C12.6702 10.9653 11.9414 10.2365 11.0425 10.2365C10.1435 10.2365 9.41474 10.9653 9.41474 11.8642C9.41474 12.7632 10.1435 13.492 11.0425 13.492Z" fill="#1C274C"/>
</svg>
