<svg width="51" height="51" viewBox="0 0 51 51" fill="none" xmlns="http://www.w3.org/2000/svg">
<path opacity="0.5" d="M50.5304 37.0528C50.7392 34.4905 50.7672 31.3678 50.7709 27.6938C50.7719 26.7306 49.9906 25.9492 49.0273 25.9492C48.064 25.9492 47.2835 26.7306 47.2825 27.6939C47.2788 31.3879 47.2516 34.3394 47.0536 36.7695C46.8434 39.3485 46.45 41.1768 45.7875 42.5682L39.2049 36.6439C36.7874 34.4681 33.1871 34.2515 30.5261 36.1216L29.8326 36.609C27.9834 37.9086 25.4676 37.6906 23.8694 36.0924L13.8933 26.1163C11.9021 24.1251 8.70811 24.0188 6.58888 25.8731L4.26065 27.9103C4.25986 27.2778 4.25986 26.6246 4.25986 25.9492C4.25986 20.4185 4.26356 16.4459 4.67002 13.4227C5.06974 10.4496 5.82995 8.65725 7.15473 7.33247C8.47952 6.00769 10.2719 5.24747 13.2449 4.84776C15.9403 4.48538 19.3902 4.44313 24.0262 4.43823C24.9895 4.43721 25.7715 3.65669 25.7715 2.6934C25.7715 1.73011 24.9898 0.948801 24.0266 0.949809C19.4551 0.954593 15.6993 0.998019 12.7801 1.39049C9.42025 1.84221 6.76904 2.78486 4.68808 4.86582C2.60713 6.94677 1.66448 9.59799 1.21276 12.9578C0.771434 16.2404 0.771456 20.4474 0.771485 25.8158V25.9515C0.771485 27.1785 0.771485 28.3415 0.776298 29.441C0.795211 33.7639 0.886252 37.2452 1.38393 40.0433C1.89055 42.8916 2.84325 45.1878 4.68808 47.0326C6.76904 49.1136 9.42025 50.0562 12.7801 50.508C16.0626 50.9493 20.2696 50.9493 25.638 50.9492H25.9049C31.2732 50.9493 35.4804 50.9493 38.7629 50.508C42.1227 50.0562 44.7739 49.1136 46.8549 47.0326C47.5882 46.2994 48.1904 45.4843 48.6805 44.5742C49.7917 42.5107 50.2882 40.0261 50.5304 37.0528Z" fill="#1C274C"/>
<path fill-rule="evenodd" clip-rule="evenodd" d="M39.5215 23.4492C34.2182 23.4492 31.5665 23.4492 29.919 21.8017C28.2715 20.1542 28.2715 17.5025 28.2715 12.1992C28.2715 6.89592 28.2715 4.24427 29.919 2.59674C31.5665 0.949219 34.2182 0.949219 39.5215 0.949219C44.8248 0.949219 47.4764 0.949219 49.124 2.59674C50.7715 4.24427 50.7715 6.89592 50.7715 12.1992C50.7715 17.5025 50.7715 20.1542 49.124 21.8017C47.4764 23.4492 44.8248 23.4492 39.5215 23.4492ZM35.8846 16.4892C33.9727 14.8128 32.0215 12.579 32.0215 10.4443C32.0215 6.01146 36.1466 4.35647 39.5215 7.78077C42.8964 4.35647 47.0215 6.01146 47.0215 10.4443C47.0215 12.5791 45.0703 14.8128 43.1584 16.4892C41.6681 17.7959 40.9229 18.4492 39.5215 18.4492C38.1201 18.4492 37.3749 17.7959 35.8846 16.4892Z" fill="#1C274C"/>
</svg>
