<svg width="31" height="30" viewBox="0 0 31 30" fill="none" xmlns="http://www.w3.org/2000/svg">
<path d="M7.31503 5.3901L11.095 5.66793L11.4363 9.44126H10.3182C10.1984 9.44126 10.101 9.54869 10.101 9.68077C10.101 9.81284 10.1984 9.92028 10.3182 9.92028H11.4791L11.8073 13.5506L10.6489 13.6252C10.5986 13.5075 10.472 13.4548 10.3641 13.5082C10.2543 13.5622 10.2052 13.7039 10.2543 13.8243L11.7794 17.5901C11.8663 17.805 12.0617 17.9418 12.2714 17.9418C12.2969 17.9418 12.3217 17.9398 12.3471 17.9357L27.4813 15.5365C27.7537 15.4934 27.9696 15.2532 28.0069 14.9527L28.8166 8.38946C28.8327 8.25807 28.7496 8.13763 28.6304 8.11984C28.5125 8.10205 28.4021 8.19375 28.386 8.32513L28.2482 9.44194H25.448L25.2004 6.70604L27.2865 6.85933C27.2914 6.86001 27.2964 6.86001 27.3014 6.86001C27.4149 6.86001 27.5105 6.76284 27.5179 6.63624C27.526 6.50417 27.4354 6.38988 27.3156 6.38099L7.11462 4.89533L6.46063 3.28103C6.3204 2.93408 6.07097 2.65556 5.75887 2.49543L5.01553 2.11495C5.05214 1.97125 5.04593 1.81933 4.99505 1.67836C4.93362 1.50933 4.81697 1.37657 4.66496 1.30472L2.85935 0.448639C2.16628 0.120167 1.35965 0.475328 1.06182 1.24039C0.917248 1.61061 0.912284 2.0212 1.04817 2.39621C1.18343 2.77053 1.44342 3.06479 1.7791 3.22423L3.5847 4.08031C3.66288 4.11727 3.7454 4.13574 3.82855 4.13574C3.90611 4.13574 3.98367 4.11932 4.05751 4.08716C4.14065 4.05089 4.21387 3.99546 4.27405 3.92634L4.87344 4.2336L6.47614 8.19238C6.51213 8.28134 6.59155 8.33403 6.6747 8.33403C6.70448 8.33403 6.73426 8.32719 6.7628 8.31282C6.87263 8.25875 6.92165 8.1171 6.87263 7.99666L5.23704 3.95508C5.21594 3.90239 5.17747 3.85996 5.13032 3.83533L4.48191 3.50343L4.85048 2.55771L5.57706 2.92997C5.79423 3.04152 5.96735 3.23518 6.06538 3.47606L7.69725 7.50669C7.73324 7.59565 7.81266 7.64834 7.8958 7.64834C7.92559 7.64834 7.95537 7.6415 7.98391 7.62713C8.09374 7.57307 8.14276 7.43142 8.09374 7.31098L7.31503 5.3901ZM1.45148 2.21828C1.35903 1.96235 1.36213 1.68246 1.46079 1.42927C1.61281 1.03921 1.95842 0.805169 2.32078 0.805169C2.44363 0.805169 2.56835 0.831857 2.68872 0.888655L3.09948 1.083C2.68438 1.16649 2.31395 1.46964 2.13525 1.9295L1.82998 2.71236C1.65934 2.5974 1.52656 2.427 1.45148 2.21828ZM12.2845 14.0002L15.2218 13.8113L15.5054 16.951L12.5928 17.4129L12.2845 14.0002ZM15.6562 13.7832L18.5972 13.5944L18.8529 16.4206L15.9366 16.8832L15.6562 13.7832ZM17.9259 6.17022L18.2219 9.44126H15.264L14.9488 5.95124L17.9259 6.17022ZM18.2647 9.92028L18.5538 13.1167L15.6127 13.3056L15.3068 9.91959H18.2647V9.92028ZM19.031 13.5663L21.9733 13.3774L22.2004 15.8896L19.2829 16.3522L19.031 13.5663ZM22.407 13.3494L25.3481 13.1605L25.5466 15.3592L22.6298 15.8218L22.407 13.3494ZM22.3636 12.8724L22.0968 9.92028H25.0552L25.3047 12.6829L22.3636 12.8724ZM21.9299 12.9005L18.9875 13.0894L18.7009 9.92028H21.6599L21.9299 12.9005ZM18.6581 9.44126L18.3652 6.20238L21.3441 6.42136L21.6171 9.44126H18.6581ZM11.5343 5.70009L14.5083 5.91907L14.8266 9.44126H11.8719L11.5343 5.70009ZM11.9159 9.92028H14.8706L15.179 13.3337L12.2417 13.5225L11.9159 9.92028ZM10.8387 14.0932L11.8508 14.0282L12.1492 17.3287L10.8387 14.0932ZM27.4199 15.0622L25.9773 15.2908L25.7824 13.1325L27.8095 13.0024L27.5769 14.8877C27.5657 14.9774 27.5012 15.0492 27.4199 15.0622ZM28.1893 9.92028L27.8685 12.5186L25.7384 12.6555L25.4914 9.92028H28.1893ZM25.0124 9.44126H22.054L21.784 6.45421L24.7624 6.67319L25.0124 9.44126Z" fill="#1C274C"/>
<path d="M29.9973 8.22374C29.8788 8.20664 29.7689 8.29765 29.7528 8.42904L28.9102 15.2585C28.8295 15.9134 28.3586 16.4369 27.7654 16.5307L12.0356 19.0243C11.6496 19.0852 11.2699 18.8539 11.1111 18.4618L9.36813 14.1575C9.31912 14.037 9.19068 13.9823 9.08147 14.0363C8.97165 14.0904 8.92263 14.2321 8.97165 14.3525L10.7146 18.6568C10.9268 19.181 11.4027 19.5129 11.9127 19.5129C11.9742 19.5129 12.0356 19.5081 12.0976 19.4986L23.615 17.6728L23.6888 18.3646C23.7019 18.4892 23.6243 18.6021 23.5114 18.6213L13.3473 20.3492C13.083 20.3943 12.8435 20.5586 12.6902 20.8001L11.005 23.4608C10.8846 23.651 10.8703 23.8967 10.9671 24.1026C11.0645 24.3086 11.2556 24.4359 11.466 24.4359H27.3106C27.377 24.4359 27.4316 24.4954 27.4316 24.5694V25.3317C27.4316 25.4049 27.3776 25.4651 27.3106 25.4651H25.0285H23.3004H14.7192H12.9911H11.3276C10.7872 25.4651 10.3162 25.1497 10.0662 24.6214C9.81674 24.0931 9.85211 23.4861 10.1611 22.9975L11.842 20.343C11.9109 20.2349 11.8867 20.085 11.788 20.0097C11.69 19.9338 11.5541 19.9605 11.4858 20.0686L9.80495 22.7231C9.40102 23.3608 9.35448 24.1526 9.68086 24.8424C10.0072 25.5322 10.6221 25.9435 11.3276 25.9435H12.7926L13.0011 28.5172C13.024 28.7984 13.2337 29.0106 13.49 29.0106H14.2209C14.4766 29.0106 14.6869 28.7984 14.7099 28.5172L14.9183 25.9435H23.1031L23.3116 28.5172C23.3346 28.7984 23.5443 29.0106 23.8005 29.0106H24.5308C24.7871 29.0106 24.9968 28.7984 25.0198 28.5172L25.2283 25.9435H27.3118C27.6177 25.9435 27.8672 25.6691 27.8672 25.331V24.5687C27.8672 24.2313 27.6184 23.9562 27.3118 23.9562H11.4666C11.3965 23.9562 11.3642 23.9028 11.3531 23.8802C11.3425 23.8577 11.3214 23.7974 11.3617 23.7345L13.047 21.0739C13.1326 20.939 13.2666 20.8467 13.4143 20.822L23.5784 19.0941C23.9234 19.0353 24.1617 18.6904 24.1207 18.3078L24.0456 17.6037L27.8281 17.0042C28.6124 16.8797 29.2347 16.1885 29.3414 15.3222L30.184 8.49268C30.1996 8.36198 30.1164 8.24154 29.9973 8.22374ZM14.2768 28.4748C14.2743 28.5069 14.2501 28.5315 14.2203 28.5315H13.4894C13.4602 28.5315 13.4354 28.5069 13.4329 28.4748L13.2282 25.9435H14.4809L14.2768 28.4748ZM24.5867 28.4748C24.5842 28.5069 24.56 28.5315 24.5302 28.5315H23.7999C23.7701 28.5315 23.7459 28.5069 23.7435 28.4748L23.5387 25.9435H24.7914L24.5867 28.4748Z" fill="#424852"/>
</svg>
