<svg width="31" height="31" viewBox="0 0 31 31" fill="none" xmlns="http://www.w3.org/2000/svg">
<path d="M26.705 9.31689C26.4278 9.49184 26.1057 9.54482 25.8038 9.4863C27.9007 13.0265 27.9303 17.4606 25.8882 21.0242C25.6227 21.4868 25.6566 22.0634 25.9658 22.4977C28.7638 18.6002 29.0095 13.4374 26.705 9.31689Z" fill="#EBECED"/>
<path d="M18.3104 15.2788C17.9272 15.5308 17.5046 15.731 17.0506 15.8683L16.5985 16.0045C16.2227 16.1178 15.8217 16.1178 15.4453 16.0045L14.9931 15.8683C14.5385 15.7316 14.1159 15.5308 13.7334 15.2788V16.4856C14.1166 16.7375 14.5391 16.9377 14.9931 17.0751L15.4453 17.2112C15.8211 17.3246 16.2221 17.3246 16.5985 17.2112L17.0506 17.0751C17.5052 16.9383 17.9278 16.7375 18.3104 16.4856V15.2788Z" fill="#EBECED"/>
<path d="M19.6848 23.1113C20.4996 23.1113 21.1602 22.4508 21.1602 21.636C21.1602 20.8212 20.4996 20.1606 19.6848 20.1606C18.87 20.1606 18.2095 20.8212 18.2095 21.636C18.2095 22.4508 18.87 23.1113 19.6848 23.1113Z" fill="#1C274C"/>
<path d="M11.2569 7.1344C11.1281 4.95372 11.8131 4.66604 12.6139 4.50342C12.6922 3.16606 13.5823 2.13732 16.026 2.125C18.7549 2.125 20.9288 4.40855 20.7952 7.1344L20.7816 7.49107C20.7761 7.63337 20.59 7.68388 20.5143 7.56314C20.2007 7.06356 19.9512 6.78697 19.9512 6.78697C19.9512 6.78697 14.717 7.17382 12.8135 5.63749C12.3626 7.10298 11.9166 7.45103 11.5371 7.78244C11.4472 7.86129 11.3061 7.80277 11.2969 7.68388L11.2569 7.1344Z" fill="#1C274C"/>
<path d="M8.69725 5.36768C8.18719 5.73975 7.69931 6.15555 7.23915 6.61571C3.82768 10.0278 2.83591 14.9423 4.26382 19.2285L4.54841 18.9328C4.78989 18.6815 4.8866 18.3248 4.80591 17.986C4.43568 16.4355 4.39195 14.8191 4.68702 13.2274C5.1096 10.9475 6.20302 8.87216 7.84962 7.22556C8.04982 7.02536 8.25618 6.83378 8.46809 6.65021C8.83831 6.3305 8.93811 5.79765 8.69909 5.37014L8.69725 5.36768Z" fill="#EBECED"/>
<path d="M26.556 4.71956C23.723 1.88653 19.9561 0.326172 15.9496 0.326172C12.5184 0.326172 9.26339 1.47134 6.61947 3.57932C5.9474 2.99411 4.92359 3.0206 4.28417 3.66064C3.64475 4.30067 3.61765 5.32387 4.20286 5.99593C2.09487 8.63985 0.949707 11.8948 0.949707 15.326C0.949707 19.3326 2.51006 23.0995 5.34309 25.9325C7.98948 28.5789 11.5044 30.1337 15.2405 30.3093C15.4783 30.3203 15.7161 30.3259 15.9533 30.3259C19.3462 30.3259 22.6271 29.1838 25.2797 27.0721C25.6012 27.3524 26.0022 27.4922 26.4039 27.4922C26.8425 27.4922 27.2811 27.3253 27.6156 26.9914C28.2833 26.3237 28.2833 25.2364 27.6156 24.5687C26.9478 23.9009 25.8606 23.9009 25.1928 24.5687C24.6002 25.1613 24.5337 26.0828 24.992 26.7499C22.239 28.9343 18.7925 30.045 15.2609 29.8787C11.6326 29.708 8.21863 28.1982 5.64802 25.6276C2.8963 22.8759 1.38091 19.2174 1.38091 15.326C1.38091 12.002 2.48789 8.84806 4.52565 6.28361C4.81641 6.48381 5.15583 6.58422 5.49587 6.58422C5.93446 6.58422 6.37306 6.41728 6.70756 6.08341C7.30016 5.4908 7.36669 4.56864 6.90776 3.90211C9.4716 1.86435 12.625 0.757379 15.9496 0.757379C19.8409 0.757379 23.4994 2.27277 26.2511 5.02448C31.1835 9.95688 31.9283 17.7217 28.0215 23.4869C27.955 23.5855 27.9803 23.7198 28.0788 23.7863C28.1774 23.8528 28.3117 23.8276 28.3782 23.729C32.4007 17.7925 31.6344 9.79795 26.556 4.71956ZM25.4971 24.8736C25.7472 24.6235 26.0755 24.4984 26.4039 24.4984C26.7322 24.4984 27.0605 24.6235 27.3106 24.8736C27.8102 25.3732 27.8102 26.1869 27.3106 26.6865C26.8111 27.1867 25.9973 27.1867 25.4977 26.6865C24.9975 26.1869 24.9975 25.3732 25.4971 24.8736ZM6.40202 5.77848C5.90243 6.27868 5.08868 6.27868 4.5891 5.77848C4.08951 5.2789 4.08951 4.46515 4.5891 3.96556C4.8392 3.71546 5.16753 3.59041 5.49587 3.59041C5.8242 3.59041 6.15253 3.71546 6.40263 3.96556C6.9016 4.46515 6.9016 5.2789 6.40202 5.77848Z" fill="#2A3853"/>
<path d="M5.85983 23.8527C6.10869 23.8527 6.35879 23.7892 6.5861 23.6586C6.7475 23.8397 6.91505 24.0172 7.0863 24.189C7.81196 24.9147 8.62202 25.5473 9.49306 26.0715C9.80784 26.8372 10.5113 27.3991 11.3682 27.5149C12.7573 27.7034 14.3041 27.797 15.8743 27.797C17.5 27.797 19.1515 27.696 20.6792 27.4951C21.7634 27.3522 22.6018 26.4929 22.7188 25.4044L23.1161 21.7114C23.3102 19.9102 22.1213 18.2439 20.3521 17.8343C19.9776 17.7474 19.5981 17.671 19.2236 17.6069C19.1059 17.5872 18.995 17.6661 18.9747 17.7831C18.9544 17.9008 19.0338 18.0117 19.1509 18.032C19.5174 18.0948 19.8888 18.1694 20.2554 18.2538C21.8127 18.6141 22.8586 20.0802 22.688 21.6646L22.2907 25.3576C22.1952 26.2477 21.5096 26.9506 20.6231 27.067C17.6558 27.4576 14.2179 27.465 11.4261 27.0867C10.539 26.9666 9.85281 26.2637 9.75732 25.3773L9.35815 21.6652C9.18752 20.0808 10.2335 18.6147 11.7908 18.2544C12.4025 18.1127 13.0222 18.0018 13.6345 17.9223C14.2271 18.5858 15.0673 18.9646 15.9587 18.9646C16.8994 18.9646 17.7802 18.5457 18.3759 17.8152C18.4073 17.777 18.4246 17.7283 18.4246 17.679V15.4842C18.4246 15.4762 18.4234 15.4688 18.4221 15.4614C19.616 14.6772 20.4408 13.4088 20.6521 11.9686L21.1849 11.7321C21.6057 11.5448 21.8995 11.145 21.9513 10.6873L22.0745 9.60435C22.1053 9.33392 22.019 9.06226 21.8373 8.85898C21.6556 8.6557 21.3956 8.53927 21.1233 8.53927H20.8449L20.8504 8.42901C20.8566 8.31012 20.7648 8.20909 20.6459 8.20293C20.5264 8.19739 20.426 8.28856 20.4199 8.40745L20.2695 11.4622C20.1741 13.4107 18.8546 15.0979 16.9868 15.661L16.5347 15.7971C16.1983 15.8987 15.8423 15.8987 15.5059 15.7971L15.0538 15.661C13.186 15.0979 11.8672 13.4107 11.7711 11.4622L11.6208 8.40745C11.6152 8.28856 11.5142 8.19677 11.3947 8.20293C11.2758 8.20847 11.184 8.31012 11.1902 8.42901L11.1957 8.53927H10.921C10.6487 8.53927 10.3887 8.6557 10.207 8.85898C10.0253 9.06226 9.93905 9.33392 9.96985 9.60435L10.0931 10.6873C10.1448 11.145 10.4386 11.5454 10.8594 11.7321L11.3879 11.9668C11.593 13.3651 12.3754 14.602 13.5131 15.3912L13.5113 17.5022C12.9064 17.5835 12.2959 17.6944 11.6922 17.8343C9.92242 18.2433 8.73413 19.9102 8.92817 21.7114L9.32797 25.4241C9.3292 25.4364 9.33105 25.4488 9.33289 25.4617C8.63619 25.0058 7.98445 24.4773 7.39061 23.8841C7.23107 23.7245 7.07521 23.5595 6.92429 23.3913C7.38815 22.8972 7.45961 22.1278 7.0555 21.5513C6.83127 21.2309 6.49617 21.0172 6.11116 20.9494C5.72615 20.8817 5.33807 20.9673 5.01774 21.1915C4.35676 21.6541 4.19537 22.5683 4.65799 23.2299C4.9432 23.6352 5.39843 23.8527 5.85983 23.8527ZM21.124 8.96986C21.2755 8.96986 21.4147 9.03208 21.5163 9.14543C21.618 9.25877 21.6636 9.40415 21.6463 9.55507L21.5231 10.638C21.4886 10.9442 21.2915 11.2121 21.01 11.3372L20.7008 11.4746L20.824 8.96986H21.124ZM10.5224 10.6386L10.3992 9.55569C10.382 9.40477 10.4282 9.25939 10.5292 9.14604C10.6302 9.0327 10.7694 8.97048 10.9216 8.97048H11.2173L11.3405 11.4739L11.0355 11.3384C10.754 11.2128 10.5575 10.9448 10.5224 10.6386ZM14.93 16.0743L15.3821 16.2105C15.5909 16.2733 15.8059 16.3047 16.0209 16.3047C16.2359 16.3047 16.4509 16.2733 16.6597 16.2105L17.1119 16.0743C17.4205 15.9813 17.7149 15.8599 17.9934 15.7139V17.6002C17.4815 18.194 16.7441 18.5328 15.9587 18.5328C15.185 18.5328 14.4544 18.202 13.9431 17.6217L13.945 15.6573C14.2542 15.8291 14.5832 15.9696 14.93 16.0743ZM5.26599 21.5439C5.44156 21.4213 5.64607 21.3572 5.85551 21.3572C5.91588 21.3572 5.97625 21.3628 6.03724 21.3732C6.3089 21.4213 6.54545 21.5722 6.70314 21.7977C7.02963 22.264 6.91567 22.909 6.44935 23.2354C5.98303 23.5619 5.33807 23.448 5.01158 22.9816C4.68571 22.5153 4.79967 21.8704 5.26599 21.5439Z" fill="#1C274C"/>
<path d="M7.39198 6.76864C8.60182 5.5588 10.018 4.63724 11.6012 4.02862C11.7121 3.98612 11.7681 3.86107 11.725 3.75019C11.6825 3.63931 11.5574 3.58325 11.4466 3.62637C9.80612 4.25655 8.3394 5.21136 7.08705 6.46371C5.28584 8.26493 4.08893 10.5362 3.62692 13.0316C3.17538 15.4686 3.44704 17.9579 4.41172 20.2309C4.44683 20.3129 4.52629 20.3621 4.61007 20.3621C4.63841 20.3621 4.66675 20.3566 4.69447 20.3449C4.80412 20.2981 4.85524 20.1718 4.80843 20.0621C3.8764 17.8673 3.6146 15.4636 4.05073 13.1099C4.49734 10.7006 5.65236 8.50764 7.39198 6.76864Z" fill="#2A3853"/>
<path d="M24.5072 23.8837C24.2694 24.1209 24.0206 24.3506 23.7662 24.5663C23.6756 24.6433 23.6639 24.7794 23.7409 24.8699C23.7834 24.9205 23.8444 24.9463 23.9054 24.9463C23.9547 24.9463 24.0039 24.9297 24.0446 24.8952C24.3076 24.6722 24.5664 24.4344 24.8122 24.1886C28.815 20.1858 29.5382 14.1273 26.9842 9.38036C27.5571 8.89802 27.6772 8.04731 27.2398 7.42268C26.8025 6.79743 25.9616 6.6194 25.3124 6.99332C25.1516 6.81283 24.9852 6.63603 24.8122 6.46355C23.8198 5.47116 22.6826 4.65987 21.4327 4.05187C21.3255 4.00012 21.1968 4.04448 21.1444 4.15166C21.0921 4.25885 21.137 4.3876 21.2442 4.43996C22.451 5.02701 23.5493 5.81058 24.5072 6.76909C24.668 6.92987 24.8232 7.09435 24.9729 7.2619C24.5097 7.75594 24.4382 8.52534 24.8417 9.10192C25.0659 9.42225 25.4011 9.63601 25.7861 9.70377C25.8717 9.71917 25.9579 9.72656 26.0436 9.72656C26.2413 9.72656 26.4347 9.6859 26.6158 9.60767C29.0688 14.1871 28.3665 20.025 24.5072 23.8837ZM25.8618 9.27872C25.5902 9.23067 25.3536 9.07975 25.1959 8.85429C24.8694 8.38797 24.9834 7.743 25.4497 7.41652C25.6296 7.29085 25.836 7.23048 26.0399 7.23048C26.3657 7.23048 26.6867 7.38387 26.8869 7.67032C27.2134 8.13664 27.0994 8.7816 26.6331 9.10808C26.407 9.26578 26.1335 9.32677 25.8618 9.27872Z" fill="#2A3853"/>
</svg>
