<svg width="28" height="26" viewBox="0 0 28 26" fill="none" xmlns="http://www.w3.org/2000/svg">
<path d="M1.58742 25.3073C1.58742 25.3073 1.70372 25.2771 1.90086 25.2088C3.70147 24.4596 4.84534 23.3761 5.30261 22.8827C6.09427 22.0125 6.7165 20.9199 6.70875 19.682C6.70875 19.364 6.67095 19.0302 6.58198 18.6716C6.24643 17.2918 5.38054 15.5476 4.56039 13.5933C3.74702 11.6349 2.97611 9.42794 2.97281 6.98406C2.96661 5.24144 3.38861 3.39621 4.41539 1.55176C3.16937 2.60642 0.0548925 5.85587 1.19702 11.2522C2.39477 16.912 4.9064 20.7511 1.58742 25.3073Z" fill="#E54C3A"/>
<path d="M23.2285 13.2346C24.2008 12.6521 24.8986 11.8823 25.319 10.9276C25.7388 9.97354 25.9498 9.05867 25.9498 8.18358C25.9498 7.14954 25.812 6.189 25.5355 5.30059C25.2589 4.41256 24.8061 3.63684 24.1747 2.97401C23.5443 2.31157 22.7362 1.78789 21.7495 1.40297C20.7634 1.01883 19.561 0.826172 18.1415 0.826172H7.9306C7.92458 0.902215 7.91797 1.01883 7.91797 1.17307C7.92924 1.93409 8.06567 3.47593 9.16137 5.20122H9.17536L9.17303 5.19573H18.607C18.6674 5.19573 18.7211 5.19946 18.7786 5.20122H18.8114C18.8324 5.20122 18.8526 5.20377 18.8736 5.20436C18.9092 5.20612 18.9455 5.2073 18.9797 5.20945C19.0491 5.21337 19.1175 5.21984 19.185 5.22905C19.7925 5.29726 20.132 5.45052 20.132 5.45052C20.132 5.45052 22.1951 6.07553 23.5557 8.86424C23.5557 8.86424 22.9119 9.13138 22.0492 9.83008C20.9475 10.8051 20.0319 11.7745 19.3972 12.9357C18.9935 13.665 18.6812 14.513 18.3273 15.4224H18.8112C19.5738 15.4224 20.2313 15.7144 20.783 16.2973C21.3354 16.8806 21.6119 17.5569 21.6119 18.3258C21.6119 19.2534 21.3486 20.0025 20.8231 20.5722C20.2966 21.1429 19.6131 21.4273 18.772 21.4273H14.8228C14.0984 22.2601 13.2923 23.0281 12.397 23.6974C11.3207 24.5018 10.2612 25.166 9.1262 25.8023H18.1417C19.5614 25.8023 20.7698 25.5905 21.7693 25.166C22.769 24.7417 23.5777 24.185 24.1951 23.4958C24.8124 22.8063 25.2591 22.018 25.5355 21.1294C25.812 20.2412 25.9498 19.3332 25.9498 18.4055C25.9498 17.4246 25.7331 16.4635 25.2994 15.5222C24.8654 14.5808 24.1747 13.8182 23.2285 13.2346Z" fill="#26A75C"/>
<path d="M15.5227 7.04467C13.8134 7.13899 12.1138 7.06758 12.114 7.06835C11.5185 7.04101 11.0139 7.00021 11.0139 7.00021C13.7349 10.8604 12.9105 14.2918 12.9105 14.2918C12.6763 12.9492 12.3838 10.692 9.68941 8.56073C5.15155 4.89146 5.83795 0.850098 5.83795 0.850098C0.448332 7.79731 5.90269 13.6604 7.06943 18.3591C8.23656 23.059 2.85645 25.8263 2.85645 25.8263C4.15519 25.6773 6.06978 25.1514 7.43366 24.412C8.62793 23.7635 9.69988 23.1069 10.7999 22.2981C12.5234 21.0303 13.9218 19.3522 14.9771 17.506C15.2839 16.969 15.5636 16.4177 15.8151 15.8527C16.364 14.6217 16.7565 13.3288 17.4143 12.1457C18.1623 10.8002 19.2073 9.73359 20.3634 8.72705C20.3783 8.71434 20.6856 8.44505 20.6985 8.45929C19.4167 7.04467 17.2324 6.95054 15.5227 7.04467ZM18.4255 8.29664C18.29 8.29664 18.1799 8.18769 18.1799 8.05294C18.1799 7.9182 18.2898 7.80925 18.4255 7.80925C18.5612 7.80925 18.6709 7.9182 18.6709 8.05294C18.6707 8.18769 18.561 8.29664 18.4255 8.29664Z" fill="#FAD117"/>
<circle cx="23.9497" cy="3.82617" r="3" fill="url(#paint0_linear_603_1370)" stroke="white"/>
<defs>
<linearGradient id="paint0_linear_603_1370" x1="20.9497" y1="0.826172" x2="20.9497" y2="6.82617" gradientUnits="userSpaceOnUse">
<stop stop-color="#FD6F7E"/>
<stop offset="1" stop-color="#FC4B5D"/>
</linearGradient>
</defs>
</svg>
