<svg width="13" height="11" viewBox="0 0 13 11" fill="none" xmlns="http://www.w3.org/2000/svg">
<path d="M9.2408 0.786951C8.71695 0.763377 8.19497 0.87442 7.72718 1.11015L6.94421 1.50469C6.77416 1.5903 6.56923 1.57293 6.41663 1.45879L5.71401 0.934593C5.29418 0.621318 4.80023 0.421566 4.2795 0.354569C2.7092 0.151715 1.24541 1.18087 0.910922 2.72243C0.674225 3.81487 0.881024 4.95817 1.4927 5.89489C2.69487 7.73608 4.00294 9.33844 5.43807 10.653C5.67539 10.8701 6.03106 10.9011 6.30264 10.728C7.94581 9.68211 9.513 8.32976 11.0179 6.72492C11.7834 5.90792 12.1871 4.81797 12.1441 3.70134C12.0849 2.12566 10.8223 0.858911 9.2408 0.786951Z" fill="#1C274C"/>
</svg>
