<svg width="31" height="31" viewBox="0 0 31 31" fill="none" xmlns="http://www.w3.org/2000/svg">
<path d="M3.52622 29.2743C4.29564 28.381 5.53878 25.5819 5.48087 24.2178C4.03013 22.6056 3.06544 20.4565 2.88001 18.0854C2.65393 15.1925 3.60877 12.4492 5.35089 10.3097L5.97739 8.31836C2.82395 10.5454 0.884088 14.2558 1.19641 18.2501C1.38184 20.6212 2.34653 22.7704 3.79727 24.3826C3.85518 25.7466 2.61142 28.5458 1.84262 29.4391C1.63749 29.7541 1.91039 30.18 2.24304 30.0636C2.66071 29.9174 3.06605 29.7382 3.45661 29.5294C3.45292 29.4446 3.47324 29.3557 3.52622 29.2743Z" fill="#EBECED"/>
<path d="M29.597 21.9597C28.2923 21.6309 27.0682 21.0099 25.9951 20.1414C25.5479 19.7795 24.951 19.7616 24.4846 20.0911C22.7542 21.3125 20.6844 22.1189 18.4236 22.3409C11.723 22.9971 5.87942 18.2631 5.37181 11.7688C5.33732 11.3242 5.32931 10.8838 5.34471 10.4468C5.14635 11.4579 5.0792 12.507 5.16237 13.5761C5.66997 20.0711 11.5136 24.8043 18.2141 24.1482C20.8273 23.8924 23.1842 22.8544 25.0581 21.2987C26.5169 22.7351 28.336 23.6663 30.2919 23.9483L30.2981 23.9476C30.6584 23.9124 30.8112 23.421 30.5525 23.1377C30.2131 22.7655 29.8946 22.3712 29.597 21.9597Z" fill="#EBECED"/>
<path d="M30.7617 23.0281C29.818 22.0101 29.035 20.8321 28.4344 19.5266C28.3802 19.4081 28.2502 19.3612 28.1442 19.4226C28.0383 19.4832 27.997 19.6293 28.0512 19.7472C28.6734 21.0996 29.4847 22.3203 30.4623 23.3755C30.5461 23.4658 30.511 23.5699 30.4981 23.5996C30.4851 23.6292 30.434 23.725 30.3188 23.7085C28.4128 23.4341 26.643 22.5381 25.2002 21.1168C25.1239 21.0417 25.0111 21.0361 24.9292 21.1044C23.0146 22.6938 20.686 23.6637 18.1948 23.907C11.6237 24.5501 5.87306 19.9057 5.37654 13.5541C5.13629 10.4834 6.14596 7.47401 8.22011 5.07947C10.3017 2.67529 13.2044 1.17956 16.3935 0.868011C19.5827 0.555771 22.6733 1.46492 25.0968 3.42797C27.5103 5.38344 28.9722 8.15087 29.2118 11.2216C29.3775 13.3439 28.9297 15.4958 27.9446 17.3685C27.8103 17.6373 27.7161 17.7848 27.604 17.9689C27.2122 18.5706 26.8062 18.9311 26.6208 19.0779C26.5235 19.1551 26.5007 19.3054 26.5691 19.4143C26.6109 19.4811 26.6775 19.5163 26.7452 19.5163C26.7884 19.5163 26.8315 19.5018 26.8697 19.4722C27.097 19.2923 27.5313 18.8946 27.9274 18.2949C28.0537 18.1033 28.1787 17.8882 28.297 17.6504C29.3412 15.6833 29.8167 13.4169 29.6424 11.1802C29.3911 7.96821 27.867 5.07671 25.3506 3.03784C22.8433 1.00724 19.6492 0.0656975 16.3572 0.388277C13.0652 0.710168 10.0657 2.25759 7.91148 4.74517C7.01147 5.7846 6.30427 6.93637 5.80283 8.15845C4.22457 9.28817 2.94447 10.7894 2.09867 12.5057C1.21344 14.3019 0.827805 16.296 0.981811 18.2722C1.16292 20.5867 2.08573 22.7897 3.5839 24.486C3.58144 25.8094 2.40606 28.4376 1.68716 29.273C1.68038 29.2812 1.67422 29.2895 1.66806 29.2985C1.51899 29.5273 1.51775 29.8244 1.6656 30.0553C1.7771 30.2297 1.94836 30.3262 2.13008 30.3262C2.18861 30.3262 2.24774 30.3165 2.30688 30.2958C4.03422 29.6927 5.55149 28.5547 6.70531 26.9997C8.71663 28.0853 11.0045 28.5375 13.3344 28.31C15.8003 28.0688 18.0919 27.09 19.9616 25.4806C20.0558 25.3992 20.0737 25.2476 20.001 25.1421C19.9283 25.0367 19.7934 25.0167 19.6985 25.098C17.8942 26.6517 15.6808 27.596 13.2968 27.8289C10.9867 28.055 8.71971 27.5898 6.74288 26.4828C6.65171 26.4318 6.54144 26.4593 6.47799 26.5476C5.36545 28.1046 3.87836 29.2413 2.17813 29.8354C2.08696 29.8671 2.0346 29.8037 2.01612 29.7748C1.99825 29.7472 1.96376 29.6755 2.00996 29.5942C2.81264 28.6478 4.07241 25.7887 4.01266 24.3736C4.01019 24.3136 3.9874 24.2564 3.94921 24.2137C2.48738 22.5884 1.58552 20.4641 1.41118 18.2315C1.26395 16.3512 1.63233 14.4522 2.47567 12.7401C3.18965 11.2905 4.22888 9.9995 5.50344 8.96973C5.0174 10.4503 4.82396 12.0156 4.94778 13.5982C5.43321 19.8065 10.7089 24.4515 16.9818 24.4515C17.3946 24.4515 17.8129 24.4315 18.233 24.3902C20.7433 24.1448 23.0953 23.1832 25.0469 21.6082C26.5302 23.0192 28.3303 23.9104 30.264 24.1889C30.5276 24.2268 30.7722 24.0786 30.8868 23.8105C31.0026 23.541 30.9533 23.2342 30.7617 23.0281Z" fill="#2A3853"/>
<path d="M13.9182 12.4222C13.9182 11.0893 12.8394 10.0059 11.5143 10.0059C10.1892 10.0059 9.11035 11.0903 9.11035 12.4222C9.11035 13.754 10.1892 14.8385 11.5143 14.8385C12.8394 14.8385 13.9182 13.755 13.9182 12.4222ZM9.76725 12.4222C9.76725 11.4539 10.551 10.6671 11.5133 10.6671C12.4757 10.6671 13.2594 11.4549 13.2594 12.4222C13.2594 13.3894 12.4757 14.1772 11.5133 14.1772C10.551 14.1772 9.76725 13.3904 9.76725 12.4222Z" fill="#1C274C"/>
<path d="M19.7078 12.4222C19.7078 11.0893 18.6289 10.0059 17.3038 10.0059C15.9788 10.0059 14.8999 11.0903 14.8999 12.4222C14.8999 13.754 15.9788 14.8385 17.3038 14.8385C18.6289 14.8385 19.7078 13.755 19.7078 12.4222ZM15.5568 12.4222C15.5568 11.4539 16.3406 10.6671 17.3029 10.6671C18.2652 10.6671 19.049 11.4549 19.049 12.4222C19.049 13.3894 18.2652 14.1772 17.3029 14.1772C16.3406 14.1772 15.5568 13.3904 15.5568 12.4222Z" fill="#1C274C"/>
<path d="M25.4968 12.4222C25.4968 11.0893 24.418 10.0059 23.0929 10.0059C21.7678 10.0059 20.689 11.0903 20.689 12.4222C20.689 13.754 21.7678 14.8385 23.0929 14.8385C24.418 14.8385 25.4968 13.755 25.4968 12.4222ZM21.3459 12.4222C21.3459 11.4539 22.1296 10.6671 23.092 10.6671C24.0543 10.6671 24.838 11.4549 24.838 12.4222C24.838 13.3894 24.0543 14.1772 23.092 14.1772C22.1296 14.1772 21.3459 13.3904 21.3459 12.4222Z" fill="#1C274C"/>
</svg>
